<svg id="Layer_1" data-name="Layer 1" xmlns="http://www.w3.org/2000/svg" viewBox="0 0 382.75 382.75"><defs><style>.cls-1{fill:#231f20;stroke:#232323;stroke-width:0.5px;}.cls-2{fill:none;}</style></defs><path class="cls-1" d="M362.29,223.8a9.55,9.55,0,0,0-.41,3.08,6.7,6.7,0,0,0,.51,2.49,12.75,12.75,0,0,0,2.88,3.9,25.51,25.51,0,0,1,3.09,3.36,3.93,3.93,0,0,1,.48,3.83,5.72,5.72,0,0,1-4.15,3.3c4,2.06,6.21-.42,6.66-3.13s-1.49-5.27-1.49-5.27a6.54,6.54,0,0,1,1.46-1,1.76,1.76,0,0,1,2.41.33c1.56,2.22-.41,3.44-.41,3.44a2.85,2.85,0,0,0,1.56-.51c.75-.52,1.45-1.61,1.23-3.76-.28-2.66-3.15-2.55-3.15-2.55a5.07,5.07,0,0,0,.16-1.91,3.19,3.19,0,0,0-2.31-2.72,2.44,2.44,0,0,0-3.13.92,2.3,2.3,0,0,0-.18,2.45s1.31-2.31,2.84-.72-.87,4.3-3,3.2a5.87,5.87,0,0,1-2.78-2.75,9.13,9.13,0,0,1-.29-5.64s7,1.94,7.56-2.87a5.59,5.59,0,0,0,3-1.31c1.55-1.26,3.2-3.78,3.82-8.64.38-4-.7-6.51-1.79-7.94a5.65,5.65,0,0,0-2.29-1.86,5.92,5.92,0,0,0,0-1.4,10.63,10.63,0,0,0-.8-3.08c-1-2.24-3.08-4.43-7.53-4.4-5.08,0-6.93,2.3-6.93,2.3a4,4,0,0,0-4-2.77c-4.33,0-5.44,2.51-4.42,5.79a2.69,2.69,0,0,0,3,1.82,6.54,6.54,0,0,1-1-1.78,2.48,2.48,0,0,1,.79-3c1.69-1.24,4.17-.37,3.81,2.67-.13,1-1.26,1.63-2.56,2.51a7.66,7.66,0,0,0-3.38,4,20.73,20.73,0,0,0-.79,3.61,21.94,21.94,0,0,0-.42,4.14,12,12,0,0,0,.55,3.84,4.67,4.67,0,0,0,1.78,2.65,6.89,6.89,0,0,0-.85,2.51,8.58,8.58,0,0,0,0,2.8A12.14,12.14,0,0,0,353,227.3c.68,1.3,1.7,2.88,2.8,4.59.54.86,1.13,1.76,1.65,2.66s1,1.81,1.48,2.71c1.8,3.62,2.94,7.19,1.13,8.93a6.13,6.13,0,0,1,2.53,2.56c1.06,1.91,1.91,5.21.14,10.27a17.64,17.64,0,0,1-2.9,5.74,10.28,10.28,0,0,1-3,2.66,5.26,5.26,0,0,1-3.19.78,8.07,8.07,0,0,1-.44,1.15,10.05,10.05,0,0,1-1.53,2.3,5.18,5.18,0,0,1-6.57,1.3c-6.06-2.88-4.18-7.9-3.17-9.55a5.61,5.61,0,0,1-2.06-2.45,7.57,7.57,0,0,1-.64-3.41,16.27,16.27,0,0,1,1.27-5.21,11.57,11.57,0,0,1,3.75-5,10.75,10.75,0,0,1,4.82-2.29c3.22-.59,6,.81,5.72,4.69a3,3,0,0,1,1.34,1.16c.62.91,1,2.45.19,5a7.67,7.67,0,0,1-3.29,4.7,5.36,5.36,0,0,1-2.16.76,6.71,6.71,0,0,1,.06,2.35,2.24,2.24,0,0,1-2.79,2c-3.76-.51-2.07-5.08-.58-5.3a4.75,4.75,0,0,1-2-1.52c-.74-1.06-.95-2.67.85-5.16,0,0,2-4,4.82-2.45s-.07,5-.72,4.2c0,0-1.68-1.59-1.67,1.24s4.15,2.56,5.28-1.59c.56-2,.42-3.42-.18-4.38a5.39,5.39,0,0,0-3-1.95c-2.47-.8-5.75,1.63-7,4.57a17.66,17.66,0,0,0-.76,2.26,9.29,9.29,0,0,0-.39,2.18,3.42,3.42,0,0,0,1.58,3.29,8.15,8.15,0,0,0-.58,2.83,3.69,3.69,0,0,0,2.62,3.94c2.19.76,3.91.28,5-.83a6.87,6.87,0,0,0,1.82-4.22,4.61,4.61,0,0,0,2-1c1.12-.81,2.31-2.41,3.07-5.24a12.53,12.53,0,0,0,.45-3.64,7.24,7.24,0,0,0-.59-2.52,3.88,3.88,0,0,0-1.64-2s1.49-4.06-5.56-6.1a6.8,6.8,0,0,0,1-2.42,5,5,0,0,0-1.09-4.66c-2.73-2.89-2.81-2.38-1.82-7.2a5.71,5.71,0,0,0-.68-4,6.72,6.72,0,0,0-.85-1.17,5.37,5.37,0,0,0-.41-.42,7.12,7.12,0,0,1,.54,2.05,3.57,3.57,0,0,1-.88,3.21,4.43,4.43,0,0,0-1.48,3,2.51,2.51,0,0,0,.53,2.3s-2.69.79-2.86,3.08,1.92,5.12,4.84,3.06c0,0-3.38-.58-2.28-2.76s4.92-.41,4.28,2.48a4,4,0,0,1-.65,1.86,10.73,10.73,0,0,1-4.6,3.71c-2.49,1.26-5.4,4.71-6.83,8.58-1.64,3.78-1.79,8.11.9,11.09a6.42,6.42,0,0,0-.85,1.9,4.89,4.89,0,0,0,.58,4.06,6.29,6.29,0,0,1-2.29.75,2.7,2.7,0,0,1-3.18-1.81c-1.27-3.43,2.76-3.82,3-3.45a2.6,2.6,0,0,0-1.94-1.15,4.09,4.09,0,0,0,.79-1.51,3.37,3.37,0,0,0-.9-3.37,4.06,4.06,0,0,1,0,.58,11,11,0,0,1-.16,1.39,5.07,5.07,0,0,1-1.68,3.13c-1.8,1.44-1.76,5.4,1,7.5a5.62,5.62,0,0,0,4.48.81,10.07,10.07,0,0,0,2.44-.78,15.35,15.35,0,0,0,2.65,2.41c1.59,1.14,3.76,2.17,6,1.53,4.38-1.32,5.8-3.59,6.63-5.72a7.3,7.3,0,0,0,3.52-1.18,12.23,12.23,0,0,0,3.18-2.89,17.19,17.19,0,0,0,1.57-2.42,23.1,23.1,0,0,0,1.28-3.26,20.39,20.39,0,0,0,1-6.57,17.85,17.85,0,0,0-.8-4.83,11.89,11.89,0,0,0-2-3.9,3.11,3.11,0,0,0,.18-.63,8.62,8.62,0,0,0,.15-1.76,11.55,11.55,0,0,0-1.85-5.9l-3.65-5.81a60.92,60.92,0,0,1-3.14-5.5,6.58,6.58,0,0,1-.15-4.88,9.85,9.85,0,0,1,1.13-2.34,6.36,6.36,0,0,1-2.23-2.18c-1.05-1.57-1.87-4-.95-7.81,1.5-7.6,6-8.17,6.65-7.09a7.41,7.41,0,0,1,.81-3.11c.85-1.53,2.65-3.06,6.46-2.93s5.19,2,5.62,3.88a6.19,6.19,0,0,1,.06,2.52,7.1,7.1,0,0,1-.27,1.13,6.11,6.11,0,0,1,2.51,1.63c1.16,1.24,2.29,3.41,1.65,6.89-1.4,6.93-3.89,7.23-5.46,7.25a3.43,3.43,0,0,1-.11.83,4.9,4.9,0,0,1-.69,1.67c-.77,1.12-2.24,1.95-5.06.86s-3.3-2.57-3.06-3.8a5.26,5.26,0,0,1,.64-1.58,5.15,5.15,0,0,1,.47-.66,4.94,4.94,0,0,1-2.15-1.42c-.91-1.08-1.5-2.85-.19-5.83,2.32-6,8.52-4.05,8.62-1.32.11,2-.2,3.21-.68,3.86a1.52,1.52,0,0,1-1.81.57c-1.07-.31-.29-2.27-.29-2.27s-.58-1.14-1.85-.13-.4,5.44,2.65,4.83a4.84,4.84,0,0,0,3.35-3.28,6.67,6.67,0,0,0,.43-2.81,9.06,9.06,0,0,0-.64-3.06c-1.6-4.06-9.09-3.11-11.18,1.56a15,15,0,0,0-.73,2,11.51,11.51,0,0,0-.44,1.83,9.32,9.32,0,0,0,0,3.13c.34,1.8,1.22,3,2,3.33,0,0,0,.42-.07,1a14.42,14.42,0,0,0,.08,2.3C360,221.76,362.29,223.8,362.29,223.8Z"/><path class="cls-2" d="M326.62,269.43a153.14,153.14,0,0,0,9.06-18.29c1.24-3.17,2.56-6.31,3.57-9.56l.83-2.42c.28-.81.55-1.61.76-2.44l1.39-4.91c.52-1.62.82-3.31,1.22-5s.82-3.3,1.1-5c.57-3.36,1.28-6.7,1.63-10.09a165.49,165.49,0,0,0,1.37-20.4h35.2a200.28,200.28,0,0,1-1.67,25c-.44,4.16-1.27,8.25-2,12.37-.36,2.06-.9,4.08-1.35,6.12s-.89,4.08-1.5,6.08l-1.71,6c-.27,1-.6,2-.94,3l-1,3c-1.26,4-2.86,7.85-4.39,11.73a187.9,187.9,0,0,1-11.11,22.44Z"/><path class="cls-1" d="M323.16,304.89a7.91,7.91,0,0,0-2.68,4.89,12.56,12.56,0,0,0,.51,4.79,25.59,25.59,0,0,1,1,4.44,3.88,3.88,0,0,1-1.47,3.59,5.78,5.78,0,0,1-5.26.76c2.44,3.79,5.6,2.75,7.35.65a6.43,6.43,0,0,0,1.31-3.48,9,9,0,0,0,0-1.85,6.87,6.87,0,0,1,1.76-.12c.9.08,1.83.42,1.93,1.5a2.26,2.26,0,0,1-2.1,2.75,2.94,2.94,0,0,0,1.61.35c.92-.07,2.08-.65,3-2.62,1.1-2.41-1.44-3.76-1.44-3.76a4.87,4.87,0,0,0,.39-.43,5.18,5.18,0,0,0,.66-1.17,3.23,3.23,0,0,0-.64-3.52,2.48,2.48,0,0,0-4.51,1.29,3.76,3.76,0,0,1,1.2-.41,1.35,1.35,0,0,1,1.6,1.19c.56,2.2-2.92,3.27-4.24,1.24s-1.88-5,1.54-8.8c0,0,5.08,5.19,8,1.33a5.37,5.37,0,0,0,3.17.32,9.27,9.27,0,0,0,3.47-1.42,15.33,15.33,0,0,0,4.17-4.13c2.34-3.31,2.77-5.92,2.48-7.75a5.93,5.93,0,0,0-1.09-2.79,10.71,10.71,0,0,0,1.58-4.26c.35-2.39-.5-5.41-4.34-7.6-4.42-2.51-7.09-1.44-7.09-1.44a4.13,4.13,0,0,0-2.17-4.46c-3.75-2.21-5.85-.48-6.72,2.79a2.65,2.65,0,0,0,1.68,3.07,6.47,6.47,0,0,1,.08-2,2.5,2.5,0,0,1,2.26-2.19c2.06-.24,3.83,1.79,1.91,4.19-.62.79-2,.75-3.5.87a7.93,7.93,0,0,0-4.89,1.81,21.47,21.47,0,0,0-2.54,2.68,38,38,0,0,0-2.4,3.42c-1.41,2.35-2.17,4.87-1.22,6.79a6.92,6.92,0,0,0-2,1.73,10.05,10.05,0,0,0-2.11,6.15c-.16,2.9.36,7.51.14,11.59s-1.1,7.64-3.49,8.3a6.13,6.13,0,0,1,.91,3.47,9.3,9.3,0,0,1-1,4A14.32,14.32,0,0,1,308.4,333a20.33,20.33,0,0,1-2.49,2.56,19.1,19.1,0,0,1-5.37,3.53,10.29,10.29,0,0,1-4,.79,5.32,5.32,0,0,1-3.15-.93,11,11,0,0,1-1,.78A8.47,8.47,0,0,1,290,341a5.22,5.22,0,0,1-6.36-2.17c-1.93-2.74-1.82-5-1.06-6.64a8.1,8.1,0,0,1,3.07-3.22,5.59,5.59,0,0,1-.56-3.15,7.45,7.45,0,0,1,1.16-3.26,10.6,10.6,0,0,1,1.48-1.85,18,18,0,0,1,2.21-2.05,12.49,12.49,0,0,1,5.73-2.44,10.8,10.8,0,0,1,5.33.44c3.09,1.11,4.82,3.72,2.6,6.91a2.9,2.9,0,0,1,.58,1.67c.06,1.08-.34,2.66-2.33,4.48a8.06,8.06,0,0,1-5.2,2.43,5.14,5.14,0,0,1-2.25-.41,6.61,6.61,0,0,1-1.12,2.05,2.26,2.26,0,0,1-3.44.34c-3-2.32.75-5.42,2.17-4.86a4.67,4.67,0,0,1-1-2.3c-.1-1.27.46-2.84,3.3-4.06,0,0,3.75-2.43,5.42.29s-2.6,4.32-2.74,3.26c0,0-.66-2.2-2.08.23s2.31,4.29,5.38,1.28c1.53-1.48,2.09-2.74,2-3.91a5.35,5.35,0,0,0-1.59-3.16,4.46,4.46,0,0,0-3.84-1.18,8.57,8.57,0,0,0-4.47,1.67c-2.51,2-4.87,4.48-3.49,6.92,0,0-4.59,3.43-1.6,6.9s6.73,1.41,8.43-1a4.78,4.78,0,0,0,2.17.15,9.72,9.72,0,0,0,5.27-3,9.06,9.06,0,0,0,2.94-5.42,3.84,3.84,0,0,0-.4-2.57s3.35-2.75-1.75-8a8.72,8.72,0,0,0,2-1.63,5,5,0,0,0,1.42-4.55c-.88-3.85-1.33-3.55,2-7.15a5.35,5.35,0,0,0,1.14-1.94,5.83,5.83,0,0,0,.26-1.92,7.19,7.19,0,0,0-.29-2,9.43,9.43,0,0,1-.54,2.06,3.37,3.37,0,0,1-2.37,2.34c-2.37.39-3.94,3.07-3.45,4.11,0,0-2.73-.67-4,1.22s-.9,5.4,2.65,5.05c0,0-2.65-2.19-.59-3.51s4.48,2.11,2.46,4.28a4.22,4.22,0,0,1-1.5,1.28,9.93,9.93,0,0,1-5.83.93,11.34,11.34,0,0,0-4.94,1,18.34,18.34,0,0,0-5.28,3,14.73,14.73,0,0,0-3.93,4.48,8.19,8.19,0,0,0-.81,5.6,6.74,6.74,0,0,0-1.69,1.22,4.93,4.93,0,0,0-1.53,3.8,7,7,0,0,1-2.34-.46,2.71,2.71,0,0,1-1.85-3.16c.57-3.67,4.3-1.94,4.35-1.49a2.61,2.61,0,0,0-1.11-2,4.25,4.25,0,0,0,1.44-.9,3.35,3.35,0,0,0,.85-1.31,3.94,3.94,0,0,0,0-2.09,5.35,5.35,0,0,1-.27.52,6.33,6.33,0,0,1-.81,1.15,5.11,5.11,0,0,1-3,1.86,3.86,3.86,0,0,0-2.79,2.45,5.26,5.26,0,0,0,3.37,7.48,9.41,9.41,0,0,0,1.75.45c.45.06.74.07.74.07a16.52,16.52,0,0,0,1.11,3.44c.82,1.78,2.19,3.75,4.41,4.27,4.45,1,6.85-.16,8.6-1.65a7.4,7.4,0,0,0,3.64.74c2.31-.06,5.74-.88,9.5-4.41a24.53,24.53,0,0,0,2.47-2.59,16.41,16.41,0,0,0,1.7-2.59,17.16,17.16,0,0,0,1.74-4.55,13.49,13.49,0,0,0,.34-3.18,8.29,8.29,0,0,0-.12-1.21,7.37,7.37,0,0,0,1.48-1.9,11.42,11.42,0,0,0,1.38-6c-.09-1.93-.21-4.46-.27-6.88s-.05-4.69,0-6.33a6.32,6.32,0,0,1,2.34-4.29,12.42,12.42,0,0,1,1.49-1.08l.67-.37a6.72,6.72,0,0,1-.89-3,7.71,7.71,0,0,1,.53-3.24,13.75,13.75,0,0,1,2.58-4c5.22-5.75,9.27-4.07,9.32-2.79,0,0,2.9-5.58,9.37-1.54,3.22,2,3.45,4.32,2.85,6.13a8.1,8.1,0,0,1-2,3.08,4.84,4.84,0,0,1,.53.71,6.09,6.09,0,0,1,.84,2c.39,1.66.19,4-2.07,6.76a15.08,15.08,0,0,1-3.07,2.91,6.84,6.84,0,0,1-2.36,1.12,3.8,3.8,0,0,1-2.95-.52,5.33,5.33,0,0,1-1.9,1.81c-1.23.58-2.92.55-4.82-1.8s-1.54-3.86-.76-4.85a5,5,0,0,1,2.08-1.38,4.8,4.8,0,0,1-1.13-2.29c-.26-1.4.22-3.16,2.72-5.16,5.1-4,9.46.8,8.15,3.19-1.92,3.5-3.33,3.68-4.34,2.61-.77-.8.82-2.15.82-2.15s.06-1.28-1.53-1c-.8.11-1.49,1.29-1.71,2.5a2.49,2.49,0,0,0,1.62,3c3,1,6.62-2.05,7.32-6.34.37-2.13-1.28-4-3.43-4.86a7.57,7.57,0,0,0-7.06.58,12.94,12.94,0,0,0-2.91,2.76,10.59,10.59,0,0,0-1.56,2.7c-.63,1.72-.5,3.22.05,3.88,0,0-.24.34-.56.88a22.38,22.38,0,0,0-1.06,2.05C322.24,302,323.16,304.89,323.16,304.89Z"/><path class="cls-2" d="M269.43,326.62a155.43,155.43,0,0,0,57.19-57.19l30.47,17.63a190.72,190.72,0,0,1-70,70Z"/><path class="cls-1" d="M248.77,355.62a7.54,7.54,0,0,0-4.77,2.9,12.81,12.81,0,0,0-2,4.4c-.86,3.1-1.35,6.16-4.44,6.73a5.82,5.82,0,0,1-4.95-2c.21,4.48,3.49,5.24,6,4.25a8.16,8.16,0,0,0,3.81-4,6.9,6.9,0,0,1,1.59.8c.74.51,1.38,1.27.92,2.25a2.26,2.26,0,0,1-3.21,1.31,3,3,0,0,0,1.23,1.12c.83.4,2.13.48,3.89-.75a2.58,2.58,0,0,0,1.13-2.6,4.11,4.11,0,0,0-.49-1.41s3.59-.91,2.92-4.22a2.48,2.48,0,0,0-4.56-1.14s2.63-.1,2,2a1.85,1.85,0,0,1-2.32,1.25,2.48,2.48,0,0,1-2-2.25,5.9,5.9,0,0,1,1-3.77,8.26,8.26,0,0,1,4.73-3.09,12.41,12.41,0,0,0,1.47,3.27,5.19,5.19,0,0,0,1.94,1.87,3.08,3.08,0,0,0,2.85,0,5.44,5.44,0,0,0,2.59,1.86A9.38,9.38,0,0,0,262,365a15.11,15.11,0,0,0,2.6-.38,21.39,21.39,0,0,0,3.07-1.13c3.7-1.67,5.36-3.75,6-5.49a5.88,5.88,0,0,0,.44-3,10.82,10.82,0,0,0,3.51-2.88c1.47-2,2.26-5,0-8.78-2.58-4.38-5.43-4.8-5.43-4.8a4.09,4.09,0,0,0,.35-4.93c-1.07-1.89-2.29-2.73-3.53-2.79a3.43,3.43,0,0,0-1.84.48,6.92,6.92,0,0,0-1.84,1.39,2.62,2.62,0,0,0-.08,3.48,6.55,6.55,0,0,1,1.07-1.68,2.57,2.57,0,0,1,3.05-.79A2.49,2.49,0,0,1,271,335.9a2.22,2.22,0,0,1-.45,1.36,3.51,3.51,0,0,1-1.54,1.07c-1.88.73-4.51-2.78-8.61-1.86a25,25,0,0,0-7.31,2.83c-2.41,1.31-4.33,3.1-4.47,5.23a8.69,8.69,0,0,0-2.59.52,9.68,9.68,0,0,0-4.9,4.27c-1.58,2.48-3.47,6.61-5.69,10.1s-4.79,6-7.17,5.43a4.44,4.44,0,0,1-.06,1,6.49,6.49,0,0,1-.89,2.46c-1.12,1.86-3.59,4.12-8.83,5.24-5.28.95-8.44.23-10.24-.95a5.42,5.42,0,0,1-2.26-2.42,10.9,10.9,0,0,1-4,.07,5.24,5.24,0,0,1-2.86-1.43,5.63,5.63,0,0,1-1.56-3.65c-.28-3.34.93-5.21,2.42-6.22a7.5,7.5,0,0,1,4.27-1.33,5.4,5.4,0,0,1,1.1-3,7.2,7.2,0,0,1,2.64-2.19,13.82,13.82,0,0,1,5.14-1.57,13.12,13.12,0,0,1,3.26,0,11.38,11.38,0,0,1,2.91.71,11,11,0,0,1,4.41,3.1c2.12,2.53,2.3,5.65-1.23,7.25a2.84,2.84,0,0,1-.33,1.73c-.49.94-1.64,2.11-4.26,2.76a8.14,8.14,0,0,1-5.72-.58,5.24,5.24,0,0,1-1.74-1.44,5.21,5.21,0,0,1-.58.48,4.75,4.75,0,0,1-1.42.76,2.29,2.29,0,0,1-3.14-1.48c-1.44-3.56,3.38-4.21,4.31-3.09,0,0-.89-5.18,5.22-4.33a7.78,7.78,0,0,1,2.24.32,2.71,2.71,0,0,1,2.29,2.61,2.16,2.16,0,0,1-2.13,2.36c-1.06.07-2.07-.38-1.87-.87,0,0,.55-2.23-1.91-.87s-.15,4.86,4,3.86c4.12-1.15,4.43-3.36,3.91-6a4.51,4.51,0,0,0-2.74-3,8.78,8.78,0,0,0-2.27-.66,8.27,8.27,0,0,0-2.43-.1c-3.18.34-6.44,1.53-6.48,4.26,0,0-5.7.55-4.85,5.12s5.12,4.69,7.78,3.41a4.58,4.58,0,0,0,1.8,1.17,9.89,9.89,0,0,0,6.09.1c5.64-1.67,6.31-5.11,6.2-5.66a3.41,3.41,0,0,0,1.92-1.22c.85-1.1,1.45-3.1.59-6.66a8.46,8.46,0,0,0,2.59-.36,4.86,4.86,0,0,0,3.51-3.2c1.13-3.87.63-3.76,5.33-5.18a4.53,4.53,0,0,0,2-1.13,6.46,6.46,0,0,0,1.18-1.54,6.84,6.84,0,0,0,.75-1.87,9.57,9.57,0,0,1-1.49,1.5,3.33,3.33,0,0,1-3.22.88c-2.24-.87-4.94.62-5,1.79a5.19,5.19,0,0,0-1.27-.81,3.32,3.32,0,0,0-2.83-.14c-2.07.95-3.49,4.18-.24,5.69,0,0-1.19-3.23,1.26-3.32s2.82,4.1,0,4.93a4.26,4.26,0,0,1-1.94.34,9.73,9.73,0,0,1-5.5-2.09c-2.36-1.66-6.76-2.2-10.86-1.69a15.82,15.82,0,0,0-3,.73,14.4,14.4,0,0,0-2.67,1.21,7.88,7.88,0,0,0-3.51,4.42,6.67,6.67,0,0,0-2.07.27,4.76,4.76,0,0,0-3.23,2.45,7.38,7.38,0,0,1-1.8-1.6,2.72,2.72,0,0,1,0-3.67c2.34-2.83,4.7.58,4.52,1a2.58,2.58,0,0,0,0-2.25,2.31,2.31,0,0,0,.51,0,4.39,4.39,0,0,0,1.19-.16,3.52,3.52,0,0,0,2.46-2.52,8.81,8.81,0,0,1-1.77.9,4.63,4.63,0,0,1-3.55.14c-2.16-1-5.57,1.18-6,4.6a5.5,5.5,0,0,0,1.54,4.24,9.78,9.78,0,0,0,1.9,1.68,15.88,15.88,0,0,0-.76,3.52c-.19,2,0,4.33,1.67,5.93a10.62,10.62,0,0,0,4.54,2.83,8.72,8.72,0,0,0,3.73.05,7.47,7.47,0,0,0,2.78,2.5c2,1.21,5.38,2,10.43,1,.63-.13,1.23-.27,1.8-.44s1.11-.39,1.63-.6a21.66,21.66,0,0,0,2.77-1.38,17.49,17.49,0,0,0,3.8-3,12,12,0,0,0,2.38-3.74,7.3,7.3,0,0,0,2.24-.89,10.54,10.54,0,0,0,4.19-4.53c.89-1.71,2.07-3.94,3.22-6,.58-1.06,1.16-2.07,1.7-3s1-1.81,1.49-2.48a6.26,6.26,0,0,1,4.17-2.51c.72-.12,1.37-.17,1.83-.21s.76,0,.76,0a6.54,6.54,0,0,1,.75-3.07,7.55,7.55,0,0,1,2.08-2.52,11.64,11.64,0,0,1,1.8-1.15,14,14,0,0,1,2.41-1,14.32,14.32,0,0,1,4.7-.79,7.17,7.17,0,0,1,3,.59c1.52.7,2.05,1.89,1.74,2.44a6.33,6.33,0,0,1,3.11-.85c1.77,0,4,.83,5.78,4.17s.85,5.5-.58,6.76a8.14,8.14,0,0,1-3.25,1.67,6.3,6.3,0,0,1-.14,3c-.48,1.68-1.86,3.6-5.17,4.82s-5.42,1.19-6.73.8a3.83,3.83,0,0,1-2.29-1.93,5.37,5.37,0,0,1-2.56.61c-1.33,0-2.79-.95-3.26-3.93s.57-4.18,1.75-4.62a5,5,0,0,1,2.5-.14,4.74,4.74,0,0,1,.16-2.55,3.82,3.82,0,0,1,1.47-1.86,7.11,7.11,0,0,1,3.46-1.26c6.42-.87,7.82,5.44,5.47,6.84-3.42,2.06-4.72,1.5-5.07.08-.27-1.08,1.79-1.45,1.79-1.45s.7-1.07-.8-1.66c-.75-.3-2,.33-2.73,1.32a2.52,2.52,0,0,0-.11,3.45c2.09,2.4,6.74,1.49,9.51-1.83,1.35-1.73.87-4.12-.56-6a7.8,7.8,0,0,0-2.77-2.25,6.93,6.93,0,0,0-3.64-.75,12,12,0,0,0-6.59,2.51c-1.41,1.16-2,2.52-1.9,3.37a15.7,15.7,0,0,0-2.86,1.74,5.3,5.3,0,0,0-1.3,2.21A14.18,14.18,0,0,0,248.77,355.62Z"/><path class="cls-2" d="M191.38,347.55a163.57,163.57,0,0,0,20.4-1.38c3.39-.34,6.73-1.05,10.09-1.62,1.68-.28,3.32-.74,5-1.1s3.34-.7,5-1.22l4.91-1.39c.83-.21,1.63-.48,2.44-.76l2.42-.83c3.25-1,6.39-2.33,9.56-3.57a153.14,153.14,0,0,0,18.29-9.06l17.63,30.47a187.9,187.9,0,0,1-22.44,11.11c-3.88,1.53-7.75,3.13-11.73,4.39l-3,1c-1,.34-2,.67-3,.94l-6,1.71c-2,.61-4.05,1-6.08,1.5s-4.06,1-6.12,1.35c-4.12.72-8.21,1.55-12.37,2a200.28,200.28,0,0,1-25,1.67Z"/><path class="cls-1" d="M159,362.29a9.62,9.62,0,0,0-3.08-.41,6.62,6.62,0,0,0-2.49.51,12.51,12.51,0,0,0-3.9,2.88,26.2,26.2,0,0,1-3.37,3.09,3.93,3.93,0,0,1-3.83.48,5.72,5.72,0,0,1-3.3-4.15c-2.06,4,.42,6.21,3.13,6.66s5.27-1.49,5.27-1.49a6.78,6.78,0,0,1,1,1.46,1.77,1.77,0,0,1-.34,2.41c-2.22,1.56-3.44-.41-3.44-.41a2.85,2.85,0,0,0,.51,1.56c.52.75,1.61,1.45,3.77,1.23,2.65-.28,2.54-3.15,2.54-3.15a5.11,5.11,0,0,0,1.91.16,3.17,3.17,0,0,0,2.72-2.31,2.44,2.44,0,0,0-.92-3.13,2.3,2.3,0,0,0-2.45-.18s2.31,1.31.72,2.84-4.3-.87-3.2-3a5.87,5.87,0,0,1,2.75-2.78,9.13,9.13,0,0,1,5.64-.29s-1.94,7,2.87,7.56a5.59,5.59,0,0,0,1.31,3c1.26,1.55,3.78,3.2,8.64,3.82,4,.38,6.51-.7,8-1.79a5.68,5.68,0,0,0,1.85-2.29,5.94,5.94,0,0,0,1.4,0,10.63,10.63,0,0,0,3.08-.8c2.25-1,4.43-3.08,4.4-7.53,0-5.08-2.3-6.93-2.3-6.93a4,4,0,0,0,2.77-4c0-4.33-2.51-5.44-5.79-4.42a2.68,2.68,0,0,0-1.81,3,6.57,6.57,0,0,1,1.77-1,2.47,2.47,0,0,1,3,.79c1.24,1.69.37,4.17-2.67,3.81-1-.13-1.63-1.26-2.51-2.56a7.62,7.62,0,0,0-4-3.38,20.81,20.81,0,0,0-3.6-.79,22.13,22.13,0,0,0-4.15-.42,12,12,0,0,0-3.84.55,4.61,4.61,0,0,0-2.64,1.78,7,7,0,0,0-2.51-.85,8.64,8.64,0,0,0-2.81,0,12,12,0,0,0-3.56,1.19c-1.31.68-2.89,1.7-4.6,2.8-.86.54-1.76,1.13-2.66,1.65s-1.81,1-2.71,1.48c-3.61,1.8-7.19,2.94-8.93,1.13a6.13,6.13,0,0,1-2.56,2.53c-1.91,1.06-5.21,1.91-10.27.14a17.64,17.64,0,0,1-5.74-2.9,10.28,10.28,0,0,1-2.66-3,5.26,5.26,0,0,1-.78-3.19,8.07,8.07,0,0,1-1.15-.44,10.5,10.5,0,0,1-2.3-1.53,5.18,5.18,0,0,1-1.3-6.57c2.88-6.06,7.9-4.18,9.55-3.17a5.61,5.61,0,0,1,2.45-2.06,7.57,7.57,0,0,1,3.41-.64,16.27,16.27,0,0,1,5.21,1.27,11.57,11.57,0,0,1,5,3.75,10.75,10.75,0,0,1,2.29,4.82c.59,3.22-.81,6-4.69,5.72a2.88,2.88,0,0,1-1.16,1.34c-.91.62-2.45,1-5,.19a7.67,7.67,0,0,1-4.7-3.29,5.36,5.36,0,0,1-.76-2.16,6.71,6.71,0,0,1-2.35.06,2.24,2.24,0,0,1-2-2.79c.51-3.76,5.08-2.07,5.31-.58a4.68,4.68,0,0,1,1.51-2c1.06-.74,2.67-.95,5.16.85,0,0,4,2,2.45,4.82s-5.05-.07-4.2-.72c0,0,1.59-1.68-1.24-1.67s-2.56,4.15,1.59,5.28c2,.56,3.43.42,4.38-.18a5.39,5.39,0,0,0,1.95-3c.8-2.47-1.63-5.75-4.57-7a17.66,17.66,0,0,0-2.26-.76,9.21,9.21,0,0,0-2.17-.39,3.42,3.42,0,0,0-3.3,1.58,8.15,8.15,0,0,0-2.83-.58,3.69,3.69,0,0,0-3.94,2.62c-.76,2.19-.28,3.91.83,5a6.87,6.87,0,0,0,4.22,1.82,4.77,4.77,0,0,0,1,2c.81,1.12,2.42,2.31,5.25,3.07a12.46,12.46,0,0,0,3.64.45,7.24,7.24,0,0,0,2.51-.59,3.88,3.88,0,0,0,2-1.64s4.06,1.49,6.1-5.56a6.8,6.8,0,0,0,2.42,1,5,5,0,0,0,4.66-1.09c2.9-2.73,2.38-2.81,7.2-1.82a5.71,5.71,0,0,0,4-.68,6.72,6.72,0,0,0,1.17-.85,5.37,5.37,0,0,0,.42-.41,7.12,7.12,0,0,1-2.05.54,3.57,3.57,0,0,1-3.21-.88,4.43,4.43,0,0,0-3-1.48,2.51,2.51,0,0,0-2.3.53s-.79-2.69-3.08-2.86-5.12,1.92-3.06,4.84c0,0,.58-3.38,2.76-2.28s.41,4.92-2.48,4.28a4,4,0,0,1-1.86-.65,10.81,10.81,0,0,1-3.71-4.6c-1.26-2.49-4.71-5.4-8.58-6.83-3.78-1.64-8.11-1.79-11.09.9a6.42,6.42,0,0,0-1.9-.85,4.89,4.89,0,0,0-4.06.58,6.51,6.51,0,0,1-.75-2.29,2.7,2.7,0,0,1,1.81-3.18c3.43-1.27,3.82,2.76,3.45,3a2.6,2.6,0,0,0,1.16-1.94,4,4,0,0,0,1.5.79,3.37,3.37,0,0,0,3.37-.9,4.06,4.06,0,0,1-.58,0,10.85,10.85,0,0,1-1.38-.16A5.07,5.07,0,0,1,118.1,332c-1.44-1.8-5.4-1.76-7.5,1a5.62,5.62,0,0,0-.81,4.48,10.07,10.07,0,0,0,.78,2.44,15.35,15.35,0,0,0-2.41,2.65c-1.14,1.59-2.17,3.76-1.53,6,1.32,4.38,3.59,5.8,5.73,6.63a7.21,7.21,0,0,0,1.17,3.52,12.23,12.23,0,0,0,2.89,3.18,17.79,17.79,0,0,0,2.42,1.57,23.1,23.1,0,0,0,3.26,1.28,20.39,20.39,0,0,0,6.57,1,17.85,17.85,0,0,0,4.83-.8,11.75,11.75,0,0,0,3.9-2,3.11,3.11,0,0,0,.63.18,8.62,8.62,0,0,0,1.76.15,11.55,11.55,0,0,0,5.9-1.85l5.81-3.65a60.92,60.92,0,0,1,5.5-3.14,6.58,6.58,0,0,1,4.88-.15,9.81,9.81,0,0,1,2.35,1.13,6.27,6.27,0,0,1,2.17-2.23c1.57-1.05,4-1.87,7.81-.95,7.61,1.5,8.17,6,7.09,6.65a7.41,7.41,0,0,1,3.11.81c1.54.85,3.06,2.65,2.93,6.46s-2,5.19-3.88,5.62a6.19,6.19,0,0,1-2.52.06,7.1,7.1,0,0,1-1.13-.27,6.15,6.15,0,0,1-1.62,2.51c-1.25,1.16-3.42,2.29-6.89,1.65-6.94-1.4-7.24-3.89-7.25-5.46a3.49,3.49,0,0,1-.84-.11,4.9,4.9,0,0,1-1.67-.69c-1.12-.77-1.94-2.24-.86-5.06s2.57-3.3,3.8-3.06a5.26,5.26,0,0,1,1.58.64,5.15,5.15,0,0,1,.66.47,4.94,4.94,0,0,1,1.42-2.15c1.08-.91,2.85-1.5,5.83-.19,6,2.32,4.05,8.52,1.32,8.62a6.12,6.12,0,0,1-3.86-.68,1.52,1.52,0,0,1-.57-1.81c.31-1.07,2.27-.29,2.27-.29s1.14-.58.13-1.85-5.44-.4-4.83,2.65a4.86,4.86,0,0,0,3.28,3.35,6.67,6.67,0,0,0,2.81.43,9.17,9.17,0,0,0,3.07-.64c4-1.6,3.1-9.09-1.57-11.18a15,15,0,0,0-2-.73,11.51,11.51,0,0,0-1.83-.44,9.25,9.25,0,0,0-3.12,0c-1.81.34-3,1.22-3.34,2l-1-.07a14.26,14.26,0,0,0-2.29.08C161,360,159,362.29,159,362.29Z"/><path class="cls-2" d="M113.32,326.62a153.14,153.14,0,0,0,18.29,9.06c3.17,1.24,6.31,2.56,9.57,3.57l2.41.83c.81.28,1.61.55,2.44.76l4.91,1.39c1.63.52,3.31.82,5,1.22s3.3.82,5,1.1c3.35.57,6.69,1.28,10.08,1.62a163.6,163.6,0,0,0,20.41,1.38v35.2a200.32,200.32,0,0,1-25-1.67c-4.15-.44-8.25-1.27-12.37-2-2.05-.36-4.07-.9-6.12-1.35s-4.08-.89-6.08-1.5l-6-1.71c-1-.27-2-.6-3-.94l-3-1c-4-1.26-7.85-2.86-11.73-4.39a187.9,187.9,0,0,1-22.44-11.11Z"/><path class="cls-1" d="M77.86,323.16A7.91,7.91,0,0,0,73,320.48a12.56,12.56,0,0,0-4.79.51,25.39,25.39,0,0,1-4.44,1,3.88,3.88,0,0,1-3.59-1.47,5.78,5.78,0,0,1-.76-5.26c-3.79,2.44-2.75,5.6-.64,7.35a6.4,6.4,0,0,0,3.47,1.31,9,9,0,0,0,1.85,0,6.87,6.87,0,0,1,.12,1.76c-.08.9-.41,1.83-1.5,1.93a2.26,2.26,0,0,1-2.75-2.1,2.94,2.94,0,0,0-.35,1.61c.07.92.65,2.08,2.62,3,2.41,1.1,3.76-1.44,3.76-1.44a4.87,4.87,0,0,0,.43.39,5.41,5.41,0,0,0,1.17.66,3.23,3.23,0,0,0,3.52-.64,2.48,2.48,0,0,0-1.29-4.51,3.93,3.93,0,0,1,.42,1.2,1.36,1.36,0,0,1-1.2,1.6c-2.2.56-3.27-2.92-1.24-4.24s5-1.88,8.8,1.54c0,0-5.19,5.08-1.33,8a5.33,5.33,0,0,0-.31,3.17,9,9,0,0,0,1.42,3.47,15.13,15.13,0,0,0,4.12,4.17c3.32,2.34,5.92,2.77,7.75,2.48A5.93,5.93,0,0,0,91,344.85a10.79,10.79,0,0,0,4.26,1.58c2.39.35,5.41-.5,7.6-4.34,2.51-4.42,1.45-7.09,1.45-7.09a4.12,4.12,0,0,0,4.45-2.17c2.21-3.75.49-5.85-2.79-6.71a2.62,2.62,0,0,0-3.06,1.67,6.4,6.4,0,0,1,2,.08,2.5,2.5,0,0,1,2.19,2.26c.24,2.06-1.78,3.83-4.19,1.91-.79-.62-.75-2-.87-3.5a7.93,7.93,0,0,0-1.81-4.89,21.47,21.47,0,0,0-2.68-2.54,39.32,39.32,0,0,0-3.41-2.4c-2.36-1.41-4.88-2.17-6.8-1.22a6.92,6.92,0,0,0-1.73-2,10.05,10.05,0,0,0-6.15-2.11c-2.9-.16-7.51.36-11.59.14s-7.64-1.1-8.3-3.49a6.13,6.13,0,0,1-3.47.91,9.3,9.3,0,0,1-4-1,14.32,14.32,0,0,1-2.43-1.51,20.33,20.33,0,0,1-2.56-2.49,19.1,19.1,0,0,1-3.53-5.37,10.29,10.29,0,0,1-.79-4,5.32,5.32,0,0,1,.93-3.15,11,11,0,0,1-.78-1A8.47,8.47,0,0,1,41.74,290a5.22,5.22,0,0,1,2.17-6.36c2.74-1.93,5-1.82,6.64-1.06a8,8,0,0,1,3.22,3.07,5.59,5.59,0,0,1,3.15-.56,7.45,7.45,0,0,1,3.26,1.16A10.6,10.6,0,0,1,62,287.75a18,18,0,0,1,2,2.21,12.49,12.49,0,0,1,2.44,5.73,10.8,10.8,0,0,1-.44,5.33c-1.11,3.09-3.72,4.82-6.91,2.6a2.9,2.9,0,0,1-1.67.58c-1.08.06-2.66-.34-4.48-2.33a8.06,8.06,0,0,1-2.43-5.2,5.32,5.32,0,0,1,.41-2.25,6.61,6.61,0,0,1-2-1.12,2.26,2.26,0,0,1-.34-3.44c2.32-3,5.42.75,4.87,2.17a4.61,4.61,0,0,1,2.29-1c1.27-.1,2.85.46,4.06,3.3,0,0,2.43,3.75-.29,5.42s-4.32-2.6-3.26-2.74c0,0,2.2-.66-.23-2.08s-4.28,2.31-1.28,5.38c1.48,1.53,2.74,2.09,3.91,2a5.35,5.35,0,0,0,3.16-1.59A4.46,4.46,0,0,0,63,296.94a8.54,8.54,0,0,0-1.67-4.47c-2-2.51-4.48-4.87-6.92-3.49,0,0-3.43-4.59-6.9-1.6s-1.41,6.73,1,8.43a4.78,4.78,0,0,0-.15,2.17,9.69,9.69,0,0,0,3,5.27,9,9,0,0,0,5.41,2.94,3.89,3.89,0,0,0,2.58-.4s2.74,3.35,8-1.75a8.51,8.51,0,0,0,1.63,2,5,5,0,0,0,4.55,1.42c3.85-.88,3.55-1.33,7.16,2a5.4,5.4,0,0,0,1.93,1.14,5.83,5.83,0,0,0,1.92.26,7.19,7.19,0,0,0,2-.29,9.43,9.43,0,0,1-2.06-.54,3.37,3.37,0,0,1-2.34-2.37c-.39-2.37-3.06-3.94-4.11-3.45,0,0,.67-2.73-1.22-4s-5.4-.9-5,2.65c0,0,2.19-2.64,3.51-.59s-2.11,4.48-4.28,2.46a4.22,4.22,0,0,1-1.28-1.5,10,10,0,0,1-.92-5.83,11.64,11.64,0,0,0-1-4.94,18.81,18.81,0,0,0-3-5.28,14.77,14.77,0,0,0-4.49-3.93,8.19,8.19,0,0,0-5.6-.81,6.74,6.74,0,0,0-1.22-1.69,4.91,4.91,0,0,0-3.8-1.53,7,7,0,0,1,.46-2.34,2.71,2.71,0,0,1,3.16-1.85c3.67.57,1.94,4.3,1.49,4.35a2.61,2.61,0,0,0,2-1.11,4.25,4.25,0,0,0,.9,1.44,3.35,3.35,0,0,0,1.31.85,3.94,3.94,0,0,0,2.09,0,5.35,5.35,0,0,1-.52-.27,6.7,6.7,0,0,1-1.15-.81,5.11,5.11,0,0,1-1.86-3,3.86,3.86,0,0,0-2.45-2.79,5.26,5.26,0,0,0-7.48,3.37,9.41,9.41,0,0,0-.45,1.75c-.06.45-.07.74-.07.74a16.34,16.34,0,0,0-3.43,1.11c-1.79.82-3.76,2.19-4.28,4.41-1,4.45.16,6.85,1.65,8.6a7.4,7.4,0,0,0-.74,3.64c.06,2.31.88,5.74,4.41,9.5a25.54,25.54,0,0,0,2.59,2.47,16.41,16.41,0,0,0,2.59,1.7,17.21,17.21,0,0,0,4.56,1.74,13.37,13.37,0,0,0,3.17.34,8.29,8.29,0,0,0,1.21-.12,7.32,7.32,0,0,0,1.91,1.48,11.35,11.35,0,0,0,6,1.38c1.93-.09,4.46-.21,6.88-.27s4.69-.05,6.33,0a6.32,6.32,0,0,1,4.29,2.34,11.39,11.39,0,0,1,1.08,1.49l.38.67a6.65,6.65,0,0,1,3-.89,7.71,7.71,0,0,1,3.24.53,13.75,13.75,0,0,1,4,2.58c5.75,5.22,4.07,9.27,2.79,9.32,0,0,5.58,2.9,1.54,9.37-2,3.22-4.32,3.45-6.13,2.85a8.1,8.1,0,0,1-3.08-2,4.84,4.84,0,0,1-.71.53,6.09,6.09,0,0,1-2,.84c-1.66.39-4,.19-6.76-2.07a15.08,15.08,0,0,1-2.91-3.07,6.84,6.84,0,0,1-1.12-2.36,3.8,3.8,0,0,1,.52-2.95,5.33,5.33,0,0,1-1.81-1.9c-.58-1.23-.55-2.92,1.81-4.82s3.85-1.54,4.84-.76a5,5,0,0,1,1.38,2.08,4.8,4.8,0,0,1,2.29-1.13c1.4-.26,3.16.22,5.17,2.72,4,5.1-.81,9.46-3.2,8.15-3.5-1.92-3.68-3.33-2.61-4.34.8-.77,2.15.82,2.15.82s1.29.06,1-1.53c-.11-.8-1.29-1.49-2.49-1.71a2.5,2.5,0,0,0-3,1.62c-1,3,2,6.62,6.34,7.32,2.13.37,4-1.28,4.87-3.43a7.6,7.6,0,0,0-.59-7.06,12.94,12.94,0,0,0-2.76-2.91,10.59,10.59,0,0,0-2.7-1.56c-1.72-.63-3.22-.5-3.88.05,0,0-.34-.24-.88-.56a22.38,22.38,0,0,0-2-1.06C80.75,322.24,77.86,323.16,77.86,323.16Z"/><path class="cls-2" d="M56.13,269.43a155.43,155.43,0,0,0,57.19,57.19L95.69,357.09a190.72,190.72,0,0,1-70-70Z"/><path class="cls-1" d="M27.13,248.77a7.54,7.54,0,0,0-2.9-4.77,12.81,12.81,0,0,0-4.4-2c-3.1-.86-6.16-1.35-6.72-4.44a5.8,5.8,0,0,1,2-4.95c-4.48.21-5.24,3.49-4.25,6a8.16,8.16,0,0,0,4,3.81A7.11,7.11,0,0,1,14,244.1c-.52.74-1.28,1.38-2.26.92a2.27,2.27,0,0,1-1.31-3.21A3,3,0,0,0,9.35,243c-.41.83-.49,2.13.74,3.89a2.58,2.58,0,0,0,2.6,1.13,4.11,4.11,0,0,0,1.41-.49s.91,3.59,4.22,2.92a2.48,2.48,0,0,0,1.14-4.56s.1,2.63-2.05,2a1.85,1.85,0,0,1-1.25-2.32,2.49,2.49,0,0,1,2.25-2,5.89,5.89,0,0,1,3.77,1,8.32,8.32,0,0,1,3.1,4.73A12.4,12.4,0,0,0,22,250.88a5.19,5.19,0,0,0-1.87,1.94,3.08,3.08,0,0,0,0,2.85,5.44,5.44,0,0,0-1.86,2.59,9.38,9.38,0,0,0-.52,3.73,15.11,15.11,0,0,0,.38,2.6,21.39,21.39,0,0,0,1.13,3.07c1.67,3.7,3.75,5.36,5.49,6a5.88,5.88,0,0,0,2.95.44,10.77,10.77,0,0,0,2.89,3.51c2,1.47,5,2.26,8.77,0,4.38-2.58,4.8-5.43,4.8-5.43a4.09,4.09,0,0,0,4.93.35c1.89-1.07,2.73-2.29,2.79-3.53a3.43,3.43,0,0,0-.48-1.84A6.92,6.92,0,0,0,50,265.35a2.62,2.62,0,0,0-3.48-.08,6.55,6.55,0,0,1,1.68,1.07,2.56,2.56,0,0,1,.79,3.05A2.49,2.49,0,0,1,46.85,271a2.22,2.22,0,0,1-1.36-.45A3.51,3.51,0,0,1,44.42,269c-.73-1.88,2.78-4.51,1.86-8.61a25,25,0,0,0-2.83-7.31c-1.31-2.41-3.1-4.33-5.23-4.47A8.69,8.69,0,0,0,37.7,246a9.68,9.68,0,0,0-4.27-4.9c-2.48-1.58-6.61-3.47-10.1-5.69s-6-4.79-5.43-7.17a4.44,4.44,0,0,1-1-.06,6.49,6.49,0,0,1-2.46-.89c-1.86-1.12-4.11-3.59-5.24-8.83-.95-5.28-.23-8.44,1-10.24A5.37,5.37,0,0,1,12.54,206a10.77,10.77,0,0,1-.06-4,5.2,5.2,0,0,1,1.43-2.86,5.58,5.58,0,0,1,3.64-1.56c3.34-.28,5.21.93,6.22,2.42a7.42,7.42,0,0,1,1.33,4.27,5.4,5.4,0,0,1,3,1.1A7.2,7.2,0,0,1,30.27,208a13.82,13.82,0,0,1,1.57,5.14,13.12,13.12,0,0,1,0,3.26,11.38,11.38,0,0,1-.71,2.91,11,11,0,0,1-3.1,4.41c-2.53,2.12-5.65,2.3-7.25-1.23a2.84,2.84,0,0,1-1.73-.33c-.94-.49-2.11-1.64-2.76-4.26a8.14,8.14,0,0,1,.58-5.72,5.24,5.24,0,0,1,1.44-1.74,7,7,0,0,1-.48-.58,4.75,4.75,0,0,1-.76-1.42,2.3,2.3,0,0,1,1.48-3.14c3.56-1.44,4.21,3.38,3.09,4.31,0,0,5.18-.89,4.33,5.22a8,8,0,0,1-.31,2.24A2.72,2.72,0,0,1,23,219.35a2.17,2.17,0,0,1-2.36-2.13c-.07-1.06.38-2.07.87-1.87,0,0,2.23.55.87-1.91s-4.85-.15-3.86,4c1.15,4.12,3.36,4.43,5.95,3.91a4.51,4.51,0,0,0,3-2.74,8.78,8.78,0,0,0,.66-2.27,8.27,8.27,0,0,0,.1-2.43c-.34-3.18-1.53-6.44-4.26-6.48,0,0-.54-5.7-5.11-4.85s-4.7,5.12-3.42,7.78a4.58,4.58,0,0,0-1.17,1.8,10,10,0,0,0-.1,6.09c1.67,5.64,5.11,6.31,5.66,6.2A3.41,3.41,0,0,0,21,226.39c1.1.85,3.1,1.45,6.66.59a8.46,8.46,0,0,0,.36,2.59,4.86,4.86,0,0,0,3.2,3.51c3.87,1.13,3.76.63,5.18,5.33a4.45,4.45,0,0,0,1.14,2,6.23,6.23,0,0,0,1.53,1.18,6.83,6.83,0,0,0,1.88.75,9.38,9.38,0,0,1-1.51-1.49,3.36,3.36,0,0,1-.88-3.22c.87-2.24-.62-4.94-1.79-5a5.19,5.19,0,0,0,.81-1.27,3.32,3.32,0,0,0,.14-2.83c-1-2.07-4.18-3.49-5.69-.24,0,0,3.23-1.19,3.32,1.26s-4.09,2.82-4.93,0a4.26,4.26,0,0,1-.34-1.94A9.73,9.73,0,0,1,32.2,222c1.67-2.36,2.2-6.76,1.69-10.86a15.82,15.82,0,0,0-.73-3A14.4,14.4,0,0,0,32,205.49,7.89,7.89,0,0,0,27.54,202a6.88,6.88,0,0,0-.28-2.07,4.76,4.76,0,0,0-2.45-3.23,7.38,7.38,0,0,1,1.6-1.8,2.72,2.72,0,0,1,3.67,0c2.83,2.34-.58,4.7-1,4.52a2.58,2.58,0,0,0,2.25,0,2.31,2.31,0,0,0-.05.51,4.39,4.39,0,0,0,.16,1.19A3.52,3.52,0,0,0,34,203.57a9.47,9.47,0,0,1-.9-1.77,4.67,4.67,0,0,1-.14-3.55c1-2.16-1.18-5.57-4.6-6a5.5,5.5,0,0,0-4.24,1.54,9.78,9.78,0,0,0-1.68,1.9,15.88,15.88,0,0,0-3.52-.76c-2-.19-4.32,0-5.93,1.67a10.72,10.72,0,0,0-2.83,4.54,8.56,8.56,0,0,0,0,3.73,7.44,7.44,0,0,0-2.51,2.78c-1.21,2-2,5.38-1,10.43.13.63.27,1.23.44,1.8s.39,1.11.6,1.63A21.66,21.66,0,0,0,9,224.25a17.49,17.49,0,0,0,3,3.8,12,12,0,0,0,3.74,2.38,7.3,7.3,0,0,0,.89,2.24,10.66,10.66,0,0,0,4.53,4.19c1.72.89,3.94,2.07,6.05,3.22,1.07.58,2.07,1.16,3,1.7s1.81,1,2.48,1.49a6.26,6.26,0,0,1,2.51,4.17c.12.72.17,1.37.21,1.83s0,.76,0,.76a6.54,6.54,0,0,1,3.07.75,7.67,7.67,0,0,1,2.53,2.08,11.63,11.63,0,0,1,1.14,1.8,13.75,13.75,0,0,1,1,2.42,14.22,14.22,0,0,1,.79,4.69,7.34,7.34,0,0,1-.58,3c-.71,1.52-1.9,2.05-2.45,1.74a6.33,6.33,0,0,1,.85,3.11c0,1.77-.82,4-4.17,5.78s-5.5.85-6.76-.57a8.22,8.22,0,0,1-1.67-3.26,6.3,6.3,0,0,1-3-.14c-1.68-.48-3.6-1.86-4.82-5.17s-1.19-5.42-.8-6.73a3.83,3.83,0,0,1,1.93-2.29,5.37,5.37,0,0,1-.61-2.56c.05-1.33,1-2.79,3.94-3.26s4.18.57,4.61,1.75a5,5,0,0,1,.14,2.5,4.74,4.74,0,0,1,2.55.16,3.82,3.82,0,0,1,1.86,1.47,7.11,7.11,0,0,1,1.26,3.46c.87,6.42-5.44,7.82-6.84,5.47-2.06-3.42-1.5-4.72-.08-5.07,1.09-.27,1.45,1.79,1.45,1.79s1.07.7,1.66-.8c.3-.75-.33-2-1.32-2.73a2.52,2.52,0,0,0-3.45-.11c-2.4,2.09-1.49,6.74,1.83,9.51,1.73,1.35,4.12.87,6-.56a8,8,0,0,0,2.25-2.77,7,7,0,0,0,.74-3.64A12,12,0,0,0,36,255.29c-1.16-1.41-2.52-2-3.36-1.9a16.1,16.1,0,0,0-1.75-2.86,5.3,5.3,0,0,0-2.21-1.3A14.18,14.18,0,0,0,27.13,248.77Z"/><path class="cls-2" d="M35.2,191.38a163.57,163.57,0,0,0,1.38,20.4c.34,3.39,1.05,6.73,1.62,10.09.28,1.68.74,3.32,1.1,5s.71,3.34,1.22,5l1.39,4.91c.22.83.48,1.63.77,2.44l.82,2.42c1,3.25,2.33,6.39,3.57,9.56a154.66,154.66,0,0,0,9.06,18.29L25.66,287.06a189.42,189.42,0,0,1-11.11-22.44c-1.53-3.88-3.12-7.75-4.39-11.73l-1-3c-.34-1-.67-2-.94-3l-1.71-6c-.61-2-1-4.05-1.5-6.08s-1-4.06-1.34-6.12c-.73-4.12-1.56-8.21-2-12.37a200.28,200.28,0,0,1-1.67-25Z"/><path class="cls-1" d="M20.46,159a10,10,0,0,0,.42-3.08,6.82,6.82,0,0,0-.52-2.49,12.51,12.51,0,0,0-2.88-3.9,26.2,26.2,0,0,1-3.09-3.37,3.9,3.9,0,0,1-.47-3.83,5.7,5.7,0,0,1,4.14-3.3c-4-2.06-6.21.42-6.66,3.13s1.49,5.27,1.49,5.27a6.87,6.87,0,0,1-1.45,1c-.81.38-1.78.56-2.41-.34-1.56-2.22.4-3.44.4-3.44a2.85,2.85,0,0,0-1.56.51c-.75.52-1.45,1.61-1.23,3.77.28,2.65,3.15,2.54,3.15,2.54a5.11,5.11,0,0,0-.16,1.91,3.17,3.17,0,0,0,2.31,2.72,2.44,2.44,0,0,0,3.13-.92,2.3,2.3,0,0,0,.18-2.45s-1.31,2.31-2.84.72.88-4.3,3.05-3.2A5.87,5.87,0,0,1,18.24,153a9.13,9.13,0,0,1,.29,5.64s-7-1.94-7.55,2.87a5.56,5.56,0,0,0-3,1.31c-1.55,1.26-3.21,3.78-3.83,8.64-.38,4,.7,6.51,1.79,8a5.68,5.68,0,0,0,2.29,1.85,5.94,5.94,0,0,0,0,1.4,10.63,10.63,0,0,0,.8,3.08c1,2.25,3.08,4.43,7.53,4.4,5.08,0,6.93-2.3,6.93-2.3a4,4,0,0,0,4,2.77c4.33,0,5.44-2.51,4.42-5.79A2.68,2.68,0,0,0,29,183a6.57,6.57,0,0,1,1,1.77,2.47,2.47,0,0,1-.79,3c-1.69,1.24-4.17.37-3.81-2.67.13-1,1.26-1.63,2.56-2.51a7.62,7.62,0,0,0,3.38-4,20.81,20.81,0,0,0,.79-3.6,22.13,22.13,0,0,0,.42-4.15A12.25,12.25,0,0,0,32,167a4.62,4.62,0,0,0-1.79-2.64,7,7,0,0,0,.85-2.51A8.64,8.64,0,0,0,31,159a12,12,0,0,0-1.19-3.56c-.68-1.31-1.7-2.89-2.79-4.6-.55-.86-1.14-1.76-1.66-2.66s-1-1.81-1.47-2.71c-1.81-3.61-2.95-7.19-1.14-8.93A6.19,6.19,0,0,1,20.19,134c-1.06-1.91-1.9-5.21-.14-10.27A17.64,17.64,0,0,1,23,118a10.28,10.28,0,0,1,3-2.66,5.26,5.26,0,0,1,3.19-.78,8.07,8.07,0,0,1,.44-1.15,10.5,10.5,0,0,1,1.53-2.3,5.18,5.18,0,0,1,6.57-1.3c6.06,2.88,4.18,7.9,3.17,9.55a5.61,5.61,0,0,1,2.06,2.45,7.44,7.44,0,0,1,.64,3.41,16.27,16.27,0,0,1-1.27,5.21,11.57,11.57,0,0,1-3.75,5,10.76,10.76,0,0,1-4.81,2.29c-3.23.59-6-.81-5.72-4.69a2.87,2.87,0,0,1-1.35-1.16c-.62-.91-1-2.45-.19-5a7.64,7.64,0,0,1,3.3-4.7,5.35,5.35,0,0,1,2.15-.76,6.71,6.71,0,0,1-.06-2.35,2.24,2.24,0,0,1,2.79-2c3.76.51,2.08,5.08.58,5.31a4.68,4.68,0,0,1,2,1.51c.74,1.06,1,2.67-.85,5.16,0,0-2,4-4.82,2.45s.07-5.05.72-4.2c0,0,1.68,1.59,1.67-1.24s-4.15-2.56-5.28,1.59c-.56,2-.42,3.43.18,4.38a5.43,5.43,0,0,0,3,1.95c2.47.8,5.75-1.63,7-4.57a17.66,17.66,0,0,0,.76-2.26,8.73,8.73,0,0,0,.39-2.17,3.41,3.41,0,0,0-1.58-3.3,8.15,8.15,0,0,0,.58-2.83,3.69,3.69,0,0,0-2.62-3.94c-2.19-.76-3.91-.28-5,.83a6.87,6.87,0,0,0-1.82,4.22,4.77,4.77,0,0,0-2,1c-1.12.81-2.31,2.42-3.06,5.25a12.13,12.13,0,0,0-.45,3.64,7,7,0,0,0,.58,2.51,3.87,3.87,0,0,0,1.65,2s-1.5,4.06,5.55,6.1a6.8,6.8,0,0,0-1,2.42,5,5,0,0,0,1.09,4.66c2.74,2.9,2.81,2.38,1.82,7.2a5.71,5.71,0,0,0,.68,4,6.72,6.72,0,0,0,.85,1.17c.25.27.41.42.41.42a7.12,7.12,0,0,1-.54-2.05A3.57,3.57,0,0,1,36,155a4.43,4.43,0,0,0,1.48-3,2.51,2.51,0,0,0-.53-2.3s2.69-.79,2.86-3.08-1.92-5.12-4.84-3.06c0,0,3.38.58,2.28,2.76s-4.92.41-4.28-2.48a4,4,0,0,1,.65-1.86,10.81,10.81,0,0,1,4.6-3.71c2.49-1.25,5.4-4.71,6.83-8.58,1.64-3.78,1.79-8.11-.89-11.09a6.56,6.56,0,0,0,.84-1.9,4.89,4.89,0,0,0-.58-4.06,6.51,6.51,0,0,1,2.29-.75,2.7,2.7,0,0,1,3.18,1.81c1.27,3.43-2.76,3.82-3,3.45a2.6,2.6,0,0,0,1.94,1.16,4.16,4.16,0,0,0-.79,1.5,3.37,3.37,0,0,0,.9,3.37,4.06,4.06,0,0,1,0-.58,10.85,10.85,0,0,1,.16-1.38,5.07,5.07,0,0,1,1.68-3.14c1.8-1.44,1.76-5.4-1-7.5a5.62,5.62,0,0,0-4.48-.81,10.07,10.07,0,0,0-2.44.78,15.35,15.35,0,0,0-2.65-2.41c-1.59-1.14-3.76-2.17-6-1.53-4.38,1.32-5.8,3.59-6.63,5.73a7.21,7.21,0,0,0-3.52,1.17,12.21,12.21,0,0,0-3.17,2.89,16.9,16.9,0,0,0-1.58,2.42A23.1,23.1,0,0,0,18,122.1,20.39,20.39,0,0,0,17,128.67a17.85,17.85,0,0,0,.8,4.83,11.75,11.75,0,0,0,2,3.9,3.11,3.11,0,0,0-.18.63,8.07,8.07,0,0,0-.14,1.76,11.36,11.36,0,0,0,1.85,5.9l3.64,5.81a60.92,60.92,0,0,1,3.14,5.5,6.58,6.58,0,0,1,.15,4.88,9.81,9.81,0,0,1-1.13,2.35,6.27,6.27,0,0,1,2.23,2.17c1.05,1.57,1.88,4,1,7.81-1.5,7.61-6,8.17-6.65,7.09a7.41,7.41,0,0,1-.81,3.11c-.85,1.54-2.65,3.06-6.46,2.93s-5.19-2-5.62-3.88a6.19,6.19,0,0,1-.06-2.52,7.1,7.1,0,0,1,.27-1.13,6.15,6.15,0,0,1-2.51-1.62c-1.16-1.25-2.29-3.42-1.65-6.89,1.4-6.94,3.89-7.24,5.46-7.25a3.49,3.49,0,0,1,.11-.84,4.75,4.75,0,0,1,.7-1.67c.76-1.12,2.23-1.94,5.06-.86s3.29,2.57,3,3.8a5,5,0,0,1-.64,1.58,5.15,5.15,0,0,1-.47.66,4.88,4.88,0,0,1,2.15,1.42c.91,1.08,1.5,2.85.19,5.83-2.31,6-8.52,4.05-8.62,1.32a6.19,6.19,0,0,1,.68-3.86,1.52,1.52,0,0,1,1.81-.57c1.07.31.3,2.27.3,2.27s.57,1.14,1.84.13.4-5.44-2.64-4.83a4.86,4.86,0,0,0-3.36,3.28,6.67,6.67,0,0,0-.43,2.81,9.17,9.17,0,0,0,.64,3.07c1.6,4,9.09,3.1,11.18-1.57a15,15,0,0,0,.73-2,11.51,11.51,0,0,0,.44-1.83,9.25,9.25,0,0,0,0-3.12c-.34-1.81-1.22-3-2-3.34,0,0,0-.41.07-1a15.39,15.39,0,0,0-.07-2.29C22.73,161,20.46,159,20.46,159Z"/><path class="cls-2" d="M56.13,113.32a154.66,154.66,0,0,0-9.06,18.29c-1.24,3.17-2.56,6.31-3.57,9.57l-.82,2.41c-.29.81-.55,1.61-.77,2.44l-1.39,4.91c-.51,1.63-.81,3.31-1.22,5s-.82,3.3-1.1,5c-.57,3.35-1.28,6.69-1.62,10.08a163.6,163.6,0,0,0-1.38,20.41H0a200.32,200.32,0,0,1,1.67-25c.44-4.15,1.27-8.25,2-12.37C4,152,4.57,150,5,147.93s.89-4.08,1.5-6.08l1.71-6c.27-1,.6-2,.94-3l1-3c1.27-4,2.86-7.85,4.39-11.73A189.42,189.42,0,0,1,25.66,95.69Z"/><path class="cls-1" d="M59.59,77.86A7.91,7.91,0,0,0,62.27,73a12.56,12.56,0,0,0-.51-4.79,25.39,25.39,0,0,1-1-4.44,3.88,3.88,0,0,1,1.47-3.59,5.78,5.78,0,0,1,5.26-.76c-2.44-3.79-5.6-2.75-7.35-.64a6.4,6.4,0,0,0-1.31,3.47,9,9,0,0,0,0,1.85,6.87,6.87,0,0,1-1.76.12c-.9-.08-1.83-.41-1.92-1.5a2.25,2.25,0,0,1,2.09-2.75,2.94,2.94,0,0,0-1.61-.35c-.92.07-2.08.65-3,2.62C51.56,64.62,54.1,66,54.1,66a4.87,4.87,0,0,0-.39.43,5.41,5.41,0,0,0-.66,1.17,3.23,3.23,0,0,0,.64,3.52A2.48,2.48,0,0,0,58.2,69.8a3.93,3.93,0,0,1-1.2.42A1.36,1.36,0,0,1,55.4,69c-.56-2.2,2.92-3.27,4.24-1.24s1.88,5-1.54,8.8c0,0-5.08-5.19-8-1.33a5.31,5.31,0,0,0-3.17-.31,8.85,8.85,0,0,0-3.46,1.42,15,15,0,0,0-4.18,4.12C37,83.8,36.52,86.4,36.81,88.23A5.93,5.93,0,0,0,37.9,91a10.79,10.79,0,0,0-1.58,4.26c-.35,2.39.5,5.41,4.34,7.6,4.42,2.51,7.1,1.45,7.1,1.45a4.1,4.1,0,0,0,2.17,4.45c3.74,2.21,5.84.49,6.71-2.79A2.63,2.63,0,0,0,55,102.93a6.59,6.59,0,0,1-.09,2,2.5,2.5,0,0,1-2.26,2.19c-2.06.24-3.82-1.78-1.91-4.19.62-.79,1.95-.75,3.5-.87a7.91,7.91,0,0,0,4.89-1.81,22.24,22.24,0,0,0,2.55-2.68A41.52,41.52,0,0,0,64,94.16c1.41-2.36,2.17-4.88,1.22-6.8a6.92,6.92,0,0,0,2-1.73,10.05,10.05,0,0,0,2.11-6.15c.16-2.9-.36-7.51-.13-11.59s1.09-7.64,3.48-8.3a6.13,6.13,0,0,1-.91-3.47,9.3,9.3,0,0,1,1-4,15.43,15.43,0,0,1,1.51-2.43,20.33,20.33,0,0,1,2.49-2.56,19.24,19.24,0,0,1,5.37-3.53,10.29,10.29,0,0,1,4-.79,5.32,5.32,0,0,1,3.15.93,11,11,0,0,1,1-.78,8.47,8.47,0,0,1,2.45-1.25,5.22,5.22,0,0,1,6.36,2.17c1.93,2.74,1.82,5,1.06,6.64a8,8,0,0,1-3.07,3.22,5.59,5.59,0,0,1,.56,3.15,7.45,7.45,0,0,1-1.16,3.26A10.51,10.51,0,0,1,95,62a18.92,18.92,0,0,1-2.22,2,12.46,12.46,0,0,1-5.72,2.44,10.82,10.82,0,0,1-5.34-.44c-3.09-1.11-4.82-3.72-2.59-6.91a2.87,2.87,0,0,1-.59-1.67c-.06-1.08.34-2.66,2.33-4.48a8.08,8.08,0,0,1,5.2-2.43,5.32,5.32,0,0,1,2.25.41,6.61,6.61,0,0,1,1.12-2,2.26,2.26,0,0,1,3.44-.34c3,2.32-.75,5.42-2.16,4.87a4.64,4.64,0,0,1,1,2.29c.1,1.27-.46,2.85-3.3,4.06,0,0-3.75,2.43-5.42-.29s2.6-4.32,2.75-3.26c0,0,.65,2.2,2.07-.23s-2.31-4.28-5.38-1.28c-1.53,1.48-2.09,2.74-2,3.91A5.28,5.28,0,0,0,82,61.84,4.47,4.47,0,0,0,85.81,63a8.54,8.54,0,0,0,4.47-1.67c2.51-2,4.87-4.48,3.49-6.92,0,0,4.59-3.43,1.6-6.9s-6.73-1.41-8.42,1a4.84,4.84,0,0,0-2.18-.15,9.69,9.69,0,0,0-5.27,3,9.07,9.07,0,0,0-2.94,5.41,3.89,3.89,0,0,0,.4,2.58s-3.34,2.74,1.75,8a8.72,8.72,0,0,0-2,1.63,5,5,0,0,0-1.42,4.55c.88,3.85,1.33,3.55-2,7.16a5.4,5.4,0,0,0-1.14,1.93,6.1,6.1,0,0,0-.26,1.92,7.19,7.19,0,0,0,.29,2,9.43,9.43,0,0,1,.54-2.06A3.37,3.37,0,0,1,75,82.21c2.37-.39,3.94-3.06,3.45-4.11,0,0,2.73.67,4.05-1.22s.89-5.4-2.65-5c0,0,2.64,2.19.58,3.51S76,73.23,78,71.06a4.22,4.22,0,0,1,1.5-1.28,10,10,0,0,1,5.83-.92,11.61,11.61,0,0,0,4.94-1,18.81,18.81,0,0,0,5.28-3,14.77,14.77,0,0,0,3.93-4.49,8.19,8.19,0,0,0,.81-5.6A6.74,6.74,0,0,0,102,53.53a4.88,4.88,0,0,0,1.53-3.8,7,7,0,0,1,2.34.46,2.71,2.71,0,0,1,1.85,3.16c-.57,3.67-4.3,1.94-4.35,1.49a2.61,2.61,0,0,0,1.11,2,4.25,4.25,0,0,0-1.44.9,3.35,3.35,0,0,0-.85,1.31,3.94,3.94,0,0,0,0,2.09,5.35,5.35,0,0,1,.27-.52,6.7,6.7,0,0,1,.81-1.15,5.14,5.14,0,0,1,3-1.86A3.86,3.86,0,0,0,109,55.13a5.58,5.58,0,0,0,.11-4.54,5.64,5.64,0,0,0-3.48-2.94,9.41,9.41,0,0,0-1.75-.45c-.45-.06-.74-.07-.74-.07a16.34,16.34,0,0,0-1.11-3.43c-.82-1.79-2.19-3.76-4.41-4.28-4.45-1-6.85.16-8.6,1.65a7.4,7.4,0,0,0-3.64-.74c-2.31.06-5.74.88-9.5,4.41a25.54,25.54,0,0,0-2.47,2.59,17.14,17.14,0,0,0-1.7,2.59A17.57,17.57,0,0,0,70,54.48a13.37,13.37,0,0,0-.34,3.17,8.29,8.29,0,0,0,.12,1.21,7.19,7.19,0,0,0-1.47,1.91,11.25,11.25,0,0,0-1.39,6c.09,1.93.21,4.46.27,6.88s0,4.69,0,6.33a6.32,6.32,0,0,1-2.34,4.29,10.76,10.76,0,0,1-1.49,1.08l-.67.38a6.65,6.65,0,0,1,.89,3A7.71,7.71,0,0,1,63,92a13.75,13.75,0,0,1-2.58,4c-5.22,5.75-9.27,4.07-9.32,2.79,0,0-2.89,5.58-9.36,1.54-3.23-2-3.46-4.32-2.86-6.13a8.1,8.1,0,0,1,2-3.08,4.84,4.84,0,0,1-.53-.71,6.09,6.09,0,0,1-.84-2c-.39-1.66-.19-4,2.07-6.76a15.08,15.08,0,0,1,3.07-2.91A6.84,6.84,0,0,1,47,77.64a3.8,3.8,0,0,1,2.95.52,5.33,5.33,0,0,1,1.9-1.81c1.23-.58,2.92-.55,4.82,1.81S58.2,82,57.43,83a5,5,0,0,1-2.09,1.38,4.8,4.8,0,0,1,1.13,2.29c.26,1.4-.22,3.16-2.72,5.17-5.1,4-9.46-.81-8.15-3.2,1.93-3.5,3.33-3.68,4.34-2.61.77.8-.82,2.15-.82,2.15s-.06,1.29,1.53,1c.8-.11,1.49-1.29,1.72-2.49a2.51,2.51,0,0,0-1.63-3c-3-1-6.62,2-7.32,6.34-.37,2.13,1.28,4,3.43,4.87a7.6,7.6,0,0,0,7.06-.59,12.94,12.94,0,0,0,2.91-2.76,10.59,10.59,0,0,0,1.56-2.7c.63-1.72.5-3.22-.05-3.88a10.23,10.23,0,0,0,.56-.88A22.38,22.38,0,0,0,60,82C60.51,80.75,59.59,77.86,59.59,77.86Z"/><path class="cls-2" d="M113.32,56.13a155.43,155.43,0,0,0-57.19,57.19L25.66,95.69a190.72,190.72,0,0,1,70-70Z"/><path class="cls-1" d="M134,27.13a7.54,7.54,0,0,0,4.77-2.9,12.81,12.81,0,0,0,2-4.4c.86-3.1,1.35-6.16,4.44-6.72a5.8,5.8,0,0,1,4.95,2c-.21-4.48-3.48-5.24-6-4.25a8.21,8.21,0,0,0-3.81,4,7.11,7.11,0,0,1-1.59-.79c-.74-.52-1.38-1.28-.92-2.26a2.27,2.27,0,0,1,3.21-1.31,3,3,0,0,0-1.23-1.11c-.83-.41-2.13-.49-3.89.74a2.55,2.55,0,0,0-1.12,2.6,4,4,0,0,0,.48,1.41s-3.59.91-2.92,4.22a2.48,2.48,0,0,0,4.56,1.14s-2.63.1-2-2.05a1.85,1.85,0,0,1,2.32-1.25,2.48,2.48,0,0,1,2,2.25,5.94,5.94,0,0,1-1,3.77,8.35,8.35,0,0,1-4.74,3.1A12.4,12.4,0,0,0,131.87,22a5.19,5.19,0,0,0-1.94-1.87,3.08,3.08,0,0,0-2.85,0,5.38,5.38,0,0,0-2.59-1.86,9.35,9.35,0,0,0-3.72-.52,15.08,15.08,0,0,0-2.61.38,21.84,21.84,0,0,0-3.07,1.13c-3.7,1.67-5.36,3.75-6,5.49a5.88,5.88,0,0,0-.44,2.95,10.77,10.77,0,0,0-3.51,2.89c-1.46,2-2.26,5,0,8.77,2.58,4.38,5.43,4.8,5.43,4.8a4.1,4.1,0,0,0-.34,4.93c1.06,1.89,2.28,2.73,3.52,2.79a3.43,3.43,0,0,0,1.84-.48A6.92,6.92,0,0,0,117.4,50a2.62,2.62,0,0,0,.08-3.48,6.24,6.24,0,0,1-1.07,1.68,2.54,2.54,0,0,1-3,.79,2.49,2.49,0,0,1-1.58-2.17,2.35,2.35,0,0,1,.45-1.36,3.57,3.57,0,0,1,1.54-1.07c1.88-.73,4.51,2.78,8.61,1.86a25,25,0,0,0,7.31-2.83c2.41-1.31,4.34-3.1,4.47-5.23a8.69,8.69,0,0,0,2.59-.52,9.68,9.68,0,0,0,4.9-4.27c1.58-2.48,3.47-6.61,5.69-10.1s4.79-6,7.17-5.43a4.44,4.44,0,0,1,.06-1,6.67,6.67,0,0,1,.89-2.46c1.13-1.86,3.59-4.11,8.83-5.24,5.28-.95,8.44-.23,10.24,1a5.37,5.37,0,0,1,2.26,2.41,10.77,10.77,0,0,1,4-.06,5.23,5.23,0,0,1,2.87,1.43,5.63,5.63,0,0,1,1.55,3.64c.29,3.34-.93,5.21-2.42,6.22a7.42,7.42,0,0,1-4.27,1.33,5.4,5.4,0,0,1-1.1,3,7.2,7.2,0,0,1-2.64,2.19,13.82,13.82,0,0,1-5.14,1.57,13.12,13.12,0,0,1-3.26,0,11.38,11.38,0,0,1-2.91-.71A11,11,0,0,1,159,28c-2.12-2.53-2.3-5.65,1.23-7.25A2.84,2.84,0,0,1,160.6,19c.49-.94,1.64-2.11,4.26-2.76a8.14,8.14,0,0,1,5.72.58,5.24,5.24,0,0,1,1.74,1.44,7,7,0,0,1,.58-.48,4.75,4.75,0,0,1,1.42-.76,2.3,2.3,0,0,1,3.14,1.48c1.44,3.56-3.38,4.21-4.31,3.09,0,0,.89,5.18-5.22,4.33a8,8,0,0,1-2.24-.31A2.72,2.72,0,0,1,163.4,23a2.17,2.17,0,0,1,2.13-2.36c1.06-.07,2.07.38,1.87.87,0,0-.54,2.23,1.91.87s.15-4.85-4-3.86c-4.12,1.15-4.43,3.36-3.91,5.95a4.51,4.51,0,0,0,2.74,3,8.78,8.78,0,0,0,2.27.66,8.27,8.27,0,0,0,2.43.1c3.18-.34,6.44-1.53,6.48-4.26,0,0,5.7-.54,4.85-5.11s-5.12-4.7-7.78-3.42a4.58,4.58,0,0,0-1.8-1.17,10,10,0,0,0-6.09-.1c-5.64,1.67-6.31,5.11-6.2,5.67A3.36,3.36,0,0,0,156.36,21c-.85,1.1-1.45,3.1-.59,6.66a8.46,8.46,0,0,0-2.59.36,4.86,4.86,0,0,0-3.51,3.2c-1.13,3.87-.62,3.76-5.33,5.18a4.45,4.45,0,0,0-2,1.14,6.23,6.23,0,0,0-1.18,1.53,6.83,6.83,0,0,0-.75,1.88A9.38,9.38,0,0,1,142,39.47a3.36,3.36,0,0,1,3.22-.88c2.24.87,5-.62,5-1.79a5.19,5.19,0,0,0,1.27.81,3.32,3.32,0,0,0,2.83.14c2.08-1,3.49-4.18.24-5.69,0,0,1.19,3.23-1.26,3.32s-2.82-4.09,0-4.93a4.26,4.26,0,0,1,1.94-.34,9.73,9.73,0,0,1,5.5,2.09c2.36,1.67,6.76,2.2,10.86,1.69a15.63,15.63,0,0,0,3-.73A14.4,14.4,0,0,0,177.26,32a7.89,7.89,0,0,0,3.51-4.41,6.88,6.88,0,0,0,2.07-.28,4.76,4.76,0,0,0,3.23-2.45,7.38,7.38,0,0,1,1.8,1.6,2.72,2.72,0,0,1,0,3.67c-2.34,2.83-4.7-.58-4.52-1a2.58,2.58,0,0,0,0,2.25,2.31,2.31,0,0,0-.51-.05,4.39,4.39,0,0,0-1.19.16A3.52,3.52,0,0,0,179.18,34a9.47,9.47,0,0,1,1.77-.9,4.7,4.7,0,0,1,3.56-.14c2.15,1,5.56-1.18,6-4.6A5.5,5.5,0,0,0,189,24.09a9.78,9.78,0,0,0-1.9-1.68,15.88,15.88,0,0,0,.76-3.52c.19-2,0-4.32-1.67-5.93a10.82,10.82,0,0,0-4.54-2.83,8.56,8.56,0,0,0-3.73,0,7.44,7.44,0,0,0-2.78-2.51c-2-1.21-5.38-2-10.43-1-.63.13-1.23.27-1.8.44s-1.11.39-1.63.6A21.66,21.66,0,0,0,158.5,9a17.49,17.49,0,0,0-3.8,3,12,12,0,0,0-2.38,3.74,7.4,7.4,0,0,0-2.24.89,10.66,10.66,0,0,0-4.19,4.53c-.89,1.72-2.06,3.94-3.22,6.05-.58,1.07-1.16,2.07-1.7,3s-1,1.81-1.49,2.48a6.26,6.26,0,0,1-4.17,2.51c-.72.12-1.36.17-1.83.21s-.75,0-.75,0a6.64,6.64,0,0,1-.76,3.07,7.67,7.67,0,0,1-2.08,2.53,11.17,11.17,0,0,1-1.8,1.14,14,14,0,0,1-2.41,1,14.28,14.28,0,0,1-4.7.79,7.38,7.38,0,0,1-3-.58c-1.51-.71-2-1.9-1.74-2.45a6.31,6.31,0,0,1-3.1.85c-1.78,0-4-.82-5.79-4.17s-.85-5.5.58-6.76a8.14,8.14,0,0,1,3.25-1.67,6.3,6.3,0,0,1,.14-3c.48-1.68,1.86-3.6,5.18-4.82s5.41-1.19,6.72-.8a3.83,3.83,0,0,1,2.29,1.93A5.37,5.37,0,0,1,128,22c1.33.05,2.79,1,3.26,3.94s-.57,4.18-1.75,4.61a5,5,0,0,1-2.5.14,4.74,4.74,0,0,1-.16,2.55,3.85,3.85,0,0,1-1.46,1.86A7.19,7.19,0,0,1,122,36.33c-6.42.87-7.81-5.44-5.47-6.84,3.42-2.06,4.72-1.5,5.07-.08.27,1.09-1.79,1.45-1.79,1.45s-.7,1.07.8,1.66c.75.3,2-.33,2.73-1.32a2.52,2.52,0,0,0,.11-3.45c-2.08-2.4-6.74-1.49-9.51,1.83-1.35,1.73-.87,4.12.56,6a8,8,0,0,0,2.77,2.25,7,7,0,0,0,3.64.74A12,12,0,0,0,127.46,36c1.41-1.16,2-2.52,1.9-3.36a16.1,16.1,0,0,0,2.86-1.75,5.3,5.3,0,0,0,1.3-2.21A14.18,14.18,0,0,0,134,27.13Z"/><path class="cls-2" d="M191.38,35.2A163.6,163.6,0,0,0,171,36.58c-3.39.34-6.73,1.05-10.08,1.62-1.69.28-3.33.74-5,1.1s-3.33.71-5,1.22L146,41.91c-.83.22-1.63.48-2.44.77l-2.41.82c-3.26,1-6.4,2.33-9.57,3.57a154.66,154.66,0,0,0-18.29,9.06L95.69,25.66a189.42,189.42,0,0,1,22.44-11.11c3.88-1.53,7.75-3.12,11.73-4.39l3-1c1-.34,2-.67,3-.94l6-1.71c2-.61,4.06-1,6.08-1.5s4.07-1,6.12-1.34c4.12-.73,8.22-1.56,12.37-2a200.32,200.32,0,0,1,25-1.67Z"/><path class="cls-1" d="M223.8,20.46a9.87,9.87,0,0,0,3.08.42,6.91,6.91,0,0,0,2.49-.52,12.75,12.75,0,0,0,3.9-2.88,25.51,25.51,0,0,1,3.36-3.09,3.9,3.9,0,0,1,3.83-.47,5.7,5.7,0,0,1,3.3,4.14c2.06-4-.42-6.21-3.13-6.66s-5.27,1.49-5.27,1.49a6.62,6.62,0,0,1-1-1.45c-.39-.81-.57-1.78.33-2.41,2.22-1.56,3.44.4,3.44.4a2.85,2.85,0,0,0-.51-1.56c-.52-.75-1.61-1.45-3.76-1.23-2.66.28-2.55,3.15-2.55,3.15a5.07,5.07,0,0,0-1.91-.16,3.19,3.19,0,0,0-2.72,2.31,2.44,2.44,0,0,0,.92,3.13,2.3,2.3,0,0,0,2.45.18s-2.31-1.31-.72-2.84,4.3.88,3.2,3.05a5.87,5.87,0,0,1-2.75,2.78,9.13,9.13,0,0,1-5.64.29s1.94-7-2.87-7.55A5.56,5.56,0,0,0,220,8c-1.26-1.55-3.78-3.21-8.64-3.83-4-.38-6.51.7-7.94,1.79a5.65,5.65,0,0,0-1.86,2.29,5.92,5.92,0,0,0-1.4,0,10.63,10.63,0,0,0-3.08.8c-2.24,1-4.43,3.08-4.4,7.53,0,5.08,2.3,6.93,2.3,6.93a4,4,0,0,0-2.77,4c0,4.33,2.51,5.44,5.79,4.42a2.69,2.69,0,0,0,1.82-3A6.54,6.54,0,0,1,198,30a2.48,2.48,0,0,1-3-.79c-1.24-1.69-.37-4.17,2.67-3.81,1,.13,1.63,1.26,2.51,2.56a7.66,7.66,0,0,0,4,3.38,20.73,20.73,0,0,0,3.61.79,21.94,21.94,0,0,0,4.14.42,12.25,12.25,0,0,0,3.84-.54,4.62,4.62,0,0,0,2.64-1.79,7,7,0,0,0,2.52.85,8.58,8.58,0,0,0,2.8-.05,12.14,12.14,0,0,0,3.57-1.19c1.3-.68,2.88-1.7,4.59-2.79.86-.55,1.76-1.14,2.66-1.66s1.81-1,2.71-1.47c3.62-1.81,7.19-2.95,8.93-1.14a6.19,6.19,0,0,1,2.56-2.53c1.91-1.06,5.21-1.9,10.27-.14a17.64,17.64,0,0,1,5.74,2.9,10.28,10.28,0,0,1,2.66,3,5.26,5.26,0,0,1,.78,3.19,8.07,8.07,0,0,1,1.15.44,10.05,10.05,0,0,1,2.3,1.53A5.18,5.18,0,0,1,273,37.7c-2.88,6.06-7.9,4.18-9.55,3.17A5.61,5.61,0,0,1,261,42.93a7.44,7.44,0,0,1-3.41.64,16.27,16.27,0,0,1-5.21-1.27,11.57,11.57,0,0,1-5-3.75,10.76,10.76,0,0,1-2.29-4.81c-.59-3.23.81-6,4.69-5.72a3,3,0,0,1,1.16-1.35c.91-.62,2.45-1,5-.19a7.64,7.64,0,0,1,4.7,3.3,5.35,5.35,0,0,1,.76,2.15,6.71,6.71,0,0,1,2.35-.06,2.24,2.24,0,0,1,2,2.79c-.51,3.76-5.08,2.08-5.3.58a4.75,4.75,0,0,1-1.52,2c-1.06.74-2.67,1-5.16-.85,0,0-4-2-2.45-4.82s5,.07,4.2.72c0,0-1.59,1.68,1.24,1.67s2.56-4.15-1.59-5.28c-2-.56-3.42-.42-4.38.18a5.43,5.43,0,0,0-1.95,3c-.8,2.47,1.63,5.75,4.57,7a17.66,17.66,0,0,0,2.26.76,8.8,8.8,0,0,0,2.18.39,3.4,3.4,0,0,0,3.29-1.58,8.15,8.15,0,0,0,2.83.58,3.69,3.69,0,0,0,3.94-2.62c.76-2.19.28-3.91-.83-5a6.87,6.87,0,0,0-4.22-1.82,4.61,4.61,0,0,0-1-2c-.81-1.12-2.41-2.31-5.24-3.06a12.2,12.2,0,0,0-3.64-.45,7,7,0,0,0-2.52.58,3.87,3.87,0,0,0-2,1.65s-4.06-1.5-6.1,5.55a6.8,6.8,0,0,0-2.42-1,5,5,0,0,0-4.66,1.09c-2.89,2.74-2.38,2.81-7.2,1.82a5.71,5.71,0,0,0-4,.68,6.72,6.72,0,0,0-1.17.85c-.27.25-.42.41-.42.41a7.12,7.12,0,0,1,2.05-.54,3.57,3.57,0,0,1,3.21.88,4.43,4.43,0,0,0,3,1.48,2.51,2.51,0,0,0,2.3-.53s.79,2.69,3.08,2.86,5.12-1.92,3.06-4.84c0,0-.58,3.38-2.76,2.28S236,32.32,238.89,33a4,4,0,0,1,1.86.65,10.73,10.73,0,0,1,3.71,4.6c1.26,2.49,4.71,5.4,8.58,6.83,3.78,1.64,8.11,1.79,11.09-.89A6.56,6.56,0,0,0,266,45a4.89,4.89,0,0,0,4.06-.58,6.29,6.29,0,0,1,.75,2.29A2.7,2.7,0,0,1,269,49.88c-3.43,1.27-3.82-2.76-3.45-3a2.6,2.6,0,0,0-1.15,1.94,4.26,4.26,0,0,0-1.51-.79,3.37,3.37,0,0,0-3.37.9,4.06,4.06,0,0,1,.58,0,11,11,0,0,1,1.39.16,5.07,5.07,0,0,1,3.13,1.68c1.44,1.8,5.4,1.76,7.5-1a5.62,5.62,0,0,0,.81-4.48,10.07,10.07,0,0,0-.78-2.44,15.35,15.35,0,0,0,2.41-2.65c1.14-1.59,2.17-3.76,1.53-6-1.32-4.38-3.59-5.8-5.72-6.63a7.3,7.3,0,0,0-1.18-3.52,12.21,12.21,0,0,0-2.89-3.17,16.36,16.36,0,0,0-2.42-1.58A23.1,23.1,0,0,0,260.65,18,20.39,20.39,0,0,0,254.08,17a17.85,17.85,0,0,0-4.83.8,11.89,11.89,0,0,0-3.9,2,3.11,3.11,0,0,0-.63-.18,8.07,8.07,0,0,0-1.76-.14,11.36,11.36,0,0,0-5.9,1.85l-5.81,3.64a60.92,60.92,0,0,1-5.5,3.14,6.58,6.58,0,0,1-4.88.15,9.85,9.85,0,0,1-2.34-1.13,6.36,6.36,0,0,1-2.18,2.23c-1.57,1.05-4,1.88-7.81,1-7.6-1.5-8.17-6-7.09-6.65a7.41,7.41,0,0,1-3.11-.81c-1.53-.85-3.06-2.65-2.93-6.46s2-5.19,3.88-5.62a6.19,6.19,0,0,1,2.52-.06,7.1,7.1,0,0,1,1.13.27,6.11,6.11,0,0,1,1.63-2.51c1.24-1.16,3.41-2.29,6.89-1.65,6.93,1.4,7.23,3.89,7.25,5.46a3.43,3.43,0,0,1,.83.11,4.75,4.75,0,0,1,1.67.7c1.12.76,1.95,2.23.86,5.06s-2.57,3.29-3.8,3a5,5,0,0,1-1.58-.64A5.15,5.15,0,0,1,216,20a4.88,4.88,0,0,1-1.42,2.15c-1.08.91-2.85,1.5-5.83.19-6-2.31-4.05-8.52-1.32-8.62a6.17,6.17,0,0,1,3.86.68,1.52,1.52,0,0,1,.57,1.81c-.31,1.07-2.27.3-2.27.3s-1.14.57-.13,1.84,5.44.4,4.83-2.64A4.84,4.84,0,0,0,211,12.39a6.67,6.67,0,0,0-2.81-.43,9.06,9.06,0,0,0-3.06.64c-4.06,1.6-3.11,9.09,1.56,11.18a15,15,0,0,0,2,.73,11.51,11.51,0,0,0,1.83.44,9.32,9.32,0,0,0,3.13,0c1.8-.34,3-1.22,3.33-2l1,.07a15.56,15.56,0,0,0,2.3-.07C221.76,22.73,223.8,20.46,223.8,20.46Z"/><path class="cls-2" d="M269.43,56.13a154.66,154.66,0,0,0-18.29-9.06c-3.17-1.24-6.31-2.56-9.56-3.57l-2.42-.82c-.81-.29-1.61-.55-2.44-.77l-4.91-1.39c-1.62-.51-3.31-.81-5-1.22s-3.3-.82-5-1.1c-3.36-.57-6.7-1.28-10.09-1.62a163.57,163.57,0,0,0-20.4-1.38V0a200.28,200.28,0,0,1,25,1.67c4.16.44,8.25,1.27,12.37,2,2.06.35,4.08.9,6.12,1.34s4.08.89,6.08,1.5l6,1.71c1,.27,2,.6,3,.94l3,1c4,1.27,7.85,2.86,11.73,4.39a189.42,189.42,0,0,1,22.44,11.11Z"/><path class="cls-1" d="M304.89,59.59a7.91,7.91,0,0,0,4.89,2.68,12.56,12.56,0,0,0,4.79-.51,25.59,25.59,0,0,1,4.44-1,3.88,3.88,0,0,1,3.59,1.47,5.78,5.78,0,0,1,.76,5.26c3.79-2.44,2.75-5.6.65-7.35a6.43,6.43,0,0,0-3.48-1.31,9,9,0,0,0-1.85,0,6.87,6.87,0,0,1-.12-1.76c.08-.9.42-1.83,1.5-1.92a2.25,2.25,0,0,1,2.75,2.09,2.94,2.94,0,0,0,.35-1.61c-.07-.92-.65-2.08-2.62-3-2.41-1.11-3.76,1.43-3.76,1.43a4.87,4.87,0,0,0-.43-.39,5.18,5.18,0,0,0-1.17-.66,3.23,3.23,0,0,0-3.52.64A2.48,2.48,0,0,0,313,58.2a3.76,3.76,0,0,1-.41-1.2,1.35,1.35,0,0,1,1.19-1.6c2.2-.56,3.27,2.92,1.24,4.24s-5,1.88-8.8-1.54c0,0,5.19-5.08,1.33-8a5.35,5.35,0,0,0,.32-3.17,9.17,9.17,0,0,0-1.42-3.46,15.21,15.21,0,0,0-4.13-4.18c-3.31-2.34-5.92-2.77-7.75-2.48a5.93,5.93,0,0,0-2.79,1.09,10.71,10.71,0,0,0-4.26-1.58c-2.39-.35-5.41.5-7.6,4.34-2.51,4.42-1.44,7.1-1.44,7.1A4.12,4.12,0,0,0,274,49.93c-2.21,3.74-.48,5.84,2.79,6.71A2.65,2.65,0,0,0,279.83,55a6.66,6.66,0,0,1-2-.09,2.5,2.5,0,0,1-2.19-2.26c-.24-2.06,1.79-3.82,4.19-1.91.79.62.75,1.95.87,3.5a7.91,7.91,0,0,0,1.81,4.89,22.24,22.24,0,0,0,2.68,2.55A40.05,40.05,0,0,0,288.6,64c2.35,1.41,4.87,2.17,6.79,1.22a6.92,6.92,0,0,0,1.73,2,10.05,10.05,0,0,0,6.15,2.11c2.9.16,7.51-.36,11.59-.13s7.64,1.09,8.3,3.48a6.13,6.13,0,0,1,3.47-.91,9.3,9.3,0,0,1,4,1A15,15,0,0,1,333,74.35a20.33,20.33,0,0,1,2.56,2.49,19.24,19.24,0,0,1,3.53,5.37,10.29,10.29,0,0,1,.79,4,5.32,5.32,0,0,1-.93,3.15,11,11,0,0,1,.78,1A8.47,8.47,0,0,1,341,92.73a5.22,5.22,0,0,1-2.17,6.36c-2.74,1.93-5,1.82-6.64,1.06A8.1,8.1,0,0,1,329,97.08a5.59,5.59,0,0,1-3.15.56,7.45,7.45,0,0,1-3.26-1.16A10.51,10.51,0,0,1,320.72,95a18.92,18.92,0,0,1-2.05-2.22,12.46,12.46,0,0,1-2.44-5.72,10.82,10.82,0,0,1,.44-5.34c1.11-3.09,3.72-4.82,6.91-2.59a2.87,2.87,0,0,1,1.67-.59c1.08-.06,2.66.34,4.48,2.33a8.08,8.08,0,0,1,2.43,5.2,5.14,5.14,0,0,1-.41,2.25,6.61,6.61,0,0,1,2.05,1.12,2.26,2.26,0,0,1,.34,3.44c-2.32,3-5.42-.75-4.86-2.16a4.7,4.7,0,0,1-2.3,1c-1.27.1-2.84-.46-4.06-3.3,0,0-2.43-3.75.29-5.42s4.32,2.6,3.26,2.75c0,0-2.2.65.23,2.07S331,85.47,328,82.4c-1.48-1.53-2.74-2.09-3.91-2A5.28,5.28,0,0,0,320.91,82a4.47,4.47,0,0,0-1.18,3.84,8.54,8.54,0,0,0,1.67,4.47c2,2.51,4.48,4.87,6.92,3.49,0,0,3.43,4.59,6.9,1.6s1.41-6.73-1-8.42a4.84,4.84,0,0,0,.15-2.18,9.72,9.72,0,0,0-3-5.27A9.12,9.12,0,0,0,326,76.56a3.84,3.84,0,0,0-2.57.4s-2.75-3.34-8,1.75a8.72,8.72,0,0,0-1.63-2,5,5,0,0,0-4.55-1.42c-3.85.88-3.55,1.33-7.15-2a5.35,5.35,0,0,0-1.94-1.14,6.1,6.1,0,0,0-1.92-.26,7.19,7.19,0,0,0-2,.29,9.43,9.43,0,0,1,2.06.54A3.37,3.37,0,0,1,300.54,75c.39,2.37,3.07,3.94,4.11,3.45,0,0-.67,2.73,1.22,4.05s5.4.89,5.05-2.65c0,0-2.19,2.64-3.51.58S309.52,76,311.69,78a4.22,4.22,0,0,1,1.28,1.5,10,10,0,0,1,.93,5.83,11.31,11.31,0,0,0,1,4.94,18.34,18.34,0,0,0,3,5.28,14.73,14.73,0,0,0,4.48,3.93,8.19,8.19,0,0,0,5.6.81,6.74,6.74,0,0,0,1.22,1.69,4.88,4.88,0,0,0,3.8,1.53,7,7,0,0,1-.46,2.34,2.71,2.71,0,0,1-3.16,1.85c-3.67-.57-1.94-4.3-1.49-4.35a2.61,2.61,0,0,0-2,1.11A4.25,4.25,0,0,0,325,103a3.35,3.35,0,0,0-1.31-.85,3.94,3.94,0,0,0-2.09,0,5.35,5.35,0,0,1,.52.27,6.33,6.33,0,0,1,1.15.81,5.14,5.14,0,0,1,1.86,3,3.86,3.86,0,0,0,2.45,2.79,5.58,5.58,0,0,0,4.54.11,5.64,5.64,0,0,0,2.94-3.48,9.41,9.41,0,0,0,.45-1.75c.06-.45.07-.74.07-.74a16.52,16.52,0,0,0,3.44-1.11c1.78-.82,3.75-2.19,4.27-4.41,1-4.45-.16-6.85-1.65-8.6a7.4,7.4,0,0,0,.74-3.64c-.06-2.31-.88-5.74-4.41-9.5a24.53,24.53,0,0,0-2.59-2.47,17.14,17.14,0,0,0-2.59-1.7A17.51,17.51,0,0,0,328.28,70a13.49,13.49,0,0,0-3.18-.34,8.29,8.29,0,0,0-1.21.12A7.23,7.23,0,0,0,322,68.3a11.31,11.31,0,0,0-6-1.39c-1.93.09-4.46.21-6.88.27s-4.69,0-6.33,0a6.32,6.32,0,0,1-4.29-2.34,11.67,11.67,0,0,1-1.08-1.49l-.37-.67a6.72,6.72,0,0,1-3,.89,7.71,7.71,0,0,1-3.24-.53,13.75,13.75,0,0,1-4-2.58c-5.75-5.22-4.07-9.27-2.79-9.32,0,0-5.58-2.89-1.54-9.36,2-3.23,4.32-3.46,6.13-2.86a8.1,8.1,0,0,1,3.08,2,4.84,4.84,0,0,1,.71-.53,6.09,6.09,0,0,1,2-.84c1.66-.39,4-.19,6.76,2.07A15.08,15.08,0,0,1,304,44.63,6.84,6.84,0,0,1,305.11,47a3.8,3.8,0,0,1-.52,2.95,5.33,5.33,0,0,1,1.81,1.9c.58,1.23.55,2.92-1.8,4.82s-3.86,1.54-4.85.77a5,5,0,0,1-1.38-2.09,4.8,4.8,0,0,1-2.29,1.13c-1.4.26-3.16-.22-5.16-2.72-4-5.1.8-9.46,3.19-8.15,3.5,1.93,3.68,3.33,2.61,4.34-.8.77-2.15-.82-2.15-.82s-1.28-.06-1,1.53c.11.8,1.29,1.49,2.5,1.72a2.5,2.5,0,0,0,3-1.63c1-3-2.05-6.62-6.34-7.32-2.13-.37-4,1.28-4.86,3.43a7.57,7.57,0,0,0,.58,7.06,12.94,12.94,0,0,0,2.76,2.91,10.59,10.59,0,0,0,2.7,1.56c1.72.63,3.22.5,3.88-.05a10.23,10.23,0,0,0,.88.56A22.38,22.38,0,0,0,300.72,60C302,60.51,304.89,59.59,304.89,59.59Z"/><path class="cls-2" d="M326.62,113.32a155.43,155.43,0,0,0-57.19-57.19l17.63-30.47a190.72,190.72,0,0,1,70,70Z"/><path class="cls-1" d="M355.62,134a7.54,7.54,0,0,0,2.9,4.77,12.81,12.81,0,0,0,4.4,2c3.1.86,6.16,1.35,6.73,4.44a5.82,5.82,0,0,1-2,4.95c4.48-.21,5.24-3.48,4.25-6a8.21,8.21,0,0,0-4-3.81,6.9,6.9,0,0,1,.8-1.59c.51-.74,1.27-1.38,2.25-.92a2.26,2.26,0,0,1,1.31,3.21,3,3,0,0,0,1.12-1.23c.4-.83.48-2.13-.75-3.89a2.55,2.55,0,0,0-2.6-1.12,4,4,0,0,0-1.41.48s-.91-3.59-4.22-2.92a2.48,2.48,0,0,0-1.14,4.56s-.1-2.63,2-2a1.85,1.85,0,0,1,1.25,2.32,2.48,2.48,0,0,1-2.25,2,6,6,0,0,1-3.77-1,8.29,8.29,0,0,1-3.09-4.74,12.41,12.41,0,0,0,3.27-1.47,5.19,5.19,0,0,0,1.87-1.94,3.08,3.08,0,0,0,0-2.85,5.38,5.38,0,0,0,1.86-2.59,9.35,9.35,0,0,0,.52-3.72,15.08,15.08,0,0,0-.38-2.61,21.84,21.84,0,0,0-1.13-3.07c-1.67-3.7-3.75-5.36-5.49-6a5.88,5.88,0,0,0-3-.44,10.82,10.82,0,0,0-2.88-3.51c-2-1.46-5-2.26-8.78,0-4.38,2.58-4.8,5.43-4.8,5.43a4.1,4.1,0,0,0-4.93-.34c-1.89,1.06-2.73,2.28-2.79,3.52a3.43,3.43,0,0,0,.48,1.84,6.92,6.92,0,0,0,1.39,1.84,2.62,2.62,0,0,0,3.48.08,6.24,6.24,0,0,1-1.68-1.07,2.56,2.56,0,0,1-.79-3,2.49,2.49,0,0,1,2.17-1.58,2.35,2.35,0,0,1,1.36.45,3.57,3.57,0,0,1,1.07,1.54c.73,1.88-2.78,4.51-1.86,8.61a25,25,0,0,0,2.83,7.31c1.31,2.41,3.1,4.34,5.23,4.47a8.69,8.69,0,0,0,.52,2.59,9.68,9.68,0,0,0,4.27,4.9c2.48,1.58,6.61,3.47,10.1,5.69s6,4.79,5.43,7.17a4.44,4.44,0,0,1,1,.06,6.67,6.67,0,0,1,2.46.89c1.86,1.13,4.12,3.59,5.24,8.83.95,5.28.23,8.44-.95,10.24a5.42,5.42,0,0,1-2.42,2.26,10.9,10.9,0,0,1,.07,4,5.3,5.3,0,0,1-1.43,2.87,5.68,5.68,0,0,1-3.65,1.55c-3.34.29-5.21-.93-6.22-2.42a7.5,7.5,0,0,1-1.33-4.27,5.4,5.4,0,0,1-3-1.1,7.2,7.2,0,0,1-2.19-2.64,13.82,13.82,0,0,1-1.57-5.14,13.12,13.12,0,0,1,0-3.26,11.38,11.38,0,0,1,.71-2.91,11,11,0,0,1,3.1-4.41c2.53-2.12,5.65-2.3,7.25,1.23a2.84,2.84,0,0,1,1.73.33c.94.49,2.11,1.64,2.76,4.26a8.14,8.14,0,0,1-.58,5.72,5.24,5.24,0,0,1-1.44,1.74,5.21,5.21,0,0,1,.48.58,4.75,4.75,0,0,1,.76,1.42,2.29,2.29,0,0,1-1.48,3.14c-3.56,1.44-4.21-3.38-3.09-4.31,0,0-5.18.89-4.33-5.22a7.78,7.78,0,0,1,.32-2.24,2.71,2.71,0,0,1,2.61-2.29,2.16,2.16,0,0,1,2.36,2.13c.07,1.06-.38,2.07-.87,1.87,0,0-2.23-.54-.87,1.91s4.86.15,3.86-4c-1.15-4.12-3.36-4.43-6-3.91a4.51,4.51,0,0,0-3,2.74,8.78,8.78,0,0,0-.66,2.27,8.27,8.27,0,0,0-.1,2.43c.34,3.18,1.53,6.44,4.26,6.48,0,0,.55,5.7,5.12,4.85s4.69-5.12,3.41-7.78a4.58,4.58,0,0,0,1.17-1.8,9.89,9.89,0,0,0,.1-6.09c-1.67-5.64-5.11-6.31-5.66-6.2a3.41,3.41,0,0,0-1.22-1.92c-1.1-.85-3.1-1.45-6.66-.59a8.46,8.46,0,0,0-.36-2.59,4.86,4.86,0,0,0-3.2-3.51c-3.87-1.13-3.76-.62-5.18-5.33a4.53,4.53,0,0,0-1.13-2,6.46,6.46,0,0,0-1.54-1.18,6.84,6.84,0,0,0-1.87-.75,9.57,9.57,0,0,1,1.5,1.49,3.34,3.34,0,0,1,.88,3.22c-.87,2.24.62,5,1.79,5a5.19,5.19,0,0,0-.81,1.27,3.32,3.32,0,0,0-.14,2.83c.95,2.08,4.18,3.49,5.69.24,0,0-3.23,1.19-3.32-1.26s4.1-2.82,4.93,0a4.26,4.26,0,0,1,.34,1.94,9.73,9.73,0,0,1-2.09,5.5c-1.66,2.36-2.2,6.76-1.69,10.86a15.63,15.63,0,0,0,.73,3,14.4,14.4,0,0,0,1.21,2.67,7.88,7.88,0,0,0,4.42,3.51,6.67,6.67,0,0,0,.27,2.07,4.76,4.76,0,0,0,2.45,3.23,7.38,7.38,0,0,1-1.6,1.8,2.72,2.72,0,0,1-3.67,0c-2.83-2.34.58-4.7,1-4.52a2.58,2.58,0,0,0-2.25,0,2.31,2.31,0,0,0,0-.51,4.39,4.39,0,0,0-.16-1.19,3.52,3.52,0,0,0-2.52-2.46,9.47,9.47,0,0,1,.9,1.77,4.65,4.65,0,0,1,.14,3.56c-1,2.15,1.18,5.56,4.6,6a5.5,5.5,0,0,0,4.24-1.54,9.78,9.78,0,0,0,1.68-1.9,15.88,15.88,0,0,0,3.52.76c2,.19,4.33,0,5.93-1.67a10.62,10.62,0,0,0,2.83-4.54,8.72,8.72,0,0,0,.05-3.73,7.47,7.47,0,0,0,2.5-2.78c1.21-2,2-5.38,1-10.43-.13-.63-.27-1.23-.44-1.8s-.39-1.11-.6-1.63a21.66,21.66,0,0,0-1.38-2.77,17.2,17.2,0,0,0-3-3.8,12,12,0,0,0-3.74-2.38,7.4,7.4,0,0,0-.89-2.24,10.54,10.54,0,0,0-4.53-4.19c-1.71-.89-3.94-2.06-6-3.22-1.06-.58-2.07-1.16-3-1.7s-1.81-1-2.48-1.49a6.26,6.26,0,0,1-2.51-4.17c-.12-.72-.17-1.36-.21-1.83s0-.75,0-.75a6.64,6.64,0,0,1-3.07-.76,7.55,7.55,0,0,1-2.52-2.08,11.18,11.18,0,0,1-1.15-1.8,14,14,0,0,1-1-2.41,14.28,14.28,0,0,1-.79-4.7,7.21,7.21,0,0,1,.59-3c.7-1.51,1.89-2,2.44-1.74a6.31,6.31,0,0,1-.85-3.1c0-1.78.83-4,4.17-5.79s5.5-.85,6.76.58a8.14,8.14,0,0,1,1.67,3.25,6.3,6.3,0,0,1,3,.14c1.68.48,3.6,1.86,4.82,5.18s1.19,5.41.8,6.72a3.83,3.83,0,0,1-1.93,2.29,5.37,5.37,0,0,1,.61,2.56c0,1.33-.95,2.79-3.93,3.26s-4.18-.57-4.62-1.75a5,5,0,0,1-.14-2.5,4.74,4.74,0,0,1-2.55-.16,3.85,3.85,0,0,1-1.86-1.46,7.19,7.19,0,0,1-1.26-3.47c-.87-6.42,5.44-7.81,6.84-5.47,2.06,3.42,1.5,4.72.08,5.07-1.08.27-1.45-1.79-1.45-1.79s-1.07-.7-1.66.8c-.3.75.33,2,1.32,2.73a2.52,2.52,0,0,0,3.45.11c2.41-2.08,1.49-6.74-1.83-9.51-1.73-1.35-4.12-.87-6,.56a7.8,7.8,0,0,0-2.25,2.77,7,7,0,0,0-.75,3.64,12,12,0,0,0,2.51,6.59c1.16,1.41,2.52,2,3.37,1.9a15.7,15.7,0,0,0,1.74,2.86,5.3,5.3,0,0,0,2.21,1.3A14.18,14.18,0,0,0,355.62,134Z"/><path class="cls-2" d="M347.55,191.38A165.52,165.52,0,0,0,346.18,171c-.35-3.39-1.06-6.73-1.63-10.08-.28-1.69-.74-3.33-1.1-5s-.7-3.33-1.22-5L340.84,146c-.21-.83-.48-1.63-.76-2.44l-.83-2.41c-1-3.26-2.33-6.4-3.57-9.57a153.14,153.14,0,0,0-9.06-18.29l30.47-17.63a187.9,187.9,0,0,1,11.11,22.44c1.53,3.88,3.13,7.75,4.39,11.73l1,3c.34,1,.67,2,.94,3l1.71,6c.61,2,1,4.06,1.5,6.08s1,4.07,1.35,6.12c.72,4.12,1.55,8.22,2,12.37a200.32,200.32,0,0,1,1.67,25Z"/></svg>