<svg xmlns="http://www.w3.org/2000/svg" viewBox="0 0 494.39 658.92"><defs><clipPath id="clip-path"><path style="fill:none" d="M.45.75h493.48v657.42H.45z"/></clipPath><clipPath id="clip-path-2"><path class="cls-2" d="m135.08 438.88 62.43 238.26 4.99-3.85 3.87-2.99 3.07-2.37 6.33-4.89 8.62-6.66 3.11-2.4.64-.5 3.4-2.62 2.21-1.71 5.8-4.48 6.84-5.28 3.74-2.89 3.24-2.5-62.43-238.25-21.83 16.86-4.7 3.63h-.01l-29.32 22.64z"/></clipPath><clipPath id="clip-path-3"><path class="cls-2" d="m65.23 428.69 62.43 238.26 26.35 3.84 5.06.74 19.02 2.78 12.33 1.79 7.09 1.04-62.43-238.26-25.84-3.77-5.42-.79-5.83-.85-6.41-.93-6.18-.91-14.13-2.05-6.04-.89z"/></clipPath><clipPath id="clip-path-4"><path class="cls-2" d="m358.46 429.82-69.42 236.31 6.27-.72 4.85-.57 3.85-.44 7.95-.93 10.82-1.26 3.91-.45.8-.09 4.26-.49 2.79-.33 7.27-.85 8.58-.99 4.69-.54 4.07-.47 69.42-236.31-27.4 3.18-5.9.68-36.81 4.27z"/></clipPath><clipPath id="clip-path-5"><path class="cls-2" d="m303.88 385.06-69.42 236.31 20.6 16.88 3.95 3.25 14.86 12.19 9.64 7.9 5.53 4.54 69.42-236.31-20.19-16.56-4.23-3.47-4.56-3.74-5-4.11-4.84-3.96-11.04-9.05-4.72-3.87z"/></clipPath><clipPath id="clip-path-6"><path class="cls-2" d="m472.63 537.61 62.43 238.25 4.99-3.85 3.87-2.99 3.07-2.37 6.33-4.89 8.62-6.66 3.11-2.4.65-.5 3.4-2.61 2.21-1.72 5.8-4.48 6.83-5.27 3.74-2.89 3.25-2.51-62.43-238.25-21.84 16.86-4.69 3.63h-.01l-29.33 22.65z"/></clipPath><clipPath id="clip-path-7"><path class="cls-2" d="m402.79 527.41 62.42 238.26 26.35 3.84 5.06.74 19.02 2.78 12.33 1.79 7.09 1.04-62.43-238.25-25.83-3.78-5.42-.79-5.84-.85-6.4-.93-6.19-.91-14.13-2.05-6.03-.89z"/></clipPath><clipPath id="clip-path-8"><path class="cls-2" d="M-3.08 582.14-72.5 818.46l6.27-.73 4.85-.57 3.85-.44 7.95-.93 10.82-1.25 3.91-.45.8-.1 4.26-.49 2.78-.32 7.28-.85 8.58-.99 4.69-.55 4.07-.47 69.42-236.31-27.4 3.18-5.9.68-36.81 4.27z"/></clipPath><clipPath id="clip-path-9"><path class="cls-2" d="m-57.66 537.38-69.42 236.31 20.6 16.89 3.95 3.24 14.86 12.19 9.64 7.9 5.53 4.55 69.42-236.32-20.19-16.56-4.23-3.47-4.56-3.74-5.01-4.1-4.83-3.97-11.04-9.04-4.72-3.88z"/></clipPath><style>.cls-2{fill:#fff}.cls-28,.cls-6{fill:#fd5a85}.cls-7{fill:#fd6f95}.cls-10{fill:#b7b6b6}.cls-10,.cls-28{mix-blend-mode:multiply}.cls-11{fill:#6acec2}.cls-12{fill:#42ad9d}.cls-13,.cls-14{fill:#534d96}.cls-13,.cls-21{mix-blend-mode:screen}.cls-16{fill:#fffdf5}.cls-17{fill:#474180}.cls-19{fill:#5e5cbf}.cls-20,.cls-21{fill:#ffcf38}.cls-24{fill:#eb537b}.cls-25{fill:#fd7296}.cls-26{fill:#fd7fa0}.cls-27{fill:#fd7297}.cls-29{fill:#f2ad35}</style></defs><g style="isolation:isolate"><g style="clip-path:url(#clip-path)" id="Layer_1" data-name="Layer 1"><path style="fill:#f0557e" d="M243.36 450.54 204.8 597.68l-3.08-2.38-2.39-1.84-1.9-1.47-3.91-3.02-5.32-4.11-1.92-1.48-.4-.31-2.1-1.61-1.37-1.06-3.58-2.77-4.22-3.26-2.31-1.78-2-1.55 38.56-147.14 13.48 10.41 2.9 2.24h.01l18.11 13.99z"/><path class="cls-6" d="m286.49 444.24-38.55 147.15-16.28 2.37-3.12.46-11.74 1.71-7.62 1.11-4.38.64 38.56-147.14 15.95-2.33 3.35-.49 3.6-.53 3.96-.57 3.82-.56 8.72-1.27 3.73-.55z"/><path class="cls-7" d="m286.49 444.24-16.27 2.38-3.96.57-22.9 3.35-18.11-13.99-2.91-2.24-13.48-10.41 17.52-2.61 4.33-.64 21.79-3.25 17 13.43 3.42 2.69 13.57 10.72z"/><path class="cls-7" d="m291.68 444.41-18.36 2.68-4.47.65-25.85 3.77-20.44-15.78-3.28-2.53-15.21-11.75 19.78-2.94 4.88-.73 24.59-3.66 19.19 15.15 3.85 3.04 15.32 12.1z"/><path style="fill:#e24d7b" d="m239.12 466.34 3.88-14.83-20.44-15.78-3.28-2.53-15.21-11.75-3.14 11.98 38.19 32.91z"/><path style="fill:#ed4c7e" d="m239.12 466.34 49.31-9.52 3.25-12.41-4.21.62-9.84 1.43-4.31.63-4.47.65-4.06.59-3.78.55-18.01 2.63-3.88 14.83z"/><path class="cls-10" d="m204.92 438.65 33.03 32.21 44.56-11.37.42-1.48-43.81 8.33-33.79-29.33-.41 1.64z"/><path class="cls-11" d="m267.57 425.23-46.27 7.19-38.89 147.98 5.59 4.31 37.91-146.72 48.33-7.45-6.67-5.31z"/><path class="cls-11" d="m235.81 416.58-7.66 1.36 37.1 30.36-38.21 146.01 6.3-.99 38.65-147.62-36.18-29.12z"/><path class="cls-12" d="M238 431.53c-21.95-6.43-18.6-21.45-18.6-21.45l11.77-5.91s-5.45 15.6 8.59 25.19Z"/><path class="cls-11" d="M250.36 431.53s-2.63-28.75-18.5-32.49l-12.49 11s22.51 3.38 26.08 21.35Z"/><path class="cls-13" d="M245.25 412.17a30.19 30.19 0 0 0-5.63-8.57l-.89.64c-3.87 2.78-8.06 5.23-12.12 7.83a37.46 37.46 0 0 1 10.12 5.55c2.88-1.75 5.71-3.62 8.52-5.45Z"/><path class="cls-12" d="M256.23 436.68c22.36 4.84 26.59-10 26.59-10l-7.52-10.81s-2.66 16.3-19.58 18Z"/><path class="cls-11" d="M245.35 430.76s16-24 31.78-19.7l5.69 15.66s-21.39-7.78-33.11 6.3Z"/><path class="cls-13" d="M259.09 416.19a30 30 0 0 1 9-4.84c.16.33.31.66.47 1 2.07 4.28 4.58 8.44 6.91 12.66a37.19 37.19 0 0 0-11.54 0c-1.66-2.87-3.27-5.83-4.84-8.82Z"/><path class="cls-11" d="M237.58 433.5a2 2 0 0 1-.13-3.24c2.1-1.75 5.72-4.15 9.24-3.63 7.35 1.08 11.36 4.71 10.55 9.14a2 2 0 0 1-1.9 1.62c-3.34.16-11.78.09-17.76-3.89Z"/><path class="cls-10" d="M223.13 456.44 188 584.71l33.56-129.79 1.57 1.52zM258.05 466.25l-31.01 128.06 33.82-129.27-2.67.68-.14.53z"/><path class="cls-14" d="m135.08 438.88 62.43 238.26 4.99-3.85 3.87-2.99 3.07-2.37 6.33-4.89 8.62-6.66 3.11-2.4.64-.5 3.4-2.62 2.21-1.71 5.8-4.48 6.84-5.28 3.74-2.89 3.24-2.5-62.43-238.25-21.83 16.86-4.7 3.63h-.01l-29.32 22.64z"/><path class="cls-2" d="m135.08 438.88 62.43 238.26 4.99-3.85 3.87-2.99 3.07-2.37 6.33-4.89 8.62-6.66 3.11-2.4.64-.5 3.4-2.62 2.21-1.71 5.8-4.48 6.84-5.28 3.74-2.89 3.24-2.5-62.43-238.25-21.83 16.86-4.7 3.63h-.01l-29.32 22.64z"/><g style="clip-path:url(#clip-path-2)"><path class="cls-16" d="M205.61 381.23a1.66 1.66 0 1 0 1.1-2.06 1.65 1.65 0 0 0-1.1 2.06ZM185.21 387.45a1.65 1.65 0 1 0 1.1-2.07 1.65 1.65 0 0 0-1.1 2.07ZM164.81 393.67a1.65 1.65 0 1 0 1.1-2.06 1.65 1.65 0 0 0-1.1 2.06ZM144.41 399.89a1.65 1.65 0 1 0 1.1-2.06 1.66 1.66 0 0 0-1.1 2.06ZM124 406.12a1.65 1.65 0 1 0 1.1-2.07 1.65 1.65 0 0 0-1.1 2.07ZM198.45 394a1.66 1.66 0 1 0 1.1-2.07 1.67 1.67 0 0 0-1.1 2.07ZM178.05 400.2a1.66 1.66 0 1 0 1.1-2.07 1.66 1.66 0 0 0-1.1 2.07ZM157.65 406.42a1.66 1.66 0 1 0 1.1-2.07 1.66 1.66 0 0 0-1.1 2.07ZM137.25 412.64a1.66 1.66 0 1 0 1.1-2.06 1.65 1.65 0 0 0-1.1 2.06ZM116.85 418.86a1.65 1.65 0 1 0 1.1-2.06 1.64 1.64 0 0 0-1.1 2.06ZM211.12 400.12a1.66 1.66 0 1 0 1.1-2.07 1.66 1.66 0 0 0-1.1 2.07ZM190.72 406.34a1.66 1.66 0 1 0 1.1-2.06 1.65 1.65 0 0 0-1.1 2.06ZM170.32 412.56a1.66 1.66 0 1 0 1.1-2.06 1.65 1.65 0 0 0-1.1 2.06ZM149.92 418.78a1.65 1.65 0 1 0 1.1-2.06 1.66 1.66 0 0 0-1.1 2.06ZM129.52 425a1.67 1.67 0 0 0 2.07 1.1 1.66 1.66 0 1 0-2.07-1.1ZM204 412.87a1.66 1.66 0 1 0 1.1-2.07 1.67 1.67 0 0 0-1.1 2.07ZM183.56 419.09a1.66 1.66 0 1 0 1.1-2.07 1.67 1.67 0 0 0-1.1 2.07ZM163.16 425.31a1.66 1.66 0 1 0 1.1-2.06 1.65 1.65 0 0 0-1.1 2.06ZM142.76 431.53a1.66 1.66 0 1 0 1.1-2.07 1.65 1.65 0 0 0-1.1 2.07ZM122.36 437.75a1.66 1.66 0 1 0 1.1-2.06 1.66 1.66 0 0 0-1.1 2.06ZM216.63 419a1.66 1.66 0 1 0 1.11-2.07 1.66 1.66 0 0 0-1.11 2.07ZM196.23 425.23a1.66 1.66 0 1 0 1.11-2.06 1.66 1.66 0 0 0-1.11 2.06ZM175.83 431.45a1.66 1.66 0 1 0 1.1-2.06 1.65 1.65 0 0 0-1.1 2.06ZM155.43 437.68a1.66 1.66 0 1 0 1.1-2.07 1.67 1.67 0 0 0-1.1 2.07ZM135 443.9a1.66 1.66 0 1 0 1.1-2.07 1.66 1.66 0 0 0-1.1 2.07ZM209.48 431.75a1.65 1.65 0 1 0 1.09-2.06 1.64 1.64 0 0 0-1.09 2.06ZM189.07 438a1.66 1.66 0 1 0 1.1-2.07 1.66 1.66 0 0 0-1.1 2.07ZM168.67 444.2a1.66 1.66 0 1 0 1.1-2.07 1.67 1.67 0 0 0-1.1 2.07ZM148.27 450.42a1.66 1.66 0 1 0 1.1-2.06 1.65 1.65 0 0 0-1.1 2.06ZM127.87 456.64a1.66 1.66 0 1 0 1.1-2.06 1.65 1.65 0 0 0-1.1 2.06ZM222.15 437.9a1.65 1.65 0 1 0 1.1-2.06 1.66 1.66 0 0 0-1.1 2.06ZM201.75 444.12a1.65 1.65 0 1 0 1.1-2.07 1.65 1.65 0 0 0-1.1 2.07ZM181.34 450.34a1.66 1.66 0 1 0 1.1-2.06 1.65 1.65 0 0 0-1.1 2.06ZM160.94 456.56a1.66 1.66 0 1 0 1.1-2.06 1.66 1.66 0 0 0-1.1 2.06ZM140.54 462.79a1.66 1.66 0 1 0 1.1-2.07 1.66 1.66 0 0 0-1.1 2.07ZM215 450.65a1.65 1.65 0 1 0 1.1-2.07 1.65 1.65 0 0 0-1.1 2.07ZM194.58 456.87a1.66 1.66 0 1 0 1.11-2.07 1.66 1.66 0 0 0-1.11 2.07ZM174.18 463.09a1.66 1.66 0 1 0 1.11-2.07 1.66 1.66 0 0 0-1.11 2.07ZM153.78 469.31a1.66 1.66 0 1 0 1.1-2.06 1.66 1.66 0 0 0-1.1 2.06ZM133.38 475.53a1.66 1.66 0 1 0 1.1-2.06 1.66 1.66 0 0 0-1.1 2.06ZM227.66 456.79a1.66 1.66 0 0 0 3.17-1 1.67 1.67 0 0 0-2.07-1.1 1.65 1.65 0 0 0-1.1 2.1ZM207.26 463a1.65 1.65 0 1 0 1.1-2.07 1.64 1.64 0 0 0-1.1 2.07ZM186.86 469.23a1.65 1.65 0 1 0 1.1-2.06 1.64 1.64 0 0 0-1.1 2.06ZM166.45 475.45a1.66 1.66 0 0 0 2.07 1.1 1.65 1.65 0 0 0-1-3.16 1.65 1.65 0 0 0-1.07 2.06ZM146.05 481.68a1.66 1.66 0 1 0 1.1-2.07 1.67 1.67 0 0 0-1.1 2.07ZM220.5 469.53a1.66 1.66 0 1 0 1.1-2.06 1.64 1.64 0 0 0-1.1 2.06ZM200.1 475.76a1.66 1.66 0 1 0 1.1-2.07 1.66 1.66 0 0 0-1.1 2.07ZM179.7 482a1.65 1.65 0 1 0 1.1-2.06 1.65 1.65 0 0 0-1.1 2.06ZM159.3 488.2a1.65 1.65 0 1 0 1.09-2.06 1.64 1.64 0 0 0-1.09 2.06ZM138.89 494.42a1.66 1.66 0 1 0 1.11-2.06 1.66 1.66 0 0 0-1.11 2.06ZM233 474.47a1.66 1.66 0 1 0 1.1-2.06 1.65 1.65 0 0 0-1.1 2.06ZM212.58 480.7a1.66 1.66 0 1 0 1.1-2.07 1.66 1.66 0 0 0-1.1 2.07ZM192.18 486.92a1.66 1.66 0 0 0 3.17-1 1.66 1.66 0 1 0-3.17 1ZM171.78 493.14a1.65 1.65 0 1 0 1.1-2.07 1.64 1.64 0 0 0-1.1 2.07ZM151.38 499.36a1.65 1.65 0 1 0 1.1-2.06 1.64 1.64 0 0 0-1.1 2.06ZM225.82 487.22a1.66 1.66 0 1 0 1.1-2.06 1.66 1.66 0 0 0-1.1 2.06ZM205.42 493.45a1.66 1.66 0 1 0 1.1-2.07 1.65 1.65 0 0 0-1.1 2.07ZM185 499.67a1.65 1.65 0 1 0 1.1-2.07 1.66 1.66 0 0 0-1.1 2.07ZM164.62 505.89a1.66 1.66 0 1 0 1.1-2.07 1.67 1.67 0 0 0-1.1 2.07ZM144.22 512.11a1.66 1.66 0 0 0 3.17-1 1.66 1.66 0 1 0-3.17 1ZM238.49 493.37a1.66 1.66 0 1 0 1.1-2.07 1.66 1.66 0 0 0-1.1 2.07ZM218.09 499.59a1.66 1.66 0 1 0 1.1-2.07 1.66 1.66 0 0 0-1.1 2.07ZM197.69 505.81a1.66 1.66 0 1 0 1.1-2.07 1.67 1.67 0 0 0-1.1 2.07ZM177.29 512a1.66 1.66 0 0 0 3.17-1 1.66 1.66 0 1 0-3.17 1ZM156.89 518.25a1.66 1.66 0 1 0 1.1-2.06 1.65 1.65 0 0 0-1.1 2.06ZM231.34 506.11a1.65 1.65 0 1 0 1.09-2.06 1.64 1.64 0 0 0-1.09 2.06ZM210.94 512.33a1.64 1.64 0 0 0 2.06 1.1 1.65 1.65 0 1 0-2.06-1.1ZM190.53 518.55a1.66 1.66 0 1 0 1.1-2.06 1.65 1.65 0 0 0-1.1 2.06ZM170.13 524.78a1.66 1.66 0 1 0 1.1-2.07 1.66 1.66 0 0 0-1.1 2.07ZM149.73 531a1.66 1.66 0 1 0 1.1-2.07 1.66 1.66 0 0 0-1.1 2.07ZM244 512.25a1.66 1.66 0 1 0 1.11-2.06 1.66 1.66 0 0 0-1.11 2.06ZM223.6 518.48a1.66 1.66 0 1 0 1.11-2.07 1.65 1.65 0 0 0-1.11 2.07ZM203.2 524.7a1.66 1.66 0 1 0 1.1-2.07 1.66 1.66 0 0 0-1.1 2.07ZM182.8 530.92a1.66 1.66 0 1 0 1.1-2.06 1.66 1.66 0 0 0-1.1 2.06ZM162.4 537.14a1.66 1.66 0 1 0 1.1-2.06 1.65 1.65 0 0 0-1.1 2.06ZM236.85 525a1.65 1.65 0 1 0 1.1-2.06 1.64 1.64 0 0 0-1.1 2.06ZM216.45 531.22a1.65 1.65 0 1 0 1.09-2.06 1.65 1.65 0 0 0-1.09 2.06ZM196 537.45a1.66 1.66 0 0 0 3.17-1 1.66 1.66 0 0 0-3.17 1ZM175.64 543.67a1.66 1.66 0 1 0 1.1-2.07 1.66 1.66 0 0 0-1.1 2.07ZM155.24 549.89a1.66 1.66 0 1 0 1.1-2.07 1.66 1.66 0 0 0-1.1 2.07ZM249.52 531.14a1.65 1.65 0 1 0 1.1-2.06 1.66 1.66 0 0 0-1.1 2.06ZM229.12 537.37a1.65 1.65 0 1 0 1.1-2.07 1.66 1.66 0 0 0-1.1 2.07ZM208.71 543.58a1.66 1.66 0 1 0 1.1-2.06 1.66 1.66 0 0 0-1.1 2.06ZM188.31 549.81a1.66 1.66 0 1 0 1.1-2.07 1.66 1.66 0 0 0-1.1 2.07ZM167.91 556a1.66 1.66 0 1 0 1.09-2 1.65 1.65 0 0 0-1.09 2ZM242.36 543.89a1.66 1.66 0 1 0 1.1-2.06 1.64 1.64 0 0 0-1.1 2.06ZM222 550.12a1.65 1.65 0 1 0 1.1-2.07 1.64 1.64 0 0 0-1.1 2.07ZM201.56 556.34a1.65 1.65 0 1 0 1.1-2.07 1.64 1.64 0 0 0-1.1 2.07ZM181.16 562.56a1.65 1.65 0 1 0 1.09-2.07 1.64 1.64 0 0 0-1.09 2.07ZM160.75 568.78a1.66 1.66 0 1 0 1.1-2.07 1.66 1.66 0 0 0-1.1 2.07ZM255 550a1.66 1.66 0 1 0 1.1-2.07A1.65 1.65 0 0 0 255 550ZM234.63 556.26a1.65 1.65 0 1 0 3.16-1 1.65 1.65 0 1 0-3.16 1ZM214.23 562.48a1.65 1.65 0 1 0 1.1-2.07 1.65 1.65 0 0 0-1.1 2.07ZM193.82 568.7a1.66 1.66 0 1 0 1.11-2.07 1.66 1.66 0 0 0-1.11 2.07ZM173.43 574.92a1.65 1.65 0 0 0 3.16-1 1.65 1.65 0 1 0-3.16 1ZM247.87 562.78a1.66 1.66 0 1 0 1.1-2.07 1.65 1.65 0 0 0-1.1 2.07ZM227.47 569a1.65 1.65 0 1 0 1.1-2.06 1.64 1.64 0 0 0-1.1 2.06ZM207.07 575.23a1.65 1.65 0 1 0 1.1-2.07 1.66 1.66 0 0 0-1.1 2.07ZM186.67 581.45a1.65 1.65 0 1 0 1.1-2.07 1.66 1.66 0 0 0-1.1 2.07ZM166.26 587.67a1.66 1.66 0 1 0 1.11-2.07 1.66 1.66 0 0 0-1.11 2.07ZM260.35 567.72a1.66 1.66 0 1 0 1.1-2.07 1.67 1.67 0 0 0-1.1 2.07ZM240 573.94a1.66 1.66 0 1 0 1.1-2.06 1.65 1.65 0 0 0-1.1 2.06ZM219.55 580.17a1.66 1.66 0 1 0 1.1-2.07 1.67 1.67 0 0 0-1.1 2.07ZM199.15 586.39a1.65 1.65 0 1 0 1.1-2.07 1.65 1.65 0 0 0-1.1 2.07ZM178.75 592.6a1.65 1.65 0 1 0 1.1-2.05 1.63 1.63 0 0 0-1.1 2.05ZM253.19 580.47a1.66 1.66 0 1 0 3.17-1 1.66 1.66 0 0 0-3.17 1ZM232.79 586.69a1.66 1.66 0 1 0 1.1-2.07 1.66 1.66 0 0 0-1.1 2.07ZM212.39 592.91a1.66 1.66 0 1 0 1.1-2.07 1.67 1.67 0 0 0-1.1 2.07ZM192 599.13a1.66 1.66 0 1 0 1.1-2.06 1.65 1.65 0 0 0-1.1 2.06ZM171.59 605.35a1.66 1.66 0 1 0 1.1-2.06 1.64 1.64 0 0 0-1.1 2.06ZM265.86 586.61a1.66 1.66 0 1 0 1.11-2.06 1.66 1.66 0 0 0-1.11 2.06ZM245.46 592.84a1.66 1.66 0 1 0 1.1-2.07 1.65 1.65 0 0 0-1.1 2.07ZM225.06 599.05a1.66 1.66 0 1 0 1.1-2.06 1.65 1.65 0 0 0-1.1 2.06ZM204.66 605.27a1.66 1.66 0 1 0 1.1-2.06 1.66 1.66 0 0 0-1.1 2.06ZM184.26 611.5a1.66 1.66 0 1 0 3.17-1 1.66 1.66 0 1 0-3.17 1ZM258.71 599.35a1.65 1.65 0 1 0 1.1-2.06 1.65 1.65 0 0 0-1.1 2.06ZM238.31 605.58a1.65 1.65 0 1 0 3.16-1 1.65 1.65 0 1 0-3.16 1ZM217.9 611.8a1.66 1.66 0 1 0 1.1-2.06 1.65 1.65 0 0 0-1.1 2.06ZM197.5 618a1.66 1.66 0 1 0 1.1-2.06 1.65 1.65 0 0 0-1.1 2.06ZM177.1 624.24a1.66 1.66 0 1 0 1.1-2.06 1.65 1.65 0 0 0-1.1 2.06ZM271.37 605.5a1.66 1.66 0 1 0 1.11-2.07 1.66 1.66 0 0 0-1.11 2.07ZM251 611.72a1.65 1.65 0 1 0 1.1-2.06 1.64 1.64 0 0 0-1.1 2.06ZM230.57 617.94a1.67 1.67 0 0 0 2.07 1.11 1.66 1.66 0 1 0-2.07-1.11ZM210.17 624.16a1.66 1.66 0 1 0 1.1-2.06 1.66 1.66 0 0 0-1.1 2.06ZM189.77 630.39a1.66 1.66 0 1 0 1.1-2.07 1.66 1.66 0 0 0-1.1 2.07ZM264.22 618.25a1.65 1.65 0 1 0 1.1-2.07 1.66 1.66 0 0 0-1.1 2.07ZM243.82 624.47a1.65 1.65 0 1 0 1.09-2.07 1.65 1.65 0 0 0-1.09 2.07ZM223.41 630.69a1.66 1.66 0 1 0 1.11-2.07 1.66 1.66 0 0 0-1.11 2.07ZM203 636.91a1.66 1.66 0 1 0 1.1-2.06 1.66 1.66 0 0 0-1.1 2.06ZM182.61 643.13a1.66 1.66 0 1 0 1.1-2.06 1.66 1.66 0 0 0-1.1 2.06ZM276.89 624.39a1.65 1.65 0 1 0 3.16-1 1.65 1.65 0 0 0-3.16 1ZM256.49 630.61a1.65 1.65 0 1 0 1.1-2.06 1.64 1.64 0 0 0-1.1 2.06ZM236.09 636.83a1.65 1.65 0 1 0 1.1-2.06 1.64 1.64 0 0 0-1.1 2.06ZM215.68 643.06a1.66 1.66 0 1 0 1.1-2.07 1.67 1.67 0 0 0-1.1 2.07ZM195.28 649.28a1.66 1.66 0 1 0 1.1-2.07 1.67 1.67 0 0 0-1.1 2.07ZM269.73 637.14a1.66 1.66 0 1 0 1.1-2.07 1.65 1.65 0 0 0-1.1 2.07ZM249.33 643.36a1.66 1.66 0 1 0 1.1-2.07 1.65 1.65 0 0 0-1.1 2.07ZM228.93 649.58a1.65 1.65 0 1 0 1.1-2.07 1.64 1.64 0 0 0-1.1 2.07ZM208.52 655.8a1.66 1.66 0 1 0 1.1-2.06 1.66 1.66 0 0 0-1.1 2.06ZM282.4 643.28a1.66 1.66 0 1 0 1.1-2.07 1.65 1.65 0 0 0-1.1 2.07ZM262 649.5a1.65 1.65 0 1 0 1.1-2.06 1.65 1.65 0 0 0-1.1 2.06ZM241.6 655.73a1.65 1.65 0 1 0 1.1-2.07 1.66 1.66 0 0 0-1.1 2.07ZM275.24 656a1.66 1.66 0 1 0 1.1-2.07 1.66 1.66 0 0 0-1.1 2.07Z"/></g><path class="cls-17" d="m65.23 428.69 62.43 238.26 26.35 3.84 5.06.74 19.02 2.78 12.33 1.79 7.09 1.04-62.43-238.26-25.84-3.77-5.42-.79-5.83-.85-6.41-.93-6.18-.91-14.13-2.05-6.04-.89z"/><path class="cls-2" d="m65.23 428.69 62.43 238.26 26.35 3.84 5.06.74 19.02 2.78 12.33 1.79 7.09 1.04-62.43-238.26-25.84-3.77-5.42-.79-5.83-.85-6.41-.93-6.18-.91-14.13-2.05-6.04-.89z"/><g style="clip-path:url(#clip-path-3)"><path class="cls-16" d="M137.34 410.06a1.65 1.65 0 1 0 1.1-2.07 1.65 1.65 0 0 0-1.1 2.07ZM116.93 416.28a1.66 1.66 0 1 0 1.1-2.07 1.66 1.66 0 0 0-1.1 2.07ZM96.53 422.5a1.66 1.66 0 1 0 1.1-2.07 1.65 1.65 0 0 0-1.1 2.07ZM76.13 428.72a1.66 1.66 0 1 0 1.1-2.06 1.64 1.64 0 0 0-1.1 2.06ZM55.73 434.94a1.65 1.65 0 1 0 1.1-2.06 1.64 1.64 0 0 0-1.1 2.06ZM130.18 422.8a1.65 1.65 0 0 0 3.16-1 1.65 1.65 0 1 0-3.16 1ZM109.77 429a1.66 1.66 0 1 0 1.1-2.07 1.66 1.66 0 0 0-1.1 2.07ZM89.37 435.25a1.66 1.66 0 1 0 1.1-2.07 1.67 1.67 0 0 0-1.1 2.07ZM69 441.47a1.66 1.66 0 1 0 1.1-2.07 1.66 1.66 0 0 0-1.1 2.07ZM48.57 447.69a1.66 1.66 0 1 0 1.1-2.07 1.66 1.66 0 0 0-1.1 2.07ZM142.84 429a1.66 1.66 0 0 0 3.17-1 1.66 1.66 0 0 0-3.17 1ZM122.44 435.17a1.66 1.66 0 1 0 1.11-2.07 1.67 1.67 0 0 0-1.11 2.07ZM102 441.39a1.66 1.66 0 1 0 1.1-2.06 1.66 1.66 0 0 0-1.1 2.06ZM81.64 447.61a1.66 1.66 0 1 0 1.1-2.07 1.67 1.67 0 0 0-1.1 2.07ZM61.24 453.84a1.66 1.66 0 1 0 1.1-2.07 1.65 1.65 0 0 0-1.1 2.07ZM135.69 441.69a1.65 1.65 0 1 0 1.1-2.06 1.64 1.64 0 0 0-1.1 2.06ZM115.29 447.91a1.65 1.65 0 1 0 1.1-2.06 1.65 1.65 0 0 0-1.1 2.06ZM94.88 454.14a1.67 1.67 0 0 0 2.07 1.1 1.66 1.66 0 1 0-2.07-1.1ZM74.48 460.36a1.66 1.66 0 1 0 1.11-2.07 1.67 1.67 0 0 0-1.11 2.07ZM54.08 466.58a1.66 1.66 0 1 0 1.1-2.07 1.67 1.67 0 0 0-1.1 2.07ZM148.36 447.83a1.65 1.65 0 1 0 1.1-2.06 1.64 1.64 0 0 0-1.1 2.06ZM128 454.06a1.65 1.65 0 1 0 1.1-2.07 1.65 1.65 0 0 0-1.1 2.07ZM107.56 460.28a1.65 1.65 0 1 0 1.1-2.07 1.65 1.65 0 0 0-1.1 2.07ZM87.15 466.5a1.66 1.66 0 1 0 1.1-2.06 1.65 1.65 0 0 0-1.1 2.06ZM66.75 472.72a1.66 1.66 0 1 0 3.17-1 1.66 1.66 0 0 0-3.17 1ZM141.2 460.58a1.65 1.65 0 1 0 1.1-2.06 1.65 1.65 0 0 0-1.1 2.06ZM120.8 466.81a1.66 1.66 0 1 0 1.1-2.07 1.64 1.64 0 0 0-1.1 2.07ZM100.4 473a1.65 1.65 0 1 0 1.1-2.07 1.66 1.66 0 0 0-1.1 2.07ZM80 479.25a1.65 1.65 0 1 0 1.09-2.07 1.65 1.65 0 0 0-1.09 2.07ZM59.59 485.47a1.66 1.66 0 1 0 1.1-2.06 1.66 1.66 0 0 0-1.1 2.06ZM153.87 466.73a1.66 1.66 0 1 0 1.1-2.07 1.67 1.67 0 0 0-1.1 2.07ZM133.47 473a1.65 1.65 0 1 0 1.1-2.07 1.65 1.65 0 0 0-1.1 2.07ZM113.07 479.17a1.65 1.65 0 1 0 1.1-2.07 1.64 1.64 0 0 0-1.1 2.07ZM92.66 485.39a1.66 1.66 0 1 0 1.11-2.06 1.66 1.66 0 0 0-1.11 2.06ZM72.26 491.61a1.66 1.66 0 1 0 1.11-2.06 1.66 1.66 0 0 0-1.11 2.06ZM146.71 479.47a1.66 1.66 0 1 0 1.1-2.06 1.65 1.65 0 0 0-1.1 2.06ZM126.31 485.7a1.66 1.66 0 1 0 1.1-2.07 1.66 1.66 0 0 0-1.1 2.07ZM105.91 491.91a1.65 1.65 0 1 0 1.1-2.06 1.66 1.66 0 0 0-1.1 2.06ZM85.51 498.14a1.65 1.65 0 1 0 1.1-2.06 1.64 1.64 0 0 0-1.1 2.06ZM65.11 504.36a1.65 1.65 0 1 0 1.09-2.07 1.65 1.65 0 0 0-1.09 2.07ZM159.38 485.62a1.66 1.66 0 1 0 1.1-2.07 1.67 1.67 0 0 0-1.1 2.07ZM139 491.84a1.66 1.66 0 1 0 1.1-2.07 1.67 1.67 0 0 0-1.1 2.07ZM118.58 498.06a1.65 1.65 0 1 0 1.1-2.07 1.66 1.66 0 0 0-1.1 2.07ZM98.18 504.28a1.65 1.65 0 1 0 1.1-2.07 1.65 1.65 0 0 0-1.1 2.07ZM77.78 510.51a1.65 1.65 0 1 0 1.1-2.07 1.64 1.64 0 0 0-1.1 2.07ZM152.22 498.36a1.66 1.66 0 1 0 1.1-2.06 1.65 1.65 0 0 0-1.1 2.06ZM131.82 504.58a1.66 1.66 0 1 0 1.1-2.06 1.66 1.66 0 0 0-1.1 2.06ZM111.42 510.8a1.66 1.66 0 1 0 1.1-2.06 1.66 1.66 0 0 0-1.1 2.06ZM91 517a1.66 1.66 0 1 0 1.1-2.07A1.65 1.65 0 0 0 91 517ZM70.62 523.25a1.65 1.65 0 1 0 1.1-2.07 1.64 1.64 0 0 0-1.1 2.07ZM164.71 503.3a1.65 1.65 0 1 0 1.1-2.06 1.64 1.64 0 0 0-1.1 2.06ZM144.31 509.52a1.65 1.65 0 1 0 1.09-2.06 1.64 1.64 0 0 0-1.09 2.06ZM123.9 515.75a1.66 1.66 0 1 0 1.1-2.07 1.65 1.65 0 0 0-1.1 2.07ZM103.5 522a1.66 1.66 0 1 0 1.1-2.07 1.66 1.66 0 0 0-1.1 2.07ZM83.1 528.19a1.66 1.66 0 1 0 1.1-2.07 1.66 1.66 0 0 0-1.1 2.07ZM157.54 516.05a1.67 1.67 0 0 0 2.07 1.1 1.66 1.66 0 1 0-2.07-1.1ZM137.14 522.27a1.66 1.66 0 0 0 2.07 1.1 1.64 1.64 0 0 0 1.1-2.06 1.66 1.66 0 1 0-3.17 1ZM116.74 528.49a1.66 1.66 0 1 0 1.1-2.06 1.66 1.66 0 0 0-1.1 2.06ZM96.34 534.71a1.66 1.66 0 1 0 1.11-2.06 1.66 1.66 0 0 0-1.11 2.06ZM75.94 540.94a1.66 1.66 0 1 0 1.1-2.07 1.67 1.67 0 0 0-1.1 2.07ZM170.22 522.19a1.65 1.65 0 1 0 1.1-2.06 1.64 1.64 0 0 0-1.1 2.06ZM149.81 528.41a1.66 1.66 0 1 0 1.11-2.06 1.66 1.66 0 0 0-1.11 2.06ZM129.41 534.63a1.66 1.66 0 0 0 2.07 1.1 1.65 1.65 0 0 0-1-3.16 1.65 1.65 0 0 0-1.07 2.06ZM109 540.86a1.67 1.67 0 0 0 2.07 1.1 1.66 1.66 0 1 0-2.07-1.1ZM88.61 547.08a1.66 1.66 0 1 0 1.1-2.07 1.67 1.67 0 0 0-1.1 2.07ZM163.06 534.94a1.65 1.65 0 1 0 1.1-2.07 1.64 1.64 0 0 0-1.1 2.07ZM142.66 541.16a1.65 1.65 0 0 0 3.16-1 1.65 1.65 0 1 0-3.16 1ZM122.25 547.38a1.66 1.66 0 1 0 1.11-2.06 1.66 1.66 0 0 0-1.11 2.06ZM101.86 553.6a1.65 1.65 0 1 0 1.1-2.06 1.65 1.65 0 0 0-1.1 2.06ZM81.45 559.82a1.66 1.66 0 1 0 1.1-2.06 1.66 1.66 0 0 0-1.1 2.06ZM175.73 541.08a1.65 1.65 0 1 0 1.1-2.07 1.64 1.64 0 0 0-1.1 2.07ZM155.33 547.31a1.66 1.66 0 1 0 1.1-2.07 1.65 1.65 0 0 0-1.1 2.07ZM134.93 553.52a1.66 1.66 0 0 0 3.17-1 1.66 1.66 0 0 0-2.07-1.1 1.64 1.64 0 0 0-1.1 2.1ZM114.53 559.75a1.65 1.65 0 1 0 1.1-2.07 1.66 1.66 0 0 0-1.1 2.07ZM94.12 566a1.67 1.67 0 0 0 2.07 1.1 1.65 1.65 0 1 0-2.07-1.1ZM168.57 553.83a1.65 1.65 0 1 0 3.16-1 1.65 1.65 0 1 0-3.16 1ZM148.17 560.05a1.65 1.65 0 1 0 1.1-2.07 1.65 1.65 0 0 0-1.1 2.07ZM127.77 566.27a1.65 1.65 0 1 0 1.1-2.06 1.65 1.65 0 0 0-1.1 2.06ZM107.37 572.5a1.65 1.65 0 1 0 1.1-2.07 1.66 1.66 0 0 0-1.1 2.07ZM87 578.72a1.65 1.65 0 1 0 1.09-2.07 1.66 1.66 0 0 0-1.09 2.07ZM181.24 560a1.66 1.66 0 1 0 1.1-2.06 1.65 1.65 0 0 0-1.1 2.06ZM160.84 566.19a1.66 1.66 0 1 0 1.1-2.06 1.66 1.66 0 0 0-1.1 2.06ZM140.44 572.41a1.65 1.65 0 1 0 1.1-2.06 1.64 1.64 0 0 0-1.1 2.06ZM120 578.63a1.65 1.65 0 1 0 1.1-2.06 1.65 1.65 0 0 0-1.1 2.06ZM99.64 584.86a1.65 1.65 0 1 0 1.1-2.06 1.65 1.65 0 0 0-1.1 2.06ZM174.08 572.72a1.66 1.66 0 1 0 1.1-2.07 1.66 1.66 0 0 0-1.1 2.07ZM153.68 578.94a1.66 1.66 0 1 0 1.1-2.07 1.66 1.66 0 0 0-1.1 2.07ZM133.28 585.16a1.65 1.65 0 1 0 1.1-2.06 1.65 1.65 0 0 0-1.1 2.06ZM112.88 591.38a1.66 1.66 0 1 0 1.1-2.06 1.65 1.65 0 0 0-1.1 2.06ZM92.48 597.61a1.65 1.65 0 1 0 1.1-2.07 1.65 1.65 0 0 0-1.1 2.07ZM186.75 578.86a1.66 1.66 0 1 0 1.1-2.06 1.65 1.65 0 0 0-1.1 2.06ZM166.35 585.08a1.66 1.66 0 1 0 1.1-2.06 1.65 1.65 0 0 0-1.1 2.06ZM146 591.31a1.66 1.66 0 0 0 3.17-1 1.67 1.67 0 0 0-2.07-1.1 1.65 1.65 0 0 0-1.1 2.1ZM125.55 597.53a1.66 1.66 0 1 0 1.1-2.07 1.66 1.66 0 0 0-1.1 2.07ZM105.15 603.75a1.65 1.65 0 1 0 1.1-2.07 1.65 1.65 0 0 0-1.1 2.07ZM179.59 591.6a1.66 1.66 0 1 0 1.1-2.06 1.67 1.67 0 0 0-1.1 2.06ZM159.19 597.83a1.66 1.66 0 1 0 1.1-2.07 1.66 1.66 0 0 0-1.1 2.07ZM138.79 604.05a1.66 1.66 0 1 0 1.1-2.06 1.65 1.65 0 0 0-1.1 2.06ZM118.39 610.28a1.66 1.66 0 1 0 1.1-2.07 1.67 1.67 0 0 0-1.1 2.07ZM98 616.49a1.66 1.66 0 1 0 1.1-2.06 1.66 1.66 0 0 0-1.1 2.06ZM192.08 596.55a1.65 1.65 0 1 0 1.1-2.07 1.65 1.65 0 0 0-1.1 2.07ZM171.68 602.77a1.65 1.65 0 1 0 3.16-1 1.65 1.65 0 1 0-3.16 1ZM151.27 609a1.66 1.66 0 1 0 1.1-2.07 1.66 1.66 0 0 0-1.1 2.07ZM130.87 615.21a1.66 1.66 0 1 0 1.1-2.06 1.66 1.66 0 0 0-1.1 2.06ZM110.47 621.44a1.66 1.66 0 1 0 1.1-2.07 1.67 1.67 0 0 0-1.1 2.07ZM184.92 609.29a1.65 1.65 0 1 0 1.1-2.06 1.64 1.64 0 0 0-1.1 2.06ZM164.52 615.52a1.65 1.65 0 1 0 1.1-2.07 1.66 1.66 0 0 0-1.1 2.07ZM144.11 621.74a1.66 1.66 0 1 0 1.11-2.07 1.66 1.66 0 0 0-1.11 2.07ZM123.72 628a1.65 1.65 0 1 0 3.16-1 1.65 1.65 0 1 0-3.16 1ZM103.31 634.18a1.66 1.66 0 1 0 1.1-2.07 1.66 1.66 0 0 0-1.1 2.07ZM197.59 615.44a1.66 1.66 0 1 0 1.1-2.07 1.66 1.66 0 0 0-1.1 2.07ZM177.19 621.66a1.65 1.65 0 1 0 1.1-2.07 1.64 1.64 0 0 0-1.1 2.07ZM156.78 627.88a1.66 1.66 0 1 0 1.11-2.06 1.66 1.66 0 0 0-1.11 2.06ZM136.38 634.1a1.66 1.66 0 1 0 1.11-2.06 1.66 1.66 0 0 0-1.11 2.06ZM116 640.33a1.66 1.66 0 1 0 1.1-2.07 1.67 1.67 0 0 0-1.1 2.07ZM190.43 628.18a1.65 1.65 0 1 0 1.1-2.06 1.65 1.65 0 0 0-1.1 2.06ZM170 634.41a1.65 1.65 0 1 0 1.1-2.07 1.66 1.66 0 0 0-1.1 2.07ZM149.62 640.63a1.66 1.66 0 1 0 1.11-2.07 1.66 1.66 0 0 0-1.11 2.07ZM129.23 646.85a1.65 1.65 0 1 0 1.1-2.07 1.66 1.66 0 0 0-1.1 2.07ZM108.82 653.07a1.66 1.66 0 1 0 1.1-2.07 1.66 1.66 0 0 0-1.1 2.07ZM203.1 634.33a1.66 1.66 0 0 0 3.17-1 1.66 1.66 0 0 0-3.17 1ZM182.7 640.55a1.66 1.66 0 0 0 3.17-1 1.66 1.66 0 1 0-3.17 1ZM162.3 646.77a1.66 1.66 0 1 0 1.1-2.06 1.64 1.64 0 0 0-1.1 2.06ZM141.9 653a1.65 1.65 0 1 0 1.1-2.06 1.64 1.64 0 0 0-1.1 2.06ZM121.5 659.22a1.65 1.65 0 1 0 1.1-2.07 1.64 1.64 0 0 0-1.1 2.07ZM195.94 647.07A1.66 1.66 0 1 0 197 645a1.65 1.65 0 0 0-1.06 2.07ZM175.54 653.29a1.66 1.66 0 1 0 1.1-2.06 1.64 1.64 0 0 0-1.1 2.06ZM155.14 659.52a1.65 1.65 0 1 0 1.1-2.07 1.66 1.66 0 0 0-1.1 2.07ZM208.61 653.22a1.66 1.66 0 1 0 1.1-2.07 1.67 1.67 0 0 0-1.1 2.07ZM188.21 659.44a1.66 1.66 0 1 0 1.1-2.07 1.66 1.66 0 0 0-1.1 2.07Z"/></g><path class="cls-7" d="m65.23 428.69 26.35 3.85 6.41.93 37.09 5.41 29.32-22.64 4.71-3.63 21.83-16.86-28.37-4.22-7.01-1.04-35.28-5.26-27.53 21.74-5.53 4.36-21.99 17.36z"/><path class="cls-19" d="m56.83 428.96 29.74 4.34 7.22 1.06 41.86 6.1 33.09-25.55 5.32-4.09 24.63-19.03-32.02-4.77-7.91-1.17-39.81-5.93-31.07 24.53-6.24 4.92-24.81 19.59z"/><path class="cls-14" d="m141.94 464.48-6.29-24.02 33.09-25.55h.02l5.3-4.09 24.63-19.03 5.09 19.4-61.84 53.29z"/><path class="cls-14" d="m141.94 464.48-79.85-15.42-5.26-20.1 6.82 1 15.94 2.32 6.98 1.02 7.22 1.06 6.59.96 6.11.89 29.16 4.25 6.29 24.02z"/><path class="cls-10" d="m197.31 419.64-53.48 52.15-72.16-18.41-.67-2.4 70.94 13.5 54.7-47.51.67 2.67z"/><path class="cls-20" d="m95.88 397.9 74.91 11.64 62.96 239.61-9.03 6.98-61.38-237.56-78.26-12.07 10.8-8.6z"/><path class="cls-20" d="m147.3 383.89 12.4 2.2-60.06 49.17 61.86 236.42-10.2-1.6-62.59-239.03 58.59-47.16z"/><path class="cls-20" d="M143.81 408.11c35.54-10.42 30.1-34.74 30.1-34.74l-19-9.56s8.83 25.25-13.9 40.79Z"/><path class="cls-20" d="M123.74 408.11s4.26-46.56 30-52.62l20.21 17.88s-36.43 5.47-42.22 34.59Z"/><path class="cls-21" d="M132 376.76a48.82 48.82 0 0 1 9.13-13.88l1.43 1c6.26 4.5 13.05 8.47 19.62 12.68a60.19 60.19 0 0 0-16.38 9c-4.66-2.8-9.24-5.77-13.8-8.8Z"/><path class="cls-20" d="M114.24 416.45c-36.21 7.83-43-16.14-43-16.14l12.17-17.5s4.3 26.41 31.7 29.19Z"/><path class="cls-20" d="M131.85 406.86S105.87 368 80.4 375l-9.21 25.35s34.62-12.6 53.61 10.21Z"/><path class="cls-21" d="M109.61 383.27A49 49 0 0 0 95 375.43l-.77 1.62c-3.38 6.95-7.44 13.66-11.23 20.5a60 60 0 0 1 18.68.07c2.78-4.72 5.39-9.51 7.93-14.35Z"/><path class="cls-20" d="M144.43 411.29a3.28 3.28 0 0 0 .21-5.25c-3.4-2.83-9.25-6.7-15-5.86-11.89 1.74-18.39 7.62-17.08 14.79a3.24 3.24 0 0 0 3.07 2.62c5.45.25 19.11.15 28.8-6.3Z"/><path class="cls-10" d="m167.84 448.45 56.88 207.68-54.35-210.15-2.53 2.47zM111.29 464.32l50.21 207.36-54.77-209.31 4.33 1.1.23.85z"/><path class="cls-14" d="m358.46 429.82-69.42 236.31 6.27-.72 4.85-.57 3.85-.44 7.95-.93 10.82-1.26 3.91-.45.8-.09 4.26-.49 2.79-.33 7.27-.85 8.58-.99 4.69-.54 4.07-.47 69.42-236.31-27.4 3.18-5.9.68-36.81 4.27z"/><path class="cls-2" d="m358.46 429.82-69.42 236.31 6.27-.72 4.85-.57 3.85-.44 7.95-.93 10.82-1.26 3.91-.45.8-.09 4.26-.49 2.79-.33 7.27-.85 8.58-.99 4.69-.54 4.07-.47 69.42-236.31-27.4 3.18-5.9.68-36.81 4.27z"/><g style="clip-path:url(#clip-path-4)"><path class="cls-16" d="M448.63 416.81a1.66 1.66 0 1 0 2-1.2 1.65 1.65 0 0 0-2 1.2ZM427.94 411.62a1.65 1.65 0 1 0 2-1.21 1.66 1.66 0 0 0-2 1.21ZM407.25 406.42a1.66 1.66 0 0 0 1.21 2 1.65 1.65 0 0 0 .8-3.21 1.66 1.66 0 0 0-2.01 1.21ZM386.57 401.23a1.64 1.64 0 0 0 1.2 2 1.65 1.65 0 1 0-1.2-2ZM365.88 396a1.65 1.65 0 0 0 3.21.8 1.65 1.65 0 1 0-3.21-.8ZM435.92 424a1.65 1.65 0 1 0 2-1.2 1.65 1.65 0 0 0-2 1.2ZM415.23 418.84a1.66 1.66 0 1 0 2-1.2 1.66 1.66 0 0 0-2 1.2ZM394.55 413.65a1.65 1.65 0 1 0 3.2.81 1.65 1.65 0 1 0-3.2-.81ZM373.86 408.46a1.65 1.65 0 1 0 2-1.21 1.66 1.66 0 0 0-2 1.21ZM353.17 403.26a1.66 1.66 0 1 0 2-1.2 1.66 1.66 0 0 0-2 1.2ZM443.6 435.84a1.66 1.66 0 1 0 2-1.21 1.66 1.66 0 0 0-2 1.21ZM422.92 430.64a1.66 1.66 0 1 0 2-1.2 1.64 1.64 0 0 0-2 1.2ZM402.23 425.45a1.66 1.66 0 1 0 2-1.2 1.64 1.64 0 0 0-2 1.2ZM381.54 420.26a1.65 1.65 0 1 0 3.21.8 1.65 1.65 0 0 0-3.21-.8ZM360.85 415.06a1.66 1.66 0 0 0 1.21 2 1.66 1.66 0 0 0 .81-3.21 1.67 1.67 0 0 0-2.02 1.21ZM430.9 443.06a1.66 1.66 0 1 0 2-1.2 1.64 1.64 0 0 0-2 1.2ZM410.21 437.87a1.66 1.66 0 1 0 2-1.2 1.66 1.66 0 0 0-2 1.2ZM389.52 432.67a1.66 1.66 0 1 0 2-1.19 1.66 1.66 0 0 0-2 1.19ZM368.84 427.48a1.66 1.66 0 1 0 2-1.2 1.64 1.64 0 0 0-2 1.2ZM348.15 422.29a1.65 1.65 0 1 0 2-1.2 1.65 1.65 0 0 0-2 1.2ZM438.58 454.86a1.66 1.66 0 1 0 2-1.2 1.66 1.66 0 0 0-2 1.2ZM417.89 449.67a1.66 1.66 0 1 0 2-1.2 1.66 1.66 0 0 0-2 1.2ZM397.21 444.47a1.66 1.66 0 1 0 2-1.19 1.65 1.65 0 0 0-2 1.19ZM376.52 439.28a1.66 1.66 0 1 0 2-1.2 1.66 1.66 0 0 0-2 1.2ZM355.83 434.09a1.65 1.65 0 1 0 3.21.8 1.65 1.65 0 0 0-3.21-.8ZM425.88 462.09a1.65 1.65 0 1 0 2-1.2 1.63 1.63 0 0 0-2 1.2ZM405.19 456.89a1.66 1.66 0 0 0 3.21.81 1.66 1.66 0 1 0-3.21-.81ZM384.5 451.7a1.66 1.66 0 1 0 2-1.2 1.65 1.65 0 0 0-2 1.2ZM363.81 446.51a1.65 1.65 0 1 0 3.21.8 1.65 1.65 0 0 0-3.21-.8ZM343.13 441.31a1.66 1.66 0 0 0 3.21.81 1.66 1.66 0 1 0-3.21-.81ZM433.56 473.89a1.65 1.65 0 1 0 2-1.2 1.64 1.64 0 0 0-2 1.2ZM412.87 468.7a1.65 1.65 0 1 0 2-1.21 1.65 1.65 0 0 0-2 1.21ZM392.19 463.5a1.64 1.64 0 0 0 1.2 2 1.65 1.65 0 1 0-1.2-2ZM371.5 458.31a1.65 1.65 0 1 0 2-1.2 1.64 1.64 0 0 0-2 1.2ZM350.81 453.11a1.66 1.66 0 1 0 2-1.2 1.66 1.66 0 0 0-2 1.2ZM420.85 481.12a1.65 1.65 0 1 0 2-1.21 1.65 1.65 0 0 0-2 1.21ZM400.16 475.92a1.66 1.66 0 1 0 2-1.2 1.66 1.66 0 0 0-2 1.2ZM379.48 470.73a1.65 1.65 0 1 0 2-1.2 1.65 1.65 0 0 0-2 1.2ZM358.79 465.54a1.65 1.65 0 1 0 2-1.21 1.65 1.65 0 0 0-2 1.21ZM338.1 460.34a1.66 1.66 0 1 0 2-1.2 1.66 1.66 0 0 0-2 1.2ZM428.54 492.92a1.65 1.65 0 0 0 3.21.8 1.65 1.65 0 1 0-3.21-.8ZM407.85 487.72a1.66 1.66 0 1 0 2-1.2 1.66 1.66 0 0 0-2 1.2ZM387.16 482.53a1.65 1.65 0 1 0 2-1.21 1.67 1.67 0 0 0-2 1.21ZM366.48 477.33a1.66 1.66 0 1 0 2-1.2 1.65 1.65 0 0 0-2 1.2ZM345.79 472.14a1.66 1.66 0 1 0 2-1.2 1.65 1.65 0 0 0-2 1.2ZM415.83 500.14a1.66 1.66 0 1 0 2-1.2 1.65 1.65 0 0 0-2 1.2ZM395.14 495a1.65 1.65 0 1 0 2-1.21 1.67 1.67 0 0 0-2 1.21ZM374.46 489.75a1.66 1.66 0 0 0 3.21.81 1.66 1.66 0 0 0-3.21-.81ZM353.77 484.56a1.66 1.66 0 1 0 2-1.2 1.65 1.65 0 0 0-2 1.2ZM333.08 479.37a1.65 1.65 0 1 0 3.21.8 1.65 1.65 0 0 0-3.21-.8ZM424 510.81a1.64 1.64 0 0 0 1.2 2 1.66 1.66 0 1 0-1.2-2ZM403.29 505.62a1.65 1.65 0 1 0 2-1.2 1.65 1.65 0 0 0-2 1.2ZM382.6 500.42a1.67 1.67 0 0 0 1.21 2 1.66 1.66 0 1 0-1.21-2ZM361.91 495.23a1.66 1.66 0 1 0 2-1.2 1.66 1.66 0 0 0-2 1.2ZM341.23 490a1.65 1.65 0 1 0 2-1.2 1.64 1.64 0 0 0-2 1.2ZM411.27 518a1.66 1.66 0 1 0 2-1.2 1.66 1.66 0 0 0-2 1.2ZM390.58 512.85a1.65 1.65 0 1 0 2-1.21 1.65 1.65 0 0 0-2 1.21ZM369.89 507.65a1.66 1.66 0 1 0 2-1.2 1.66 1.66 0 0 0-2 1.2ZM349.21 502.46a1.65 1.65 0 1 0 3.21.8 1.65 1.65 0 1 0-3.21-.8ZM328.52 497.26a1.66 1.66 0 1 0 2-1.2 1.66 1.66 0 0 0-2 1.2ZM419 529.84a1.66 1.66 0 0 0 3.21.81 1.66 1.66 0 1 0-3.21-.81ZM398.27 524.65a1.65 1.65 0 0 0 3.21.8 1.65 1.65 0 1 0-3.21-.8ZM377.58 519.45a1.66 1.66 0 1 0 2-1.2 1.66 1.66 0 0 0-2 1.2ZM356.89 514.26a1.66 1.66 0 1 0 2-1.21 1.66 1.66 0 0 0-2 1.21ZM336.21 509.06a1.65 1.65 0 1 0 2-1.2 1.64 1.64 0 0 0-2 1.2ZM406.24 537.07a1.66 1.66 0 1 0 2-1.21 1.65 1.65 0 0 0-2 1.21ZM385.56 531.87a1.66 1.66 0 1 0 2-1.2 1.66 1.66 0 0 0-2 1.2ZM364.87 526.68a1.65 1.65 0 1 0 2-1.2 1.65 1.65 0 0 0-2 1.2ZM344.18 521.49a1.65 1.65 0 1 0 2-1.21 1.65 1.65 0 0 0-2 1.21ZM323.5 516.29a1.65 1.65 0 1 0 2-1.2 1.66 1.66 0 0 0-2 1.2ZM413.93 548.86a1.66 1.66 0 1 0 2-1.2 1.66 1.66 0 0 0-2 1.2ZM393.24 543.67a1.66 1.66 0 1 0 2-1.2 1.64 1.64 0 0 0-2 1.2ZM372.56 538.47a1.66 1.66 0 0 0 3.21.81 1.66 1.66 0 1 0-3.21-.81ZM351.87 533.28a1.66 1.66 0 1 0 2-1.2 1.66 1.66 0 0 0-2 1.2ZM331.19 528.09a1.65 1.65 0 1 0 2-1.2 1.65 1.65 0 0 0-2 1.2ZM401.22 556.09a1.66 1.66 0 1 0 2-1.2 1.66 1.66 0 0 0-2 1.2ZM380.54 550.9a1.65 1.65 0 1 0 2-1.21 1.66 1.66 0 0 0-2 1.21ZM359.85 545.71a1.65 1.65 0 1 0 2-1.21 1.65 1.65 0 0 0-2 1.21ZM339.16 540.51a1.66 1.66 0 0 0 1.21 2 1.65 1.65 0 1 0-1.21-2ZM318.48 535.32a1.65 1.65 0 1 0 2-1.21 1.65 1.65 0 0 0-2 1.21ZM408.91 567.89a1.66 1.66 0 1 0 2-1.2 1.66 1.66 0 0 0-2 1.2ZM388.22 562.7a1.65 1.65 0 1 0 2-1.21 1.65 1.65 0 0 0-2 1.21ZM367.54 557.5a1.64 1.64 0 0 0 1.2 2 1.65 1.65 0 1 0-1.2-2ZM346.85 552.31a1.65 1.65 0 1 0 2-1.2 1.64 1.64 0 0 0-2 1.2ZM326.16 547.12a1.65 1.65 0 1 0 2-1.21 1.65 1.65 0 0 0-2 1.21ZM396.2 575.12a1.65 1.65 0 1 0 2-1.21 1.67 1.67 0 0 0-2 1.21ZM375.51 569.92a1.66 1.66 0 1 0 2-1.2 1.66 1.66 0 0 0-2 1.2ZM354.83 564.73a1.65 1.65 0 1 0 2-1.2 1.66 1.66 0 0 0-2 1.2ZM334.14 559.53a1.66 1.66 0 1 0 2-1.2 1.65 1.65 0 0 0-2 1.2ZM313.45 554.34a1.66 1.66 0 1 0 2-1.2 1.66 1.66 0 0 0-2 1.2ZM403.89 586.92a1.65 1.65 0 1 0 2-1.21 1.65 1.65 0 0 0-2 1.21ZM383.2 581.72a1.66 1.66 0 1 0 2-1.2 1.66 1.66 0 0 0-2 1.2ZM362.51 576.53a1.65 1.65 0 1 0 3.21.8 1.65 1.65 0 0 0-3.21-.8ZM341.82 571.33a1.66 1.66 0 1 0 2-1.2 1.66 1.66 0 0 0-2 1.2ZM321.14 566.14a1.66 1.66 0 1 0 2-1.2 1.64 1.64 0 0 0-2 1.2ZM391.18 594.14a1.66 1.66 0 1 0 2-1.2 1.66 1.66 0 0 0-2 1.2ZM370.49 589a1.65 1.65 0 1 0 3.21.8 1.65 1.65 0 0 0-3.21-.8ZM349.8 583.76a1.66 1.66 0 1 0 2-1.21 1.65 1.65 0 0 0-2 1.21ZM329.12 578.56a1.66 1.66 0 1 0 2-1.2 1.65 1.65 0 0 0-2 1.2ZM308.43 573.37a1.65 1.65 0 1 0 2-1.21 1.66 1.66 0 0 0-2 1.21ZM399.33 604.81a1.65 1.65 0 1 0 2-1.2 1.65 1.65 0 0 0-2 1.2ZM378.64 599.62a1.66 1.66 0 1 0 2-1.2 1.65 1.65 0 0 0-2 1.2ZM358 594.43a1.65 1.65 0 1 0 2-1.21 1.66 1.66 0 0 0-2 1.21ZM337.26 589.23a1.66 1.66 0 1 0 2-1.2 1.66 1.66 0 0 0-2 1.2ZM316.58 584a1.65 1.65 0 1 0 2-1.2 1.65 1.65 0 0 0-2 1.2ZM386.61 612a1.66 1.66 0 1 0 2-1.2 1.67 1.67 0 0 0-2 1.2ZM365.93 606.85a1.65 1.65 0 1 0 2-1.21 1.65 1.65 0 0 0-2 1.21ZM345.24 601.65a1.66 1.66 0 1 0 2-1.2 1.66 1.66 0 0 0-2 1.2ZM324.55 596.46a1.66 1.66 0 1 0 2-1.2 1.66 1.66 0 0 0-2 1.2ZM303.87 591.26a1.66 1.66 0 0 0 3.21.81 1.66 1.66 0 0 0-3.21-.81ZM394.3 623.84a1.65 1.65 0 1 0 3.21.8 1.65 1.65 0 0 0-3.21-.8ZM373.61 618.65a1.66 1.66 0 1 0 2-1.21 1.67 1.67 0 0 0-2 1.21ZM352.93 613.45a1.66 1.66 0 1 0 2-1.2 1.64 1.64 0 0 0-2 1.2ZM332.24 608.26a1.66 1.66 0 1 0 2-1.21 1.66 1.66 0 0 0-2 1.21ZM311.55 603.07a1.66 1.66 0 1 0 2-1.21 1.65 1.65 0 0 0-2 1.21ZM381.6 631.06a1.66 1.66 0 1 0 3.21.81 1.66 1.66 0 0 0-3.21-.81ZM360.91 625.87a1.66 1.66 0 1 0 2-1.2 1.64 1.64 0 0 0-2 1.2ZM340.22 620.68a1.65 1.65 0 1 0 2-1.2 1.65 1.65 0 0 0-2 1.2ZM319.53 615.48a1.66 1.66 0 1 0 2-1.2 1.66 1.66 0 0 0-2 1.2ZM298.85 610.29a1.66 1.66 0 1 0 2-1.2 1.64 1.64 0 0 0-2 1.2ZM389.28 642.86a1.66 1.66 0 1 0 2-1.2 1.65 1.65 0 0 0-2 1.2ZM368.59 637.67a1.66 1.66 0 1 0 2-1.2 1.66 1.66 0 0 0-2 1.2ZM347.91 632.48a1.66 1.66 0 1 0 2-1.2 1.65 1.65 0 0 0-2 1.2ZM327.22 627.28a1.66 1.66 0 0 0 3.21.81 1.66 1.66 0 1 0-3.21-.81ZM306.53 622.09a1.66 1.66 0 1 0 2-1.2 1.66 1.66 0 0 0-2 1.2ZM376.57 650.09a1.66 1.66 0 1 0 2-1.2 1.66 1.66 0 0 0-2 1.2ZM355.88 644.9a1.66 1.66 0 1 0 2-1.21 1.67 1.67 0 0 0-2 1.21ZM335.2 639.7a1.66 1.66 0 1 0 2-1.2 1.64 1.64 0 0 0-2 1.2ZM314.51 634.51a1.66 1.66 0 1 0 2-1.2 1.66 1.66 0 0 0-2 1.2ZM293.82 629.32a1.65 1.65 0 1 0 2-1.21 1.66 1.66 0 0 0-2 1.21ZM363.57 656.7a1.65 1.65 0 1 0 2-1.21 1.65 1.65 0 0 0-2 1.21ZM342.89 651.5a1.65 1.65 0 1 0 2-1.2 1.64 1.64 0 0 0-2 1.2ZM322.2 646.31a1.66 1.66 0 1 0 2-1.2 1.65 1.65 0 0 0-2 1.2ZM301.51 641.12a1.65 1.65 0 1 0 2-1.21 1.65 1.65 0 0 0-2 1.21ZM330.17 658.73a1.66 1.66 0 1 0 2-1.2 1.66 1.66 0 0 0-2 1.2ZM309.49 653.54a1.66 1.66 0 1 0 2-1.2 1.65 1.65 0 0 0-2 1.2ZM288.8 648.34a1.66 1.66 0 1 0 2-1.2 1.66 1.66 0 0 0-2 1.2ZM296.49 660.14a1.66 1.66 0 0 0 3.21.81 1.66 1.66 0 1 0-3.21-.81Z"/></g><path class="cls-17" d="m303.88 385.06-69.42 236.31 20.6 16.88 3.95 3.25 14.86 12.19 9.64 7.9 5.53 4.54 69.42-236.31-20.19-16.56-4.23-3.47-4.56-3.74-5-4.11-4.84-3.96-11.04-9.05-4.72-3.87z"/><path class="cls-2" d="m303.88 385.06-69.42 236.31 20.6 16.88 3.95 3.25 14.86 12.19 9.64 7.9 5.53 4.54 69.42-236.31-20.19-16.56-4.23-3.47-4.56-3.74-5-4.11-4.84-3.96-11.04-9.05-4.72-3.87z"/><g style="clip-path:url(#clip-path-5)"><path class="cls-16" d="M375.27 406.29a1.65 1.65 0 1 0 2-1.2 1.64 1.64 0 0 0-2 1.2ZM354.58 401.09a1.66 1.66 0 1 0 2-1.2 1.65 1.65 0 0 0-2 1.2ZM333.89 395.9a1.66 1.66 0 1 0 2-1.2 1.66 1.66 0 0 0-2 1.2ZM313.21 390.71a1.65 1.65 0 1 0 2-1.21 1.64 1.64 0 0 0-2 1.21ZM292.52 385.51a1.66 1.66 0 1 0 2-1.2 1.66 1.66 0 0 0-2 1.2ZM362.56 413.51a1.66 1.66 0 1 0 2-1.2 1.65 1.65 0 0 0-2 1.2ZM341.87 408.32a1.66 1.66 0 1 0 2-1.2 1.66 1.66 0 0 0-2 1.2ZM321.18 403.13a1.65 1.65 0 1 0 2-1.21 1.65 1.65 0 0 0-2 1.21ZM300.5 397.93a1.66 1.66 0 1 0 2-1.2 1.65 1.65 0 0 0-2 1.2ZM279.81 392.74a1.66 1.66 0 1 0 2-1.21 1.66 1.66 0 0 0-2 1.21ZM370.24 425.31a1.66 1.66 0 1 0 2-1.2 1.66 1.66 0 0 0-2 1.2ZM349.55 420.12a1.66 1.66 0 1 0 2-1.2 1.67 1.67 0 0 0-2 1.2ZM328.87 414.92a1.66 1.66 0 1 0 2-1.2 1.65 1.65 0 0 0-2 1.2ZM308.18 409.73a1.66 1.66 0 1 0 2-1.2 1.66 1.66 0 0 0-2 1.2ZM287.49 404.54a1.66 1.66 0 1 0 2-1.2 1.66 1.66 0 0 0-2 1.2ZM357.54 432.54a1.65 1.65 0 1 0 2-1.2 1.63 1.63 0 0 0-2 1.2ZM336.85 427.35a1.65 1.65 0 0 0 3.21.8 1.65 1.65 0 1 0-3.21-.8ZM316.16 422.15a1.66 1.66 0 1 0 2-1.2 1.66 1.66 0 0 0-2 1.2ZM295.48 417a1.65 1.65 0 1 0 2-1.2 1.65 1.65 0 0 0-2 1.2ZM274.79 411.76a1.66 1.66 0 1 0 2-1.2 1.65 1.65 0 0 0-2 1.2ZM365.22 444.34a1.65 1.65 0 1 0 2-1.2 1.65 1.65 0 0 0-2 1.2ZM344.53 439.14a1.66 1.66 0 1 0 2-1.2 1.67 1.67 0 0 0-2 1.2ZM323.85 434a1.66 1.66 0 1 0 2-1.2 1.65 1.65 0 0 0-2 1.2ZM303.16 428.76a1.65 1.65 0 1 0 2-1.2 1.64 1.64 0 0 0-2 1.2ZM282.47 423.56a1.66 1.66 0 1 0 2-1.2 1.66 1.66 0 0 0-2 1.2ZM352.51 451.56a1.66 1.66 0 1 0 2-1.19 1.66 1.66 0 0 0-2 1.19ZM331.82 446.37a1.66 1.66 0 1 0 2-1.2 1.66 1.66 0 0 0-2 1.2ZM311.14 441.18a1.65 1.65 0 1 0 2-1.2 1.65 1.65 0 0 0-2 1.2ZM290.45 436a1.65 1.65 0 1 0 2-1.21 1.65 1.65 0 0 0-2 1.21ZM269.76 430.79a1.66 1.66 0 1 0 2-1.2 1.66 1.66 0 0 0-2 1.2ZM360.2 463.37a1.65 1.65 0 0 0 3.21.8 1.65 1.65 0 1 0-3.21-.8ZM339.51 458.17a1.66 1.66 0 1 0 2-1.2 1.66 1.66 0 0 0-2 1.2ZM318.83 453a1.65 1.65 0 0 0 1.2 2 1.66 1.66 0 1 0-1.2-2ZM298.13 447.78a1.66 1.66 0 1 0 2-1.2 1.66 1.66 0 0 0-2 1.2ZM277.45 442.59a1.66 1.66 0 1 0 2-1.2 1.66 1.66 0 0 0-2 1.2ZM347.49 470.59a1.66 1.66 0 1 0 2-1.2 1.65 1.65 0 0 0-2 1.2ZM326.8 465.4a1.66 1.66 0 1 0 2-1.2 1.65 1.65 0 0 0-2 1.2ZM306.12 460.2a1.66 1.66 0 1 0 2-1.2 1.65 1.65 0 0 0-2 1.2ZM285.43 455a1.66 1.66 0 1 0 2-1.2 1.65 1.65 0 0 0-2 1.2ZM264.74 449.82a1.65 1.65 0 1 0 2-1.21 1.67 1.67 0 0 0-2 1.21ZM355.17 482.39a1.66 1.66 0 1 0 2-1.2 1.66 1.66 0 0 0-2 1.2ZM334.49 477.19a1.67 1.67 0 0 0 1.2 2 1.66 1.66 0 1 0-1.2-2ZM313.8 472a1.66 1.66 0 1 0 2-1.2 1.66 1.66 0 0 0-2 1.2ZM293.11 466.81a1.66 1.66 0 1 0 2-1.21 1.67 1.67 0 0 0-2 1.21ZM272.43 461.62a1.65 1.65 0 0 0 3.21.8 1.65 1.65 0 1 0-3.21-.8ZM342.47 489.62a1.65 1.65 0 1 0 2-1.21 1.66 1.66 0 0 0-2 1.21ZM321.78 484.42a1.66 1.66 0 1 0 2-1.2 1.66 1.66 0 0 0-2 1.2ZM301.1 479.23a1.64 1.64 0 0 0 1.2 2 1.66 1.66 0 1 0-1.2-2ZM280.41 474a1.65 1.65 0 1 0 2-1.21 1.65 1.65 0 0 0-2 1.21ZM259.72 468.84a1.66 1.66 0 1 0 2-1.2 1.65 1.65 0 0 0-2 1.2ZM350.61 500.29a1.66 1.66 0 1 0 2-1.2 1.66 1.66 0 0 0-2 1.2ZM329.93 495.09a1.66 1.66 0 1 0 3.21.81 1.66 1.66 0 0 0-3.21-.81ZM309.24 489.9a1.66 1.66 0 1 0 2-1.2 1.66 1.66 0 0 0-2 1.2ZM288.55 484.71a1.65 1.65 0 1 0 2-1.2 1.65 1.65 0 0 0-2 1.2ZM267.87 479.51a1.64 1.64 0 0 0 1.2 2 1.66 1.66 0 1 0-1.2-2ZM337.9 507.52a1.66 1.66 0 1 0 2-1.21 1.66 1.66 0 0 0-2 1.21ZM317.22 502.32a1.66 1.66 0 1 0 2-1.2 1.65 1.65 0 0 0-2 1.2ZM296.53 497.13a1.65 1.65 0 1 0 2-1.21 1.66 1.66 0 0 0-2 1.21ZM275.85 491.93a1.66 1.66 0 1 0 2-1.2 1.65 1.65 0 0 0-2 1.2ZM255.16 486.74a1.66 1.66 0 0 0 3.21.81 1.66 1.66 0 1 0-3.21-.81ZM345.59 519.31a1.66 1.66 0 1 0 2-1.2 1.66 1.66 0 0 0-2 1.2ZM324.9 514.12a1.66 1.66 0 1 0 2-1.2 1.66 1.66 0 0 0-2 1.2ZM304.22 508.92a1.66 1.66 0 1 0 2-1.2 1.66 1.66 0 0 0-2 1.2ZM283.53 503.73a1.66 1.66 0 1 0 2-1.2 1.66 1.66 0 0 0-2 1.2ZM262.85 498.54a1.65 1.65 0 1 0 2-1.2 1.63 1.63 0 0 0-2 1.2ZM332.88 526.54a1.66 1.66 0 1 0 2-1.2 1.66 1.66 0 0 0-2 1.2ZM312.2 521.35a1.65 1.65 0 0 0 3.21.8 1.65 1.65 0 1 0-3.21-.8ZM291.51 516.15a1.66 1.66 0 1 0 2-1.2 1.66 1.66 0 0 0-2 1.2ZM270.83 511a1.65 1.65 0 1 0 2-1.2 1.65 1.65 0 0 0-2 1.2ZM250.14 505.76a1.66 1.66 0 1 0 2-1.2 1.66 1.66 0 0 0-2 1.2ZM340.57 538.34a1.65 1.65 0 1 0 3.21.8 1.65 1.65 0 1 0-3.21-.8ZM319.88 533.15a1.65 1.65 0 1 0 2-1.2 1.65 1.65 0 0 0-2 1.2ZM299.2 528a1.66 1.66 0 0 0 3.21.81 1.66 1.66 0 0 0-1.21-2 1.65 1.65 0 0 0-2 1.19ZM278.51 522.76a1.66 1.66 0 1 0 2-1.2 1.66 1.66 0 0 0-2 1.2ZM257.82 517.57a1.65 1.65 0 1 0 2-1.2 1.65 1.65 0 0 0-2 1.2ZM327.86 545.56a1.66 1.66 0 0 0 1.21 2 1.64 1.64 0 0 0 2-1.2 1.66 1.66 0 1 0-3.21-.81ZM307.17 540.37a1.66 1.66 0 1 0 2-1.2 1.66 1.66 0 0 0-2 1.2ZM286.49 535.18a1.65 1.65 0 1 0 2-1.2 1.65 1.65 0 0 0-2 1.2ZM265.8 530a1.65 1.65 0 1 0 2-1.21 1.66 1.66 0 0 0-2 1.21ZM245.11 524.79a1.66 1.66 0 1 0 2-1.2 1.66 1.66 0 0 0-2 1.2ZM335.55 557.36a1.66 1.66 0 1 0 2-1.2 1.65 1.65 0 0 0-2 1.2ZM314.86 552.17a1.66 1.66 0 1 0 2-1.2 1.65 1.65 0 0 0-2 1.2ZM294.17 547a1.66 1.66 0 1 0 2-1.21 1.66 1.66 0 0 0-2 1.21ZM273.49 541.78a1.66 1.66 0 0 0 3.21.81 1.66 1.66 0 0 0-3.21-.81ZM252.8 536.59a1.66 1.66 0 1 0 2-1.2 1.66 1.66 0 0 0-2 1.2ZM322.84 564.59a1.66 1.66 0 1 0 2-1.2 1.65 1.65 0 0 0-2 1.2ZM302.15 559.4a1.65 1.65 0 1 0 3.21.8 1.65 1.65 0 0 0-3.21-.8ZM281.47 554.2a1.65 1.65 0 1 0 2-1.2 1.64 1.64 0 0 0-2 1.2ZM260.78 549a1.66 1.66 0 1 0 2-1.2 1.65 1.65 0 0 0-2 1.2ZM240.09 543.82a1.65 1.65 0 1 0 2-1.2 1.65 1.65 0 0 0-2 1.2ZM330.52 576.39a1.66 1.66 0 1 0 2-1.2 1.66 1.66 0 0 0-2 1.2ZM309.84 571.2a1.65 1.65 0 1 0 2-1.2 1.66 1.66 0 0 0-2 1.2ZM289.15 566a1.65 1.65 0 1 0 2-1.21 1.65 1.65 0 0 0-2 1.21ZM268.46 560.81a1.66 1.66 0 1 0 2-1.2 1.66 1.66 0 0 0-2 1.2ZM247.78 555.62a1.65 1.65 0 0 0 3.21.8 1.65 1.65 0 1 0-3.21-.8ZM317.82 583.61a1.66 1.66 0 1 0 2-1.2 1.66 1.66 0 0 0-2 1.2ZM297.13 578.42a1.66 1.66 0 1 0 2-1.2 1.66 1.66 0 0 0-2 1.2ZM276.44 573.23a1.66 1.66 0 1 0 2-1.2 1.66 1.66 0 0 0-2 1.2ZM255.75 568a1.66 1.66 0 1 0 2-1.21 1.67 1.67 0 0 0-2 1.21ZM235.07 562.84a1.66 1.66 0 0 0 3.21.81 1.66 1.66 0 1 0-3.21-.81ZM326 594.29a1.65 1.65 0 1 0 3.21.8 1.65 1.65 0 0 0-3.21-.8ZM305.28 589.1a1.65 1.65 0 0 0 3.21.8 1.65 1.65 0 1 0-3.21-.8ZM284.59 583.9a1.66 1.66 0 1 0 2-1.2 1.65 1.65 0 0 0-2 1.2ZM263.9 578.71a1.65 1.65 0 1 0 2-1.21 1.66 1.66 0 0 0-2 1.21ZM243.22 573.52a1.65 1.65 0 1 0 2-1.21 1.65 1.65 0 0 0-2 1.21ZM313.25 601.52a1.66 1.66 0 1 0 2-1.21 1.65 1.65 0 0 0-2 1.21ZM292.57 596.32a1.66 1.66 0 1 0 2-1.2 1.65 1.65 0 0 0-2 1.2ZM271.88 591.13a1.65 1.65 0 1 0 3.21.8 1.65 1.65 0 0 0-3.21-.8ZM251.19 585.94a1.66 1.66 0 1 0 2-1.21 1.67 1.67 0 0 0-2 1.21ZM230.51 580.74a1.64 1.64 0 0 0 1.2 2 1.65 1.65 0 1 0-1.2-2ZM320.94 613.31a1.66 1.66 0 1 0 2-1.2 1.66 1.66 0 0 0-2 1.2ZM300.25 608.12a1.66 1.66 0 1 0 2-1.2 1.66 1.66 0 0 0-2 1.2ZM279.57 602.92a1.66 1.66 0 1 0 2-1.19 1.64 1.64 0 0 0-2 1.19ZM258.88 597.73a1.66 1.66 0 1 0 2-1.2 1.66 1.66 0 0 0-2 1.2ZM238.19 592.54a1.66 1.66 0 1 0 2-1.2 1.66 1.66 0 0 0-2 1.2ZM308.23 620.54a1.66 1.66 0 1 0 2-1.2 1.66 1.66 0 0 0-2 1.2ZM287.55 615.35a1.65 1.65 0 1 0 2-1.21 1.65 1.65 0 0 0-2 1.21ZM266.86 610.15a1.66 1.66 0 1 0 2-1.2 1.65 1.65 0 0 0-2 1.2ZM246.17 605a1.66 1.66 0 0 0 3.21.81 1.66 1.66 0 1 0-3.21-.81ZM225.48 599.77a1.66 1.66 0 1 0 2-1.21 1.66 1.66 0 0 0-2 1.21ZM315.92 632.34a1.65 1.65 0 1 0 2-1.2 1.65 1.65 0 0 0-2 1.2ZM295.23 627.15a1.65 1.65 0 1 0 2-1.2 1.65 1.65 0 0 0-2 1.2ZM274.54 622a1.66 1.66 0 0 0 1.21 2 1.65 1.65 0 0 0 .8-3.21 1.66 1.66 0 0 0-2.01 1.21ZM253.86 616.76a1.66 1.66 0 1 0 2-1.2 1.64 1.64 0 0 0-2 1.2ZM233.17 611.57a1.65 1.65 0 1 0 2-1.2 1.65 1.65 0 0 0-2 1.2ZM303.21 639.57a1.65 1.65 0 1 0 2-1.21 1.65 1.65 0 0 0-2 1.21ZM282.52 634.37a1.66 1.66 0 1 0 2-1.2 1.66 1.66 0 0 0-2 1.2ZM261.84 629.18a1.64 1.64 0 0 0 1.2 2 1.66 1.66 0 1 0-1.2-2ZM241.15 624a1.65 1.65 0 1 0 2-1.2 1.65 1.65 0 0 0-2 1.2ZM220.46 618.79a1.66 1.66 0 0 0 3.21.81 1.66 1.66 0 0 0-3.21-.81ZM310.9 651.37a1.65 1.65 0 1 0 2-1.2 1.65 1.65 0 0 0-2 1.2ZM290.21 646.17a1.66 1.66 0 1 0 2-1.2 1.66 1.66 0 0 0-2 1.2ZM269.52 641a1.65 1.65 0 1 0 3.21.8 1.65 1.65 0 0 0-3.21-.8ZM248.84 635.78a1.65 1.65 0 1 0 2-1.2 1.64 1.64 0 0 0-2 1.2ZM228.15 630.59a1.66 1.66 0 1 0 2-1.2 1.65 1.65 0 0 0-2 1.2ZM298.19 658.59a1.66 1.66 0 1 0 2-1.2 1.65 1.65 0 0 0-2 1.2ZM277.5 653.4a1.66 1.66 0 1 0 2-1.2 1.66 1.66 0 0 0-2 1.2ZM256.81 648.21a1.65 1.65 0 1 0 2-1.21 1.65 1.65 0 0 0-2 1.21ZM236.13 643a1.66 1.66 0 1 0 2-1.2 1.64 1.64 0 0 0-2 1.2ZM215.44 637.82a1.66 1.66 0 1 0 2-1.2 1.65 1.65 0 0 0-2 1.2ZM264.5 660a1.66 1.66 0 1 0 2-1.2 1.66 1.66 0 0 0-2 1.2ZM243.81 654.81a1.66 1.66 0 1 0 2-1.2 1.66 1.66 0 0 0-2 1.2ZM223.13 649.62a1.66 1.66 0 0 0 3.21.81 1.67 1.67 0 0 0-1.2-2 1.66 1.66 0 0 0-2.01 1.19ZM210.42 656.85a1.65 1.65 0 0 0 3.21.8 1.65 1.65 0 1 0-3.21-.8Z"/></g><path class="cls-7" d="m303.88 385.06 20.6 16.88 5 4.11 28.98 23.77 36.81-4.27 5.9-.68 27.4-3.18-22.13-18.26-5.47-4.51-27.51-22.7-34.8 4.42-6.98.89-27.8 3.53z"/><path class="cls-19" d="m296.54 380.96 23.24 19.05 5.65 4.63 32.71 26.83 41.53-4.83 6.66-.76 30.92-3.59-24.97-20.6-6.17-5.09-31.05-25.62-39.27 4.99-7.88 1-31.37 3.99z"/><path class="cls-14" d="m351.14 455.28 7-23.81 41.53-4.83.01.01 6.65-.77 30.92-3.59-5.65 19.24-80.46 13.75zM351.14 455.28l-60.45-54.39 5.85-19.93 5.33 4.36 12.46 10.22 5.45 4.47 5.65 4.63 5.14 4.22 4.78 3.93 22.79 18.68-7 23.81z"/><path class="cls-10" d="m421.71 445.43-72.72 17.09-52.32-52.99.66-2.4 53.81 48.15 71.37-12.47-.8 2.62z"/><path class="cls-20" d="m346.03 374.49 58.16 48.61-69.65 237.75-11.34 1.32L393.15 427l-60.82-50.72 13.7-1.79z"/><path class="cls-20" d="m397.3 389.01 9.49 8.29-76.82 11.13-68.96 234.45-7.91-6.63 69.68-237.06 74.52-10.18z"/><path class="cls-20" d="M381.81 408c35.83 9.4 43.71-14.23 43.71-14.23l-11.39-18s-5.45 26.18-32.95 27.77Z"/><path class="cls-20" d="M364.63 397.61s27.66-37.69 52.8-29.63l8.09 25.75s-34-14.11-54 7.84Z"/><path class="cls-21" d="M387.88 375a48.65 48.65 0 0 1 15-7.19l.69 1.64c3 7.08 6.81 14 10.27 21a60.52 60.52 0 0 0-18.67-.75c-2.56-4.83-4.95-9.7-7.29-14.7Z"/><path class="cls-20" d="M352.18 399.85c-35.05-12-28.55-36-28.55-36l19.45-8.71s-9.94 24.83 12.1 41.35Z"/><path class="cls-20" d="M372.22 400.72S370 354 344.6 346.85l-21 17s36.15 7.06 40.66 36.4Z"/><path class="cls-21" d="M365.33 369a48.77 48.77 0 0 0-8.5-14.27l-1.49 1c-6.44 4.21-13.4 7.88-20.15 11.8a60 60 0 0 1 16 9.69c4.81-2.59 9.47-5.35 14.14-8.22Z"/><path class="cls-20" d="M380.71 411a3.29 3.29 0 0 0 2.89-4.38c-1.46-4.18-4.47-10.52-9.8-12.75-11.08-4.64-19.68-2.95-22.26 3.87a3.26 3.26 0 0 0 1.28 3.83c4.5 3 16.26 9.96 27.89 9.43Z"/><path class="cls-10" d="M381.59 454.91 323.2 662.17l61.84-208.07-3.45.81zM324.96 439.34l-63.95 203.54 61.06-207.56 3.13 3.17-.24.85z"/><path class="cls-24" d="m93.52 491.7 8.06 50.39 23.58-11.96 1.74-.89 17.53-8.89-8.05-50.39-17.5 8.87-2.45 1.26h-.01l-.29.14-7.48 3.8-15.13 7.67z"/><path class="cls-6" d="m46.03 484.4 8.05 50.39 10.76 1.65 3.47.53 3.37.53 1.93.29 10.73 1.65 3.47.53 13.77 2.12-8.06-50.39-13.96-2.14-3.46-.54-8.9-1.37h-.01l-.16-.02-2.95-.46h-.01l-.5-.07-15.8-2.43-1.74-.27z"/><path class="cls-25" d="m46.03 484.4 1.73.27h.01l15.8 2.43.5.07h.01l2.95.46.16.02h.01l8.9 1.37 3.46.54 3.5.53 3.47.53 6.99 1.08 15.13-7.67 7.48-3.8.3-.14 2.45-1.25v-.01l17.5-8.87-6.63-1.03-3.45-.54-15.88-2.48-1.63-.26-1.87-.29-1.24-.2-17.34-2.71-15.8 8.2-2.77 1.43-19.72 10.23-4.02 2.09z"/><path class="cls-25" d="m34.66 480.28 2.13.33h.01l19.46 2.99.61.09h.02l3.62.56.2.03h.01l10.96 1.69 4.26.66 4.31.65 4.27.66 8.62 1.32 18.62-9.44 9.21-4.67.36-.19 3.03-1.52v-.01l21.53-10.93-8.16-1.28-4.24-.66-19.55-3.05h-.01l-2.01-.32-2.3-.36-1.52-.24-21.35-3.34-19.45 10.1-3.41 1.76-24.27 12.6h-.01l-4.95 2.57z"/><path class="cls-26" d="m46.03 484.4 1.73.27h.01l62.65-18.76-3.5-.55-56.87 16.95-4.02 2.09zM63.57 487.1l3.46.53 62.72-18.7-3.45-.54-62.73 18.71zM83.06 490.09l3.47.53 22.12-6.59 7.48-3.8-33.07 9.86z"/><path class="cls-27" d="m46.76 488.95.24 1.5 13.06-3.89-3.46-.53-9.84 2.92zM48.1 497.37l.24 1.49 31.22-9.3-3.46-.54-28 8.35zM49.45 505.78l.24 1.5 44.22-13.19-.24-1.5-44.22 13.19zM50.79 514.2l.24 1.49 44.22-13.19-.24-1.5-44.22 13.2zM52.14 522.61l.24 1.49 44.21-13.19-.23-1.49-44.22 13.19zM53.48 531.02l.24 1.49 44.22-13.18-.24-1.5-44.22 13.19zM64.84 536.44l3.47.53 30.97-9.23-.23-1.49-34.21 10.19zM84.34 539.44l3.47.53 12.82-3.82-.24-1.49-16.05 4.78zM137.08 474.52l.24 1.5-13.63.37 3.13-1.59 10.26-.28zM138.43 482.94l.23 1.49-32.56.88 3.13-1.58 29.2-.79z"/><path class="cls-27" d="m139.77 491.35.24 1.5-46.13 1.25-.23-1.5 46.12-1.25zM141.12 499.76l.23 1.5-46.12 1.24-.24-1.49 46.13-1.25zM142.46 508.18l.24 1.49-46.13 1.25-.23-1.49 46.12-1.25zM143.8 516.59l.24 1.49-46.12 1.25-.24-1.49 46.12-1.25zM134.7 525.28l-3.13 1.59-32.31.87-.24-1.49 35.68-.97zM117.1 534.21l-3.12 1.58-13.37.37-.24-1.5 16.73-.45z"/><path class="cls-28" d="M74.32 488.36A25 25 0 0 0 91.24 495a24 24 0 0 0 20.28-11.75l26.25-3.64.4 1.47-42.65 22.71-47.95-9.51-.39-2.16Z"/><path class="cls-24" d="m95.01 501-1.87-11.74 18.62-9.44 9.21-4.67.36-.19 3.03-1.53 21.53-10.93 1.69 12.07L95.01 501z"/><path class="cls-6" d="m36.27 490.3-1.61-10.02 2.14.33 19.46 2.99.61.09h.01l3.63.56.2.03h.01l10.96 1.69 4.26.66 17.2 2.63L95.01 501l-58.74-10.7z"/><path class="cls-20" d="M122.22 531.63c-.81-4.77-3.32-20.5-7.77-48.7l-27.36-4.7-33.83-7.53 10.06-5.23L92.85 471l28.72 4.92.47 2.9c2.47 15.68 7 40.71 8.27 48.74Z"/><path class="cls-20" d="M68.46 537c-1.38-8.83-5.46-34-7.81-48.43l-.46-2.86 49.45-29.28 13.23 2.25-53.7 31.48c4.24 26.27 6.89 42.62 7.72 48.07Z"/><path class="cls-29" d="M97.7 474.54c18-8.14 17.1-21.78 17.1-21.78l-10.8-3.64a27 27 0 0 1-8.46 23.29Z"/><path class="cls-20" d="M90.86 474.83s-1.19-24.92 11.94-30l12 7.95S96 458.35 95 474.16Z"/><path class="cls-21" d="M92.91 457.65a26.16 26.16 0 0 1 3.79-8l.84.45c3.64 1.91 7.52 3.51 11.31 5.24a32.24 32.24 0 0 0-8 6c-2.67-1.19-5.31-2.42-7.94-3.69Z"/><path class="cls-29" d="M83.06 476.29C63.41 474.17 64 460.89 64 460.89l9.1-6.82s-2.25 14.1 11.16 20.1Z"/><path class="cls-20" d="M93.6 474.4s-6.6-24.06-20.71-24.81L64 460.89s19.65-.57 25.44 14.17Z"/><path class="cls-21" d="M86.3 458.71a26.22 26.22 0 0 0-6.11-6.43l-.66.68c-2.86 3-6 5.68-9.1 8.51a32.2 32.2 0 0 1 9.45 3.18c2.19-1.93 4.31-3.92 6.42-5.94Z"/><path class="cls-29" d="M119.83 460.9s2.83 4.77-1.19 8.28S98.55 475 98.55 475l-1.29-.87s20.15-6 18.24-12.15Z"/><path class="cls-20" d="M94.59 473.59s11.87-12.13 18.81-16a2.64 2.64 0 0 1 3 .34l3.42 3s-18.42 8.31-22.57 13.27Z"/><path class="cls-21" d="M102.25 466.27c1.81-1.64 3.77-3.34 5.69-4.86q1.89 1.69 3.73 3.45c-2.39 1.23-5 2.63-7.37 4.05-.67-.91-1.36-1.77-2.05-2.64Z"/><path class="cls-29" d="M62.8 470s-1.21 5.41 3.7 7.49 20.92-.7 20.92-.7l1-1.22s-21 .57-21.11-5.86Z"/><path class="cls-20" d="M90.73 474.21s-15.06-7.83-22.86-9.33a2.63 2.63 0 0 0-2.75 1.26L62.8 470s20.09 2.15 25.57 5.57Z"/><path class="cls-21" d="M82.55 470.47c-.38.89-.78 1.76-1.18 2.64-2.44-.61-5.15-1.13-7.73-1.57.3-.72.61-1.43.94-2.12l1-2.13c2.39.93 4.83 2 7 3a1.42 1.42 0 0 0-.03.18Z"/><path class="cls-20" d="M98.55 475s-3.46-4.57-7.23-4.39c-5.67.27-8.73 3-7.62 6.62 0 .04 9.3 2 14.85-2.23Z"/><path class="cls-14" d="m472.63 537.61 62.43 238.25 4.99-3.85 3.87-2.99 3.07-2.37 6.33-4.89 8.62-6.66 3.11-2.4.65-.5 3.4-2.61 2.21-1.72 5.8-4.48 6.83-5.27 3.74-2.89 3.25-2.51-62.43-238.25-21.84 16.86-4.69 3.63h-.01l-29.33 22.65z"/><path class="cls-2" d="m472.63 537.61 62.43 238.25 4.99-3.85 3.87-2.99 3.07-2.37 6.33-4.89 8.62-6.66 3.11-2.4.65-.5 3.4-2.61 2.21-1.72 5.8-4.48 6.83-5.27 3.74-2.89 3.25-2.51-62.43-238.25-21.84 16.86-4.69 3.63h-.01l-29.33 22.65z"/><g style="clip-path:url(#clip-path-6)"><path class="cls-16" d="M482 498.61a1.66 1.66 0 1 0 1.1-2.06 1.66 1.66 0 0 0-1.1 2.06ZM461.56 504.84a1.65 1.65 0 1 0 1.1-2.07 1.65 1.65 0 0 0-1.1 2.07ZM474.8 511.36a1.66 1.66 0 1 0 1.1-2.06 1.65 1.65 0 0 0-1.1 2.06ZM454.4 517.58a1.66 1.66 0 1 0 1.1-2.06 1.65 1.65 0 0 0-1.1 2.06ZM487.47 517.51a1.66 1.66 0 1 0 1.1-2.07 1.67 1.67 0 0 0-1.1 2.07ZM467.07 523.73a1.66 1.66 0 1 0 1.1-2.07 1.67 1.67 0 0 0-1.1 2.07ZM480.31 530.25a1.66 1.66 0 1 0 1.1-2.07 1.67 1.67 0 0 0-1.1 2.07ZM459.91 536.48a1.66 1.66 0 1 0 1.1-2.07 1.67 1.67 0 0 0-1.1 2.07ZM493 536.4a1.66 1.66 0 1 0 1.1-2.07 1.67 1.67 0 0 0-1.1 2.07ZM472.58 542.62a1.66 1.66 0 1 0 3.17-1 1.66 1.66 0 0 0-3.17 1ZM485.83 549.14a1.65 1.65 0 1 0 1.09-2.06 1.64 1.64 0 0 0-1.09 2.06ZM465.42 555.36a1.66 1.66 0 1 0 1.11-2.06 1.66 1.66 0 0 0-1.11 2.06ZM478.09 561.51a1.66 1.66 0 1 0 1.1-2.07 1.66 1.66 0 0 0-1.1 2.07ZM491.34 568a1.65 1.65 0 1 0 1.1-2.06 1.64 1.64 0 0 0-1.1 2.06ZM470.93 574.25a1.66 1.66 0 1 0 3.17-1 1.64 1.64 0 0 0-2.06-1.1 1.66 1.66 0 0 0-1.11 2.1ZM483.61 580.4a1.65 1.65 0 1 0 1.09-2.07 1.66 1.66 0 0 0-1.09 2.07ZM476.45 593.15a1.65 1.65 0 1 0 1.1-2.07 1.66 1.66 0 0 0-1.1 2.07ZM488.93 598.08A1.65 1.65 0 1 0 490 596a1.65 1.65 0 0 0-1.07 2.08ZM481.77 610.83a1.66 1.66 0 1 0 1.1-2.07 1.65 1.65 0 0 0-1.1 2.07ZM494.44 617a1.66 1.66 0 1 0 1.1-2.06 1.65 1.65 0 0 0-1.1 2.06ZM487.28 629.72a1.66 1.66 0 1 0 1.1-2.06 1.66 1.66 0 0 0-1.1 2.06ZM492.79 648.61a1.66 1.66 0 1 0 1.11-2.07 1.66 1.66 0 0 0-1.11 2.07Z"/></g><path class="cls-17" d="m402.79 527.41 62.42 238.26 26.35 3.84 5.06.74 19.02 2.78 12.33 1.79 7.09 1.04-62.43-238.25-25.83-3.78-5.42-.79-5.84-.85-6.4-.93-6.19-.91-14.13-2.05-6.03-.89z"/><path class="cls-2" d="m402.79 527.41 62.42 238.26 26.35 3.84 5.06.74 19.02 2.78 12.33 1.79 7.09 1.04-62.43-238.25-25.83-3.78-5.42-.79-5.84-.85-6.4-.93-6.19-.91-14.13-2.05-6.03-.89z"/><g style="clip-path:url(#clip-path-7)"><path class="cls-16" d="M474.89 508.78a1.65 1.65 0 1 0 1.1-2.07 1.66 1.66 0 0 0-1.1 2.07ZM454.49 515a1.65 1.65 0 1 0 1.1-2.07 1.65 1.65 0 0 0-1.1 2.07ZM434.09 521.22a1.65 1.65 0 1 0 3.16-1 1.65 1.65 0 1 0-3.16 1ZM413.68 527.44a1.66 1.66 0 1 0 1.11-2.06 1.66 1.66 0 0 0-1.11 2.06ZM393.28 533.66a1.66 1.66 0 1 0 1.1-2.06 1.66 1.66 0 0 0-1.1 2.06ZM467.73 521.52a1.65 1.65 0 1 0 1.1-2.06 1.64 1.64 0 0 0-1.1 2.06ZM447.33 527.75a1.65 1.65 0 1 0 1.1-2.07 1.66 1.66 0 0 0-1.1 2.07ZM426.92 534a1.66 1.66 0 1 0 1.08-2.1 1.66 1.66 0 0 0-1.08 2.1ZM406.52 540.19a1.66 1.66 0 1 0 1.11-2.07 1.66 1.66 0 0 0-1.11 2.07ZM386.12 546.41a1.66 1.66 0 1 0 1.1-2.07 1.66 1.66 0 0 0-1.1 2.07ZM480.4 527.67a1.66 1.66 0 1 0 1.1-2.07 1.66 1.66 0 0 0-1.1 2.07ZM460 533.89a1.66 1.66 0 1 0 1.1-2.07 1.67 1.67 0 0 0-1.1 2.07ZM439.6 540.11a1.65 1.65 0 1 0 1.1-2.06 1.64 1.64 0 0 0-1.1 2.06ZM419.19 546.33a1.66 1.66 0 0 0 2.07 1.1 1.64 1.64 0 0 0 1.1-2.06 1.66 1.66 0 1 0-3.17 1ZM398.79 552.56a1.66 1.66 0 0 0 2.07 1.09 1.65 1.65 0 1 0-1-3.16 1.66 1.66 0 0 0-1.07 2.07ZM473.24 540.41a1.66 1.66 0 1 0 1.1-2.06 1.65 1.65 0 0 0-1.1 2.06ZM452.84 546.64a1.65 1.65 0 1 0 3.16-1 1.65 1.65 0 1 0-3.16 1ZM432.43 552.86a1.68 1.68 0 0 0 2.07 1.1 1.66 1.66 0 1 0-2.07-1.1ZM412 559.08a1.65 1.65 0 1 0 1.1-2.07 1.65 1.65 0 0 0-1.1 2.07ZM391.64 565.3a1.65 1.65 0 1 0 1.09-2.06 1.64 1.64 0 0 0-1.09 2.06ZM485.91 546.56a1.66 1.66 0 1 0 1.1-2.07 1.67 1.67 0 0 0-1.1 2.07ZM465.51 552.78a1.66 1.66 0 1 0 1.1-2.07 1.66 1.66 0 0 0-1.1 2.07ZM445.11 559a1.66 1.66 0 1 0 1.1-2.07 1.65 1.65 0 0 0-1.1 2.07ZM424.71 565.22a1.65 1.65 0 1 0 1.1-2.06 1.64 1.64 0 0 0-1.1 2.06ZM404.31 571.44a1.65 1.65 0 1 0 1.1-2.06 1.65 1.65 0 0 0-1.1 2.06ZM478.75 559.3a1.66 1.66 0 1 0 1.1-2.06 1.65 1.65 0 0 0-1.1 2.06ZM458.35 565.53a1.66 1.66 0 1 0 1.1-2.07 1.67 1.67 0 0 0-1.1 2.07ZM438 571.75a1.66 1.66 0 1 0 1.1-2.07 1.66 1.66 0 0 0-1.1 2.07ZM417.55 578a1.65 1.65 0 1 0 1.1-2.07 1.65 1.65 0 0 0-1.1 2.07ZM397.14 584.19a1.66 1.66 0 1 0 1.11-2.06 1.66 1.66 0 0 0-1.11 2.06ZM491.42 565.45a1.66 1.66 0 1 0 1.1-2.07 1.67 1.67 0 0 0-1.1 2.07ZM471 571.67a1.66 1.66 0 1 0 1.1-2.07 1.66 1.66 0 0 0-1.1 2.07ZM450.62 577.89a1.66 1.66 0 1 0 1.1-2.07 1.65 1.65 0 0 0-1.1 2.07ZM430.22 584.11a1.65 1.65 0 1 0 1.1-2.06 1.64 1.64 0 0 0-1.1 2.06ZM409.82 590.33a1.65 1.65 0 1 0 1.1-2.06 1.64 1.64 0 0 0-1.1 2.06ZM484.27 578.19a1.65 1.65 0 1 0 1.09-2.06 1.64 1.64 0 0 0-1.09 2.06ZM463.86 584.42a1.66 1.66 0 1 0 1.1-2.07 1.67 1.67 0 0 0-1.1 2.07ZM443.46 590.64a1.65 1.65 0 1 0 1.1-2.07 1.66 1.66 0 0 0-1.1 2.07ZM423.06 596.86a1.66 1.66 0 1 0 1.1-2.06 1.65 1.65 0 0 0-1.1 2.06ZM402.66 603.08a1.66 1.66 0 1 0 1.1-2.06 1.65 1.65 0 0 0-1.1 2.06ZM476.53 590.56a1.66 1.66 0 1 0 1.1-2.07 1.67 1.67 0 0 0-1.1 2.07ZM456.13 596.78a1.66 1.66 0 1 0 1.1-2.07 1.66 1.66 0 0 0-1.1 2.07ZM435.73 603a1.66 1.66 0 0 0 3.17-1 1.68 1.68 0 0 0-2.07-1.11 1.66 1.66 0 0 0-1.1 2.11ZM415.33 609.23a1.66 1.66 0 1 0 1.1-2.07 1.65 1.65 0 0 0-1.1 2.07ZM489.78 597.08a1.65 1.65 0 1 0 1.1-2.06 1.64 1.64 0 0 0-1.1 2.06ZM469.37 603.3a1.66 1.66 0 1 0 1.1-2.06 1.66 1.66 0 0 0-1.1 2.06ZM449 609.52a1.66 1.66 0 1 0 1.1-2.06 1.66 1.66 0 0 0-1.1 2.06ZM428.57 615.75a1.66 1.66 0 1 0 1.1-2.07 1.66 1.66 0 0 0-1.1 2.07ZM408.17 622a1.66 1.66 0 1 0 1.1-2.06 1.65 1.65 0 0 0-1.1 2.06ZM481.86 608.24a1.66 1.66 0 0 0 3.17-1 1.66 1.66 0 0 0-2.07-1.1 1.64 1.64 0 0 0-1.1 2.1ZM461.46 614.47a1.65 1.65 0 1 0 1.09-2.07 1.66 1.66 0 0 0-1.09 2.07ZM441.06 620.69a1.65 1.65 0 1 0 1.1-2.07 1.65 1.65 0 0 0-1.1 2.07ZM420.65 626.91a1.66 1.66 0 1 0 1.1-2.07 1.66 1.66 0 0 0-1.1 2.07ZM474.7 621a1.65 1.65 0 1 0 1.1-2.07 1.65 1.65 0 0 0-1.1 2.07ZM454.3 627.21a1.65 1.65 0 1 0 1.1-2.06 1.65 1.65 0 0 0-1.1 2.06ZM433.9 633.44a1.65 1.65 0 1 0 1.1-2.07 1.66 1.66 0 0 0-1.1 2.07ZM413.49 639.66a1.66 1.66 0 1 0 1.1-2.07 1.67 1.67 0 0 0-1.1 2.07ZM487.37 627.13a1.66 1.66 0 1 0 1.1-2.06 1.65 1.65 0 0 0-1.1 2.06ZM467 633.35a1.65 1.65 0 1 0 1.1-2.06 1.66 1.66 0 0 0-1.1 2.06ZM446.56 639.58a1.66 1.66 0 0 0 2.07 1.1 1.66 1.66 0 0 0-1-3.17 1.66 1.66 0 0 0-1.07 2.07ZM426.17 645.8a1.65 1.65 0 1 0 1.1-2.07 1.64 1.64 0 0 0-1.1 2.07ZM480.21 639.88a1.66 1.66 0 0 0 3.17-1 1.66 1.66 0 1 0-3.17 1ZM459.81 646.1a1.65 1.65 0 1 0 1.1-2.06 1.64 1.64 0 0 0-1.1 2.06ZM439.41 652.32a1.65 1.65 0 1 0 1.1-2.06 1.65 1.65 0 0 0-1.1 2.06ZM419 658.55a1.67 1.67 0 0 0 2.07 1.1 1.66 1.66 0 1 0-2.07-1.1ZM492.88 646a1.66 1.66 0 1 0 1.12-2 1.65 1.65 0 0 0-1.12 2ZM472.48 652.24a1.66 1.66 0 1 0 1.1-2.06 1.66 1.66 0 0 0-1.1 2.06ZM452.08 658.47a1.65 1.65 0 1 0 1.1-2.07 1.66 1.66 0 0 0-1.1 2.07ZM485.72 658.77a1.66 1.66 0 1 0 1.1-2.07 1.66 1.66 0 0 0-1.1 2.07Z"/></g><path class="cls-7" d="m402.79 527.41 26.35 3.85 6.4.93 37.09 5.42 29.33-22.65 4.7-3.63 21.84-16.86-28.38-4.22-7.01-1.04-35.28-5.26-27.53 21.74-5.53 4.36-21.98 17.36z"/><path class="cls-19" d="m394.38 527.69 29.74 4.33 7.23 1.06 41.85 6.11 33.1-25.56 5.31-4.09 24.64-19.03-32.02-4.76-7.92-1.18-39.81-5.93-31.07 24.53-6.23 4.92-24.82 19.6z"/><path class="cls-14" d="m479.49 563.2-6.29-24.01 33.1-25.56h.01l5.3-4.09 24.64-19.03 5.08 19.4-61.84 53.29z"/><path class="cls-14" d="m479.49 563.2-79.84-15.42-5.27-20.09 6.82.99 15.94 2.32 6.98 1.02 7.23 1.06 6.58.96 6.12.89 29.15 4.26 6.29 24.01z"/><path class="cls-10" d="m534.87 518.36-53.49 52.15-72.15-18.41-.67-2.4 70.93 13.5 54.71-47.5.67 2.66z"/><path class="cls-20" d="m433.44 496.62 74.91 11.64 62.96 239.61-9.04 6.98-61.38-237.55-78.26-12.08 10.81-8.6z"/><path class="cls-20" d="m484.85 482.61 12.41 2.2-60.07 49.17 61.87 236.42-10.21-1.6-62.59-239.03 58.59-47.16z"/><path class="cls-20" d="M481.36 506.83c35.54-10.42 30.1-34.74 30.1-34.74l-19-9.56s8.83 25.25-13.9 40.79Z"/><path class="cls-20" d="M461.3 506.83s4.26-46.56 29.95-52.62l20.21 17.88s-36.43 5.47-42.22 34.59Z"/><path class="cls-21" d="M469.56 475.48a48.82 48.82 0 0 1 9.13-13.88l1.44 1c6.25 4.5 13 8.47 19.62 12.68a60 60 0 0 0-16.38 9c-4.67-2.8-9.26-5.77-13.81-8.8Z"/><path class="cls-20" d="M451.79 515.17C415.59 523 408.74 499 408.74 499l12.17-17.5s4.3 26.41 31.7 29.19Z"/><path class="cls-20" d="M469.4 505.58s-26-38.86-51.45-31.9L408.74 499s34.62-12.6 53.61 10.21Z"/><path class="cls-21" d="M447.17 482a48.69 48.69 0 0 0-14.65-7.83c-.26.53-.51 1.07-.77 1.61-3.34 6.93-7.41 13.66-11.18 20.5a60.36 60.36 0 0 1 18.69.07c2.74-4.73 5.36-9.52 7.91-14.35Z"/><path class="cls-20" d="M482 510a3.28 3.28 0 0 0 .21-5.25c-3.4-2.82-9.25-6.7-15-5.86-11.89 1.74-18.39 7.62-17.08 14.79a3.24 3.24 0 0 0 3.08 2.62c5.42.27 19.08.16 28.79-6.3Z"/><path class="cls-10" d="m448.84 563.04 50.22 207.36-54.77-209.31 4.33 1.1.22.85z"/><path class="cls-24" d="m431.08 590.42 8.05 50.39 23.58-11.95 1.75-.9 17.52-8.89-8.05-50.38-17.5 8.87-2.45 1.25h-.01l-.28.14-7.49 3.8-15.12 7.67z"/><path class="cls-6" d="m383.58 583.12 8.06 50.39 10.76 1.65 3.46.54 3.38.52 1.93.29 10.73 1.65 3.46.53 13.77 2.12-8.05-50.39-13.97-2.14-3.46-.53-8.9-1.37-.17-.03-2.95-.46-.51-.07-15.8-2.43-1.74-.27z"/><path class="cls-25" d="m383.58 583.12 1.73.27h.01l15.8 2.43.51.07h.01l2.94.46.17.03 8.9 1.37 3.46.53 3.5.53 3.47.53 7 1.08 15.12-7.67 7.49-3.8.29-.14 2.46-1.25h-.01l17.5-8.87-6.63-1.04-3.45-.54-15.88-2.48-1.63-.26-1.87-.29-1.24-.2-17.34-2.71-15.8 8.2-2.77 1.44-19.71 10.22h-.01l-4.02 2.09z"/><path class="cls-25" d="m372.22 579 2.12.33h.01l19.46 2.99.62.09h.01l3.63.56.2.03 10.96 1.69 4.27.66 4.31.65 4.26.66 8.62 1.33 18.62-9.45 9.21-4.67.36-.18 3.03-1.53v-.01l21.53-10.92-8.16-1.29-4.24-.66-19.55-3.05h-.01l-2-.32-2.3-.36-1.53-.23-21.34-3.35-19.46 10.1-3.41 1.76-24.27 12.6h-.01l-4.94 2.57z"/><path class="cls-26" d="m383.58 583.12 1.73.27h.01l62.65-18.76-3.5-.55-56.86 16.95h-.01l-4.02 2.09zM401.12 585.82l3.46.53 62.72-18.7-3.45-.54-62.73 18.71zM420.61 588.81l3.47.53 22.12-6.59 7.49-3.8-33.08 9.86z"/><path class="cls-27" d="m384.31 587.68.24 1.49 13.07-3.89-3.47-.53-9.84 2.93zM385.66 596.09l.23 1.5 31.22-9.31-3.46-.53-27.99 8.34zM387 604.5l.24 1.5 44.22-13.19-.24-1.5L387 604.5zM388.35 612.92l.24 1.49 44.21-13.19-.24-1.49-44.21 13.19zM389.69 621.33l.24 1.49 44.22-13.19-.24-1.49-44.22 13.19zM391.04 629.74l.23 1.49 44.22-13.18-.24-1.5-44.21 13.19zM402.4 635.16l3.46.54 30.98-9.24-.24-1.49-34.2 10.19zM421.9 638.16l3.46.53 12.82-3.82-.24-1.49-16.04 4.78zM474.63 573.25l.24 1.49-13.62.37 3.12-1.59 10.26-.27zM475.98 581.66l.24 1.49-32.56.89 3.12-1.59 29.2-.79z"/><path class="cls-27" d="m477.32 590.07.24 1.5-46.12 1.25-.24-1.5 46.12-1.25zM478.67 598.48l.24 1.5-46.13 1.25-.24-1.5 46.13-1.25zM480.01 606.9l.24 1.49-46.12 1.25-.24-1.49 46.12-1.25zM481.36 615.31l.23 1.49-46.12 1.25-.24-1.49 46.13-1.25zM472.25 624l-3.13 1.59-32.31.87-.24-1.49 35.68-.97zM454.66 632.93l-3.13 1.58-13.37.37-.24-1.5 16.74-.45z"/><path class="cls-28" d="M411.88 587.08a25 25 0 0 0 16.91 6.6 24 24 0 0 0 20.29-11.75l26.25-3.64.39 1.47-42.65 22.75-47.95-9.51-.39-2.16Z"/><path class="cls-24" d="m432.56 599.73-1.87-11.74 18.62-9.45 9.21-4.67.36-.18 3.03-1.54 21.53-10.92 1.69 12.06-52.57 26.44z"/><path class="cls-6" d="m373.82 589.02-1.6-10.02 2.13.33 19.46 2.99.62.09h.01l3.63.56.2.03 10.96 1.69 4.27.66 17.19 2.64 1.87 11.74-58.74-10.71z"/><path class="cls-20" d="M459.77 630.35c-.81-4.76-3.32-20.5-7.77-48.7L424.64 577l-33.83-7.53 10.07-5.23 29.53 5.47 28.73 4.92.46 2.9c2.47 15.68 6.95 40.71 8.28 48.74Z"/><path class="cls-20" d="M406 635.68c-1.37-8.79-5.47-33.94-7.81-48.39l-.46-2.86 49.45-29.28 13.24 2.26-53.71 31.47c4.25 26.27 6.89 42.62 7.72 48.07Z"/><path class="cls-29" d="M435.26 573.26c18-8.14 17.1-21.78 17.1-21.78l-10.78-3.64a27 27 0 0 1-8.45 23.29Z"/><path class="cls-20" d="M428.41 573.56s-1.19-24.93 11.94-30l12 8s-18.86 5.59-19.76 21.4Z"/><path class="cls-21" d="M430.46 556.37a26.18 26.18 0 0 1 3.8-8l.84.45c3.63 1.91 7.52 3.51 11.3 5.25a31.94 31.94 0 0 0-8 6c-2.67-1.2-5.31-2.43-7.94-3.7Z"/><path class="cls-29" d="M420.62 575c-19.66-2.11-19.1-15.4-19.1-15.4l9.1-6.82s-2.25 14.1 11.16 20.11Z"/><path class="cls-20" d="M431.15 573.12s-6.63-24-20.7-24.81l-8.93 11.3s19.65-.61 25.48 14.18Z"/><path class="cls-21" d="M423.85 557.43a26 26 0 0 0-6.11-6.43c-.22.23-.43.46-.65.68-2.86 3-6.06 5.69-9.11 8.51a32.2 32.2 0 0 1 9.45 3.18c2.19-1.93 4.32-3.92 6.42-5.94Z"/><path class="cls-29" d="M457.38 559.63s2.84 4.76-1.18 8.27-20.1 5.86-20.1 5.86l-1.28-.87s20.14-6 18.23-12.15Z"/><path class="cls-20" d="M432.15 572.31s11.86-12.12 18.8-16a2.67 2.67 0 0 1 3 .34l3.42 3s-18.42 8.3-22.56 13.26Z"/><path class="cls-21" d="M439.8 565c1.81-1.64 3.78-3.34 5.69-4.86 1.26 1.13 2.51 2.28 3.73 3.45-2.39 1.23-5 2.64-7.36 4-.68-.85-1.36-1.73-2.06-2.59Z"/><path class="cls-29" d="M400.35 568.74s-1.21 5.41 3.7 7.49 20.92-.7 20.92-.7l.95-1.22s-21 .57-21.11-5.86Z"/><path class="cls-20" d="M428.28 572.93s-15.06-7.82-22.85-9.33a2.65 2.65 0 0 0-2.76 1.26l-2.32 3.88s20.09 2.15 25.57 5.57Z"/><path class="cls-21" d="M420.1 569.19c-.37.89-.77 1.76-1.17 2.64-2.45-.6-5.16-1.13-7.74-1.57.31-.71.62-1.43.94-2.12s.68-1.42 1-2.13c2.39.93 4.83 2 7.05 3Z"/><path class="cls-20" d="M436.1 573.76s-3.45-4.57-7.22-4.39c-5.68.27-8.73 3-7.62 6.62 0 .01 9.33 2.01 14.84-2.23Z"/><path class="cls-14" d="M-3.08 582.14-72.5 818.46l6.27-.73 4.85-.57 3.85-.44 7.95-.93 10.82-1.25 3.91-.45.8-.1 4.26-.49 2.78-.32 7.28-.85 8.58-.99 4.69-.55 4.07-.47 69.42-236.31-27.4 3.18-5.9.68-36.81 4.27z"/><path class="cls-2" d="M-3.08 582.14-72.5 818.46l6.27-.73 4.85-.57 3.85-.44 7.95-.93 10.82-1.25 3.91-.45.8-.1 4.26-.49 2.78-.32 7.28-.85 8.58-.99 4.69-.55 4.07-.47 69.42-236.31-27.4 3.18-5.9.68-36.81 4.27z"/><g style="clip-path:url(#clip-path-8)"><path class="cls-16" d="M87.09 569.13a1.66 1.66 0 0 0 3.21.81 1.66 1.66 0 0 0-3.21-.81ZM66.4 563.94a1.65 1.65 0 1 0 2-1.2 1.65 1.65 0 0 0-2 1.2ZM45.71 558.75a1.65 1.65 0 1 0 3.21.8 1.65 1.65 0 0 0-3.21-.8ZM25 553.55a1.66 1.66 0 0 0 3.21.81 1.66 1.66 0 0 0-3.21-.81ZM4.34 548.36a1.66 1.66 0 1 0 2-1.2 1.66 1.66 0 0 0-2 1.2ZM74.38 576.36a1.66 1.66 0 1 0 2-1.2 1.65 1.65 0 0 0-2 1.2ZM53.69 571.17a1.65 1.65 0 1 0 3.21.8 1.65 1.65 0 0 0-3.21-.8ZM33 566a1.66 1.66 0 1 0 2-1.2 1.66 1.66 0 0 0-2 1.2ZM12.32 560.78a1.65 1.65 0 0 0 1.2 2 1.66 1.66 0 0 0 .81-3.21 1.65 1.65 0 0 0-2.01 1.21ZM82.06 588.16a1.66 1.66 0 1 0 2-1.2 1.66 1.66 0 0 0-2 1.2ZM61.37 583a1.66 1.66 0 1 0 2-1.2 1.65 1.65 0 0 0-2 1.2ZM40.69 577.77a1.66 1.66 0 1 0 2-1.2 1.66 1.66 0 0 0-2 1.2ZM20 572.58a1.66 1.66 0 0 0 3.21.81 1.66 1.66 0 1 0-3.21-.81ZM-.69 567.39a1.65 1.65 0 0 0 1.21 2 1.65 1.65 0 1 0 .8-3.2 1.65 1.65 0 0 0-2.01 1.2ZM69.35 595.39a1.66 1.66 0 0 0 3.22.8 1.66 1.66 0 1 0-3.22-.8ZM48.67 590.2a1.65 1.65 0 1 0 2-1.21 1.65 1.65 0 0 0-2 1.21ZM28 585a1.66 1.66 0 1 0 2-1.2 1.66 1.66 0 0 0-2 1.2ZM7.3 579.8a1.66 1.66 0 1 0 2-1.2 1.66 1.66 0 0 0-2 1.2ZM77 607.18a1.66 1.66 0 1 0 2-1.2 1.66 1.66 0 0 0-2 1.2ZM56.35 602a1.66 1.66 0 1 0 2-1.2 1.67 1.67 0 0 0-2 1.2ZM35.67 596.8a1.66 1.66 0 1 0 2-1.2 1.65 1.65 0 0 0-2 1.2ZM15 591.6a1.66 1.66 0 1 0 2-1.2 1.66 1.66 0 0 0-2 1.2ZM64.34 614.41a1.65 1.65 0 1 0 2-1.2 1.64 1.64 0 0 0-2 1.2ZM43.65 609.22a1.66 1.66 0 0 0 3.21.81 1.66 1.66 0 1 0-3.21-.81ZM23 604a1.65 1.65 0 1 0 2-1.21 1.66 1.66 0 0 0-2 1.21ZM2.27 598.83a1.66 1.66 0 1 0 3.21.81 1.66 1.66 0 1 0-3.21-.81ZM72 626.21a1.66 1.66 0 1 0 2-1.2 1.66 1.66 0 0 0-2 1.2ZM51.33 621a1.65 1.65 0 1 0 2-1.21 1.66 1.66 0 0 0-2 1.21ZM30.65 615.82a1.66 1.66 0 1 0 2-1.2 1.64 1.64 0 0 0-2 1.2ZM10 610.63a1.64 1.64 0 0 0 1.2 2 1.65 1.65 0 1 0-1.2-2ZM59.31 633.44a1.65 1.65 0 1 0 2-1.2 1.66 1.66 0 0 0-2 1.2ZM38.62 628.24a1.66 1.66 0 1 0 2-1.2 1.66 1.66 0 0 0-2 1.2ZM17.94 623.05a1.66 1.66 0 1 0 2-1.2 1.65 1.65 0 0 0-2 1.2ZM-2.75 617.86a1.65 1.65 0 0 0 1.2 2 1.66 1.66 0 0 0 2-1.21 1.65 1.65 0 0 0-1.2-2 1.64 1.64 0 0 0-2 1.21ZM67 645.24a1.65 1.65 0 1 0 2-1.2 1.65 1.65 0 0 0-2 1.2ZM46.31 640a1.66 1.66 0 1 0 2-1.2 1.66 1.66 0 0 0-2 1.2ZM25.62 634.85a1.66 1.66 0 1 0 2-1.2 1.66 1.66 0 0 0-2 1.2ZM4.94 629.66a1.63 1.63 0 0 0 1.2 2 1.65 1.65 0 1 0-1.2-2ZM54.29 652.46a1.66 1.66 0 1 0 2-1.2 1.66 1.66 0 0 0-2 1.2ZM33.6 647.27a1.66 1.66 0 1 0 2-1.2 1.66 1.66 0 0 0-2 1.2ZM12.92 642.08a1.65 1.65 0 1 0 2-1.2 1.65 1.65 0 0 0-2 1.2ZM41.75 657.94a1.66 1.66 0 1 0 2-1.2 1.65 1.65 0 0 0-2 1.2ZM21.06 652.75a1.66 1.66 0 0 0 3.21.81 1.66 1.66 0 1 0-3.21-.81ZM.37 647.56a1.65 1.65 0 1 0 2-1.21 1.65 1.65 0 0 0-2 1.21ZM8.35 660a1.66 1.66 0 1 0 3.21.81 1.64 1.64 0 0 0-1.2-2A1.66 1.66 0 0 0 8.35 660Z"/></g><path class="cls-2" d="m-57.66 537.38-69.42 236.31 20.6 16.89 3.95 3.24 14.86 12.19 9.64 7.9 5.53 4.55 69.42-236.32-20.19-16.56-4.23-3.47-4.56-3.74-5.01-4.1-4.83-3.97-11.04-9.04-4.72-3.88z"/><g style="clip-path:url(#clip-path-9)"><path class="cls-16" d="M13.72 558.61a1.66 1.66 0 1 0 2-1.2 1.66 1.66 0 0 0-2 1.2ZM1 565.84a1.65 1.65 0 1 0 2-1.21 1.65 1.65 0 0 0-2 1.21ZM8.7 577.64a1.65 1.65 0 1 0 2-1.21 1.66 1.66 0 0 0-2 1.21ZM3.68 596.66a1.66 1.66 0 1 0 2-1.2 1.66 1.66 0 0 0-2 1.2ZM-1.34 615.69a1.66 1.66 0 0 0 1.2 2 1.66 1.66 0 0 0 2-1.21 1.65 1.65 0 0 0-1.2-2 1.64 1.64 0 0 0-2 1.21Z"/></g><path class="cls-7" d="m-57.66 537.38 20.59 16.89 5.01 4.1 28.98 23.77 36.81-4.27 5.9-.68 27.4-3.18-22.13-18.26-5.47-4.5-27.51-22.71-34.8 4.43-6.99.88-27.79 3.53z"/><path class="cls-19" d="m-65 533.28 23.24 19.05 5.65 4.64 32.71 26.82 41.53-4.82 6.66-.76 30.92-3.59-24.97-20.61-6.17-5.09-31.05-25.61-39.27 4.98-7.88 1.01-31.37 3.98z"/><path class="cls-14" d="m-10.4 607.61 7-23.82 41.53-4.82.01.01 6.65-.77 30.92-3.59-5.65 19.24-80.46 13.75z"/><path class="cls-10" d="m60.16 597.76-72.71 17.08-52.33-52.98.67-2.41 53.81 48.16 71.37-12.48-.81 2.63z"/><path class="cls-20" d="m-15.52 526.81 58.17 48.61-69.66 237.76-11.33 1.31 69.95-235.17-60.82-50.71 13.69-1.8z"/><path class="cls-20" d="m35.76 541.34 9.49 8.28-76.82 11.14-68.96 234.45-7.91-6.64 69.68-237.06 74.52-10.17z"/><path class="cls-20" d="M20.27 560.28C56.1 569.69 64 546.05 64 546.05L52.59 528s-5.45 26.19-32.95 27.77Z"/><path class="cls-20" d="M3.09 549.93s27.66-37.68 52.8-29.62L64 546.05s-34-14.11-54 7.85Z"/><path class="cls-21" d="M26.34 527.34a48.62 48.62 0 0 1 15-7.18l.69 1.63c3 7.08 6.81 14 10.27 21a60.21 60.21 0 0 0-18.69-.79c-2.54-4.81-4.93-9.72-7.27-14.66Z"/><path class="cls-20" d="M10.67 553s-2.2-46.69-27.62-53.87l-21 17s36.16 7.07 40.67 36.4Z"/><path class="cls-21" d="M3.79 521.37a48.69 48.69 0 0 0-8.5-14.28l-1.49 1c-6.45 4.22-13.4 7.89-20.15 11.8a60.3 60.3 0 0 1 16 9.69c4.76-2.58 9.47-5.38 14.14-8.21Z"/><path class="cls-20" d="M19.16 563.33a3.29 3.29 0 0 0 2.89-4.39c-1.45-4.18-4.46-10.52-9.79-12.74-11.08-4.64-19.68-3-22.26 3.86a3.25 3.25 0 0 0 1.28 3.83c4.5 3.01 16.26 9.97 27.88 9.44Z"/><path class="cls-10" d="m20.05 607.23-58.39 207.26L23.5 606.43l-3.45.8z"/></g></g></svg>