<svg id="Layer_1" data-name="Layer 1" xmlns="http://www.w3.org/2000/svg" viewBox="0 0 494.39 658.92"><defs><clipPath id="clip-path"><path style="fill:none" d="M.45.75h493.48v657.42H.45z"/></clipPath><style>.cls-3{fill:#ef9448}.cls-4{fill:#a25747}.cls-5{fill:#fcb86a}.cls-6{fill:#d0704d}.cls-7{fill:#3b3a59}.cls-8{fill:#2b2c41}.cls-9{fill:#1b1c2d}.cls-10{fill:#ea3b3b}.cls-11{fill:#66658e}.cls-12{fill:#f8872b}.cls-13{fill:#e6633b}.cls-14{fill:#fcb339}.cls-15{fill:#ffe161}.cls-16{fill:#cb253d}.cls-17{fill:#ab2041}.cls-18{fill:#7e133b}.cls-19{fill:#66082e}.cls-20{fill:#d34626}.cls-21{fill:#d34624}.cls-22{fill:#824641}.cls-23{fill:#5d4048}.cls-27{fill:#57bfed;opacity:.35}.cls-28{fill:#fab712}.cls-29{fill:#b78604;opacity:.58}.cls-30{fill:#fddfa4;opacity:.56}</style></defs><g style="clip-path:url(#clip-path)"><path class="cls-3" d="M521.62 439.82v94.98l-22.06-9.33-11.6-4.92-10.48-4.43v-87.27l10.48 2.61 11.6 2.88 22.06 5.48z"/><path class="cls-4" d="M521.62 444.63v17.61l-44.14-19.29v-9.07l44.14 10.75z"/><path class="cls-5" d="m477.48 428.85 44.14 10.97 94.98-5.96-47.49-9.61-91.63 4.6z"/><path class="cls-5" d="m472.88 419.25 51.67 10.97 94.97-6.75-50.41-12.01-96.23 7.79z"/><path class="cls-3" d="M524.55 430.22v23.41l-24.99-9.03-11.6-4.18-15.08-5.45v-15.72l15.08 3.2 11.6 2.46 24.99 5.31z"/><path class="cls-4" d="M499.56 424.91v100.56l-11.6-4.92v-98.1l11.6 2.46z"/><path class="cls-6" d="m487.96 422.45 94-7.93 12.02 2.87-94.42 7.52-11.6-2.46z"/><path class="cls-7" d="M434.99 430.69v71.35l-22.21-7.85-15.25-5.38-14.67-5.18v-69.51l14.67 4.66 15.25 4.85 22.21 7.06z"/><path class="cls-8" d="m415.65 440.25-2.87 53.94-3.86-57.78 6.73 3.84zM434.99 447.39v54.65l48.65-18.41v-55.3l-48.49 19.12-.16-.06z"/><path class="cls-9" d="m453.04 440.4 3.18 53.6 3.09-56.07-6.27 2.47z"/><path class="cls-8" d="m412.78 423.63-15.25-4.85-14.67-4.66v14.01l52.13 19.26v-16.7l-22.21-7.06z"/><path class="cls-9" d="M434.99 430.69v16.7l.16.06 48.49-19.12v-14.21l-48.65 16.57z"/><path class="cls-10" d="m382.86 414.12 52.12 16.57 48.66-16.57-50.39-16.72-50.39 16.72z"/><path class="cls-7" d="M435.15 421.46v21.75l-22.37-7.9-15.25-5.38-19.67-6.95v-19.73l19.67 6.25 15.25 4.85 22.37 7.11z"/><path class="cls-8" d="M488.64 403.25v19.73l-17.17 6.5-15.25 5.76-21.07 7.97v-21.75l21.07-7.17 15.25-5.19 17.17-5.85z"/><path class="cls-11" d="m377.86 403.25 57.29 18.21 53.49-18.21-55.39-18.38-55.39 18.38z"/><path class="cls-12" d="M412.78 414.35v79.84l-15.25-5.38V409.5l15.25 4.85z"/><path class="cls-13" d="M456.22 494V414.29l15.25-5.19v79.13L456.22 494z"/><path class="cls-14" d="m397.53 409.5 51.34-19.44 14.97 4.96-51.06 19.33-15.25-4.85z"/><path class="cls-14" d="m456.22 414.29-56.25-18.38 17.66-5.85 53.84 19.04-15.25 5.19z"/><path class="cls-14" d="M427.69 406.38c-6.14.46-11.84 7.11-16 13.49a88 88 0 0 0-6.44 12l-1.74-8.6-9.84 5.26c2.15-9.18 6-15.54 10.34-19.95a33.48 33.48 0 0 1 22.53-10Z"/><path class="cls-12" d="M427.69 406.38a11.31 11.31 0 0 0-4.64 1.48c-4.33 2.4-8.27 7.28-11.32 12 .92-8.16-5.18-10.64-7.68-11.29A33.58 33.58 0 0 1 421 399.3a27.83 27.83 0 0 1 5.58-.68Z"/><path class="cls-13" d="M423.05 407.86c.39-4.51-1-7.22-2.05-8.56a27.83 27.83 0 0 1 5.58-.68l1.11 7.76a11.31 11.31 0 0 0-4.64 1.48Z"/><path class="cls-14" d="M442 406.38c6.14.46 11.85 7.11 16 13.49a88.62 88.62 0 0 1 6.43 12l1.75-8.6 9.84 5.26c-2.15-9.18-6-15.54-10.34-19.95a33.5 33.5 0 0 0-22.53-10Z"/><path class="cls-12" d="M442 406.38a11.26 11.26 0 0 1 4.64 1.48c4.34 2.4 8.28 7.28 11.33 12-.93-8.16 5.18-10.64 7.68-11.29a33.62 33.62 0 0 0-16.95-9.28 27.9 27.9 0 0 0-5.58-.68Z"/><path class="cls-13" d="M446.61 407.86c-.39-4.51 1-7.22 2.06-8.56a27.9 27.9 0 0 0-5.58-.68l-1.09 7.76a11.26 11.26 0 0 1 4.61 1.48Z"/><path class="cls-14" d="M429.37 401.54c-4.74-.76-16.59-6.17-16.59-6.17a35.18 35.18 0 0 0-4.45-2.16 25.9 25.9 0 0 0-4.09-1.31c-6.62-1.57-10.53.27-10.53.27-1.29-6.64 1-10.38 4-12.49a11.66 11.66 0 0 1 8.32-2 13.06 13.06 0 0 1 4.86 1.69c1.15.68 2.3 1.43 3.39 2.19a87.19 87.19 0 0 1 13.35 11.77Z"/><path class="cls-12" d="M429.37 401.54h-.66c-18.58.15-27.32-2.74-31.41-5.35-3.3-2.1-3.59-4-3.59-4 7-12.42 32.08 5.21 32.08 5.21Z"/><path class="cls-13" d="M429.37 401.54h-.66c-.69-.34-1.43-.72-2.19-1.16-19.74-11.19-27-6.66-29.22-4.19-3.3-2.1-3.59-4-3.59-4 7-12.42 32.08 5.21 32.08 5.21Z"/><path class="cls-15" d="M400 387.92a18.23 18.23 0 0 1 7.11.48c-.88-5.31 4.41-6.53 7.17-6.8-1.09-.76-2.24-1.51-3.39-2.19a13.06 13.06 0 0 0-4.86-1.69c-7.82 1.37-6 10.18-6 10.18Z"/><path class="cls-14" d="M439.93 401.54c4.74-.76 16.59-6.17 16.59-6.17a35.18 35.18 0 0 1 4.45-2.16 25.9 25.9 0 0 1 4.09-1.31c6.62-1.57 10.53.27 10.53.27 1.29-6.64-1-10.38-4-12.49a11.65 11.65 0 0 0-8.32-2 13.06 13.06 0 0 0-4.86 1.69c-1.15.68-2.29 1.43-3.39 2.19a87.19 87.19 0 0 0-13.35 11.77Z"/><path class="cls-12" d="M439.93 401.54h.66c18.58.15 27.33-2.74 31.41-5.35 3.31-2.1 3.59-4 3.59-4-7-12.42-32.08 5.21-32.08 5.21Z"/><path class="cls-13" d="M439.93 401.54h.66c.69-.34 1.43-.72 2.19-1.16 19.74-11.19 27-6.66 29.22-4.19 3.31-2.1 3.59-4 3.59-4-7-12.42-32.08 5.21-32.08 5.21Z"/><path class="cls-15" d="M469.32 387.92a18.24 18.24 0 0 0-7.11.48c.88-5.31-4.4-6.53-7.17-6.8 1.1-.76 2.24-1.51 3.39-2.19a13.06 13.06 0 0 1 4.86-1.69c7.82 1.37 6 10.18 6 10.18Z"/><rect class="cls-12" x="425.79" y="391.14" width="17.78" height="15.43" rx="3.86"/><rect class="cls-15" x="425.79" y="393.37" width="17.78" height="4.01" rx="1.82"/><path class="cls-13" d="M440.79 400.16h-12.22a2.78 2.78 0 0 1-2.78-2.78v5.54a2.77 2.77 0 0 0 2.78 2.78h12.22a2.77 2.77 0 0 0 2.78-2.78v-5.54a2.78 2.78 0 0 1-2.78 2.78Z"/><path class="cls-16" d="M509.6 510.2c-1 4.86-4.44 10.78-11.65 17.95-1.63 1.63-3.47 3.32-5.5 5.08a182.39 182.39 0 0 1-15.28 11.68c-57.63-12.74-69-25.77-68.2-34.63a9.4 9.4 0 0 1 .25-1.44c1.71-6.81 11.42-11.77 22.94-12 1.23 0 2.48 0 3.74.08 14.46 1 22 8.73 22 8.73s-.64-8.74 11-13.46c7.93-3.21 18.36-3.19 26.69-.43a28.63 28.63 0 0 1 7.44 3.64c.37.26.72.53 1.08.81 3.17 2.52 5.58 5.85 5.83 10.25a14.18 14.18 0 0 1-.34 3.74Z"/><path class="cls-10" d="M498 503.12c-1.63 1.63-3.47 3.32-5.5 5.08a180.27 180.27 0 0 1-15.28 11.68c-22.9-5.06-38.5-10.17-48.94-15a79.91 79.91 0 0 1-7.59-4l-.76-.48-.72-.47-1.3-.89a32.86 32.86 0 0 1-4.11-3.37c-.2-.19-.38-.39-.56-.57-3-3.09-4.13-6-4.23-8.55a9.7 9.7 0 0 1 .29-2.66 10.56 10.56 0 0 1 2.17-4.13 18.74 18.74 0 0 1 6.43-4.74 37 37 0 0 1 18.08-3.06 39 39 0 0 1 4.4.53 38.17 38.17 0 0 1 5 1.21 35.8 35.8 0 0 1 4.23 1.6c1 .46 2 .95 2.83 1.43h.06c.23.12.45.25.66.38a25.11 25.11 0 0 1 4.73 3.53s-.64-8.75 11-13.46c10.57-4.28 25.56-2.83 34.13 3.21 7.81 5.47 12.31 15.44-5.02 32.73Z"/><path class="cls-17" d="M409 485h-.08v1a8.26 8.26 0 0 1 .08-1ZM414 495.85l-.24-.23c-3.55-3.45-4.82-6.65-4.82-9.46v24.12c-.29 3 .86 6.54 4.78 10.35l.24.24a37.3 37.3 0 0 0 5.17 4L417.86 499a35.38 35.38 0 0 1-3.86-3.15ZM422.14 501.7c-.53-.3-1-.61-1.53-.91l-.72-.46-.72 24.55c.46.31.95.62 1.45.93 9.86 6 27.22 12.6 56.56 19.09v-25c-27.88-6.18-44.94-12.4-55.04-18.2Z"/><path class="cls-18" d="M419.16 499.87c.23.16.49.31.73.46l33.23-23.25c-.21-.13-.43-.26-.66-.38-.86-.49-1.83-1-2.89-1.46L417.8 497.8l.06 1.18c.41.29.84.59 1.29.88Z"/><path class="cls-19" d="M419.89 500.33c-.24-.15-.5-.3-.73-.46-.45-.29-.88-.59-1.29-.88l1.3 25.91.72-24.55Z"/><path class="cls-16" d="M491.73 508.82c-4 3.42-8.83 7.1-14.55 11.05v25a182.39 182.39 0 0 0 15.28-11.68l-.72-24.41ZM504.08 496.19a66.25 66.25 0 0 1-6.13 6.93q-2 2-4.41 4.12l-1.07 26c2-1.76 3.87-3.45 5.5-5.08 7.21-7.17 10.66-13.09 11.65-17.95.2-2.21.31-3.63.31-3.63V482.8c-.2 3.72-1.93 8.2-5.85 13.39Z"/><path class="cls-18" d="m492.51 508.15 1-.89v-.49l-80.81-28.46-1.79 2 80.81 28.51.73-.62Z"/><path class="cls-18" d="m493.52 507.26-1 .89-.06.05-.73.62.72 24.41 1.07-26Z"/><path class="cls-20" d="M419.16 499.87v25a37.3 37.3 0 0 1-5.17-4l-.24-.24v-25l5.4 4.25Z"/><path class="cls-13" d="M498 503.12v25c-1.63 1.63-3.47 3.32-5.5 5.08v-25l.06-.05 5.42-5Z"/><path class="cls-12" d="M498 503.12c-1.63 1.63-3.47 3.32-5.5 5.08l-13.5-4.72-10.36-3.65-29.91-10.53 1.87-1a1.48 1.48 0 0 0 .47-.38 5.75 5.75 0 0 1 .66-.23.58.58 0 0 1 .14 0 5.63 5.63 0 0 1 .59-.14h.11c.22 0 .43-.06.64-.07h.86l1 .09h.16a15.08 15.08 0 0 1 2.27.52h.16a22.07 22.07 0 0 1 2.26.84l.25.11 1.08.49.1.06c.32.15.64.31.95.48a2.48 2.48 0 0 1 .32.17l1 .54a54.75 54.75 0 0 1 6.94 4.75l-1.49-5.21h2.64l14.44 5.08 10.49 3.69ZM428.43 484.54a1.5 1.5 0 0 1 .79-1l5.23-2.72-16.63-5.84a18.74 18.74 0 0 0-6.43 4.74l7.29 2.57h.13a54.77 54.77 0 0 1 9.62 2.25ZM437.5 479.81c.08-.28.19-.62.31-1l-1.38 1a1.57 1.57 0 0 1 1.07 0ZM452.38 476.65a36.32 36.32 0 0 0-3.63-1.77c.28.11.55.23.81.35 1.03.46 1.97.95 2.82 1.42ZM452.46 476.7h-.06l-.31.3ZM447.88 474.52l.61.25ZM446.81 474.12l.66.24ZM445.33 473.63c.38.12.74.23 1.1.36-.36-.13-.72-.24-1.1-.36ZM421.77 497.59l.21-.44.12-.26.24-.47.1-.18c.09-.18.19-.34.28-.5a21.17 21.17 0 0 1 2.22-3.12c-5 2-8.36 2.57-10.55 2.53l-.68.47a35.82 35.82 0 0 0 5.41 4.26l2.34-1.63c0-.11.09-.21.13-.32s.14-.23.18-.34Z"/><path class="cls-21" d="M452.39 476.66ZM448.49 474.77l.26.11ZM446.43 474l.38.13ZM447.47 474.36l.41.16ZM461.73 490.38l4.24.05a25.29 25.29 0 0 0-11.34-8l-.83-.25-.38-.1-.42-.08-.45-.1-.35-.07-.48-.09-.29-.05-.52-.07a1.38 1.38 0 0 1-.2 0l-.58-.06a20.94 20.94 0 0 0-3.89 0 37.66 37.66 0 0 0 5.87-4.57l-9.57 6.66Z"/><path class="cls-18" d="M421.5 498.24v.11c0 .04-.11.27-.16.41s-.1.25-.14.38-.19.54-.27.81-.17.57-.25.87a79.91 79.91 0 0 0 7.59 4c0-.29 0-.59.08-.88s.07-.76.12-1.14v-.35c0-.35.1-.7.16-1.05a.36.36 0 0 1 0-.11q.09-.6.21-1.17l.06-.27a24.07 24.07 0 0 1 .61-2.33.84.84 0 0 0 .05-.17 16.53 16.53 0 0 1 .89-2.14c0-.05 0-.1.08-.14a7.55 7.55 0 0 1 .52-.88.3.3 0 0 1 0-.08 6.41 6.41 0 0 1 .39-.52.3.3 0 0 1 .07-.1c.13-.17.28-.33.42-.48l.08-.09.45-.41.1-.09a4.73 4.73 0 0 1 .46-.32 1.7 1.7 0 0 0 .53-.16l5.12-2.66-2.91-1ZM418.68 482.25c-.78-.1-1.57-.18-2.35-.23a7.89 7.89 0 0 0-3.14.46 7.11 7.11 0 0 0-4 3.45 4.49 4.49 0 0 0-.26.54c.1 2.58 1.26 5.46 4.23 8.55a3.8 3.8 0 0 0 .5.06h.74l13.72-9.55Z"/><path class="cls-21" d="m436.43 479.79-.22.08-1.76.91.36.13ZM440.3 472.41a54.67 54.67 0 0 0-2.49 6.42l7.49-5.21a38.17 38.17 0 0 0-5-1.21ZM441.07 488a5.75 5.75 0 0 1 .66-.23.58.58 0 0 1 .14 0 5.63 5.63 0 0 1 .59-.14h.11c.22 0 .43-.06.64-.07h.86l1 .09h.16a15.08 15.08 0 0 1 2.27.52h.16a22.07 22.07 0 0 1 2.26.84l.25.11 1.08.49.1.06c.32.15.64.31.95.48a2.48 2.48 0 0 1 .32.17l1 .54a54.75 54.75 0 0 1 6.94 4.75l-1.49-5.21h2.65l-19.22-6.76-6.69 4.66 2.91 1 1.87-1a1.48 1.48 0 0 0 .48-.3Z"/><path class="cls-21" d="m434.81 480.91-.36-.13-5.23 2.72a1.5 1.5 0 0 0-.79 1 54.77 54.77 0 0 0-9.62-2.28h-.13l9.44 3.32ZM428.12 485.57l-13.72 9.55c2.19 0 5.54-.51 10.55-2.53a21.17 21.17 0 0 0-2.22 3.12c-.09.16-.19.32-.28.5l-.1.18-.24.47-.12.26-.21.44c0 .11-.09.22-.14.33s-.09.21-.13.32l14.32-10ZM442.51 483.62l9.57-6.66.31-.3c-.85-.47-1.79-1-2.82-1.42-.26-.12-.53-.24-.81-.35l-.26-.11-.61-.25-.41-.16-.66-.24-.38-.13c-.36-.13-.72-.24-1.1-.36l-7.49 5.21c-.12.36-.23.7-.31 1a1.57 1.57 0 0 0-1.07 0l-1.62 1.12Z"/><path class="cls-21" d="m428.12 485.57 7.7 2.71 6.69-4.66-7.7-2.7-6.69 4.65z"/><path class="cls-14" d="M433.25 490.54c-3.23 2-4.47 7.26-4.91 11.93a54.93 54.93 0 0 0-.11 8.41l-3.41-4.22-3.9 5.68a25.35 25.35 0 0 1 0-13.87 20.65 20.65 0 0 1 9.51-11.86Z"/><path class="cls-12" d="M433.25 490.54a7.06 7.06 0 0 0-2.12 2.13c-1.69 2.55-2.47 6.34-2.79 9.8a6 6 0 0 0-7.42-4 20.77 20.77 0 0 1 6.65-9.91 16.36 16.36 0 0 1 2.86-1.95Z"/><path class="cls-13" d="M431.13 492.67a7.46 7.46 0 0 0-3.56-4.11 16.36 16.36 0 0 1 2.86-1.95l2.82 3.93a7.06 7.06 0 0 0-2.12 2.13Z"/><path class="cls-14" d="M441.08 486.47c3.49-1.49 8.51.53 12.59 2.86a55.66 55.66 0 0 1 6.94 4.75l-1.5-5.22 6.89.14a25.24 25.24 0 0 0-11.34-8 20.66 20.66 0 0 0-15.18 1Z"/><path class="cls-12" d="M441.08 486.47a7 7 0 0 1 3-.5c3.06.08 6.61 1.63 9.63 3.36a6 6 0 0 1 1-8.37 20.78 20.78 0 0 0-11.93-.27 16.93 16.93 0 0 0-3.25 1.22Z"/><path class="cls-13" d="M444 486a7.5 7.5 0 0 1-1.31-5.28 16.93 16.93 0 0 0-3.25 1.22l1.6 4.56a7 7 0 0 1 2.96-.5Z"/><path class="cls-14" d="M432.8 487.41c-2.82.93-10.85 1.34-10.85 1.34a20 20 0 0 0-3.05.08 16.8 16.8 0 0 0-2.62.44c-4.07 1-5.69 3.15-5.69 3.15-2.6-3.28-2.4-6-1.37-8a7.22 7.22 0 0 1 4-3.45 8.09 8.09 0 0 1 3.14-.45c.83 0 1.66.13 2.48.24a53.55 53.55 0 0 1 10.67 2.65Z"/><path class="cls-12" d="m432.8 487.41-.37.19c-10.14 5.36-15.75 6.27-18.73 6-2.41-.22-3.11-1.18-3.11-1.18.29-8.8 19.06-6.27 19.06-6.27Z"/><path class="cls-13" d="m432.8 487.41-.37.19h-1.53c-14-.52-16.7 4-17.2 6-2.41-.22-3.11-1.18-3.11-1.18.29-8.8 19.06-6.27 19.06-6.27Z"/><path class="cls-15" d="M412.81 488.3a11.36 11.36 0 0 1 4-1.75c-2-2.67.55-4.84 2-5.77-.82-.11-1.65-.19-2.48-.24a8.09 8.09 0 0 0-3.14.45c-3.9 3-.42 7.31-.42 7.31Z"/><path class="cls-14" d="M438.58 484.41c2.38-1.77 7.34-8.1 7.34-8.1a21.67 21.67 0 0 1 1.82-2.45 17.64 17.64 0 0 1 1.87-1.89c3.19-2.74 5.85-2.84 5.85-2.84-1.18-4-3.51-5.4-5.73-5.71a7.19 7.19 0 0 0-5.12 1.28 8.05 8.05 0 0 0-2.18 2.32c-.44.7-.85 1.43-1.24 2.16a54.1 54.1 0 0 0-4 10.25Z"/><path class="cls-12" d="m438.58 484.41.37-.19c10.22-5.21 14.19-9.28 15.69-11.87 1.21-2.09.82-3.22.82-3.22-7.36-4.82-16.1 12-16.1 12Z"/><path class="cls-13" d="m438.58 484.41.37-.19c.28-.38.57-.81.87-1.26 7.63-11.75 12.91-11.33 14.82-10.61 1.21-2.09.82-3.22.82-3.22-7.36-4.82-16.1 12-16.1 12Z"/><path class="cls-15" d="M450.82 468.58a11.1 11.1 0 0 0-3.76 2.29c-1-3.16-4.27-2.33-5.87-1.69.39-.73.8-1.46 1.24-2.16a8.05 8.05 0 0 1 2.18-2.32c4.67-1.47 6.21 3.87 6.21 3.87Z"/><path class="cls-12" d="m440.11 487.12-5.94 3.08a2.13 2.13 0 0 1-2.89-.92l-2.42-4.65a2.15 2.15 0 0 1 .92-2.89l5.94-3.08a2.15 2.15 0 0 1 2.89.92l2.41 4.65a2.14 2.14 0 0 1-.91 2.89Z"/><path class="cls-15" d="m438.88 480.09-.11-.2a1.12 1.12 0 0 0-1.51-.48l-7.75 4A1.13 1.13 0 0 0 429 485l.1.2a1.13 1.13 0 0 0 1.52.48l7.75-4a1.14 1.14 0 0 0 .51-1.59Z"/><path class="cls-13" d="m438.66 483.4-6.7 3.48a1.71 1.71 0 0 1-2.31-.73l1.57 3a1.73 1.73 0 0 0 2.32.74l6.7-3.48a1.71 1.71 0 0 0 .73-2.31l-1.58-3a1.71 1.71 0 0 1-.73 2.3Z"/><path class="cls-14" d="m486.65 499.14-7.65 4.34-2.81-.99-2.58-.92-4.97-1.74 7.52-4.37 4.67 1.64 2.5.88 3.32 1.16z"/><path class="cls-15" d="m483.33 497.98-7.14 4.51-2.58-.92 7.22-4.47 2.5.88z"/><path class="cls-3" d="M19.42 434.93v94.98l-22.06-9.33-11.6-4.91-10.48-4.44v-87.26l10.48 2.6 11.6 2.88 22.06 5.48z"/><path class="cls-4" d="M19.42 439.74v17.61l-44.14-19.29v-9.07l44.14 10.75z"/><path class="cls-4" d="M114.4 428.98v91.21l-35.89 3.67-11.6 1.19-47.5 4.86v-94.98l2.94-.19 44.56-2.79 11.6-.72v-.01l26.33-1.64 2.4-.15 7.16-.45z"/><path class="cls-22" d="M114.4 430v17.5l-95 9.85V441c21.68-4 72.15-8.88 95-11Z"/><path class="cls-5" d="m-24.72 423.96 44.14 10.97 94.98-5.96-47.49-9.6-91.63 4.59z"/><path class="cls-5" d="m-29.31 414.36 51.66 10.97 94.98-6.74-50.42-12.02-96.22 7.79z"/><path class="cls-3" d="M22.35 425.33v23.42l-24.99-9.04-11.6-4.18-15.07-5.45v-15.72l15.07 3.2 11.6 2.46 24.99 5.31z"/><path class="cls-4" d="M117.32 418.59v22.95l-38.81 2.95-11.6.87-44.56 3.39v-23.42l44.56-3.15 11.6-.83 38.81-2.76z"/><path class="cls-23" d="M78.51 421.35v102.51l-11.6 1.19V422.18l10.26-.73 1.34-.1z"/><path class="cls-6" d="m-14.24 417.56 94-7.93 12.02 2.87-94.42 7.52-11.6-2.46z"/><path class="cls-6" d="M66.91 422.18 10.99 411.1l15.87-1.29 51.65 11.54-11.6.83z"/><path class="cls-4" d="M-5.24 389s-3.43 10.91 45.32 28.07l-1.78-4.18S12.62 404.06.55 390.37c-1.18-1.37-4.97.14-5.79-1.37Z"/><path class="cls-6" d="M35.83 412.34S9.23 375.88-5.24 389c0 0 17.06 10.94 45.32 28.07Z"/><path class="cls-4" d="M69.38 376.21s13.39 15.37-27.64 37.45l-4.85.63s31.41-17 27.55-38.08c0 0 1.02-1.73 4.94 0Z"/><path class="cls-6" d="M35.83 414.83s4-48 33.55-38.62c0 0-11.73-4.42-27.64 37.45ZM37.71 416.6s-19.74.67-11.79 34.53l9.48.83s-16.72-24.81 8.22-36.53ZM43.91 415.05s30.48-7.94 61.48 12.1l9.13-3s-37.3-19-73.93-9.54Z"/><path class="cls-4" d="M36.44 410.62s-2.34 3 0 4.21l3.64 2.27.7-3.79-1.2-3.68Z"/><path class="cls-6" d="M46.06 415.46s-1.78-5.35-6.48-5.83l-3.14 1s5 1.51 3.64 6.48Z"/><path class="cls-3" d="M77.35 483.23v55.75L64.4 533.5l-6.81-2.88-6.15-2.6v-51.23l6.15 1.53 6.81 1.69 12.95 3.22z"/><path class="cls-4" d="M77.35 486.05v10.34l-25.91-11.33v-5.32l25.91 6.31z"/><path class="cls-4" d="M133.1 479.73v53.54l-21.07 2.16-6.81.7-27.88 2.85v-55.75l1.73-.11 26.15-1.64 6.81-.42v-.01l15.46-.96 1.41-.09 4.2-.27z"/><path class="cls-22" d="M133.1 480.35v10.26l-55.75 5.78v-9.62c12.71-2.32 42.34-5.19 55.75-6.42Z"/><path class="cls-5" d="m51.44 476.79 25.91 6.44 55.75-3.5-27.87-5.64-53.79 2.7z"/><path class="cls-5" d="m48.74 471.15 30.33 6.44 55.75-3.95-29.59-7.06-56.49 4.57z"/><path class="cls-3" d="M79.07 477.59v13.75l-14.67-5.3-6.81-2.46-8.85-3.2v-9.23l8.85 1.89 6.81 1.44 14.67 3.11z"/><path class="cls-4" d="M134.82 473.64v13.47l-22.79 1.73-6.8.51-26.16 1.99v-13.75l26.16-1.85 6.8-.49 22.79-1.61zM64.4 474.48v59.02l-6.81-2.88v-57.58l6.81 1.44z"/><path class="cls-23" d="M112.03 475.25v60.18l-6.81.7v-60.39l6.02-.43.79-.06z"/><path class="cls-6" d="m57.59 473.04 55.18-4.66 7.05 1.68-55.42 4.42-6.81-1.44z"/><path class="cls-6" d="m105.23 475.74-32.83-6.5 9.31-.75 30.32 6.76-6.8.49z"/><path class="cls-4" d="M62.87 456.29s-2 6.4 26.61 16.47l-1-2.45s-15.08-5.2-22.16-13.24c-.74-.78-2.96.08-3.45-.78Z"/><path class="cls-6" d="M87 470s-15.61-21.41-24.11-13.68c0 0 10 6.42 26.61 16.47Z"/><path class="cls-4" d="M106.68 448.76s7.85 9-16.23 22l-2.85.37s18.44-10 16.18-22.35c0-.02.6-1.03 2.9-.02Z"/><path class="cls-6" d="M87 471.43s2.32-28.19 19.7-22.67c0 0-6.89-2.6-16.23 22ZM88.08 472.47s-11.58.39-6.92 20.27l5.57.49s-9.82-14.57 4.82-21.45ZM91.72 471.56a48.82 48.82 0 0 1 36.09 7.1l5.36-1.74s-21.89-11.17-43.39-5.6Z"/><path class="cls-4" d="M87.34 469s-1.37 1.78 0 2.47l2.14 1.33.4-2.22-.69-2.16Z"/><path class="cls-6" d="M93 471.8s-1-3.14-3.8-3.42l-1.85.58a3.08 3.08 0 0 1 2.14 3.8Z"/><path class="cls-16" d="M7.4 505.31c-1 4.86-4.44 10.78-11.65 17.95q-2.45 2.44-5.5 5.08A182.39 182.39 0 0 1-25 540c-57.63-12.73-69-25.76-68.2-34.63A9.62 9.62 0 0 1-93 504c1.71-6.81 11.42-11.77 22.94-12 1.23 0 2.48 0 3.74.08 14.46 1 21.95 8.73 21.95 8.73s-.64-8.74 11-13.46c7.93-3.21 18.36-3.19 26.69-.42A28 28 0 0 1 .8 490.5c.37.26.73.52 1.08.8 3.17 2.52 5.58 5.86 5.83 10.26a14.11 14.11 0 0 1-.31 3.75Z"/><path class="cls-10" d="M-4.25 498.23a98.218 98.218 0 0 1-5.5 5.08A180.27 180.27 0 0 1-25 515c-22.9-5.06-38.5-10.17-48.93-15a79 79 0 0 1-7.6-4l-.76-.48-.71-.52-1.3-.89a32 32 0 0 1-4.11-3.37l-.56-.57c-3-3.09-4.13-6-4.22-8.54a9.36 9.36 0 0 1 .28-2.67 10.56 10.56 0 0 1 2.17-4.13 18.86 18.86 0 0 1 6.43-4.74A37.06 37.06 0 0 1-66.3 467a39 39 0 0 1 4.4.53 39.84 39.84 0 0 1 5 1.21 35.8 35.8 0 0 1 4.23 1.6c1 .47 2 1 2.83 1.43h.06l.66.38a25.11 25.11 0 0 1 4.73 3.53s-.64-8.74 11-13.46C-22.76 458-7.77 459.43.8 465.47c7.83 5.53 12.33 15.47-5.05 32.76Z"/><path class="cls-16" d="M1.88 491.3a66.25 66.25 0 0 1-6.13 6.93 101.92 101.92 0 0 1-4.41 4.12l-1.07 26q3.06-2.64 5.5-5.08C3 516.09 6.41 510.17 7.4 505.31c.2-2.21.31-3.63.31-3.63v-23.77c-.18 3.72-1.87 8.16-5.83 13.39Z"/><path class="cls-3" d="M286.07 440.1v94.98l-22.06-9.33-11.6-4.92-10.48-4.43v-87.27l10.48 2.61 11.6 2.88 22.06 5.48z"/><path class="cls-4" d="M286.07 444.9v17.62l-44.14-19.29v-9.07l44.14 10.74z"/><path class="cls-4" d="M381.05 434.14v91.21l-35.9 3.67-11.6 1.19-47.49 4.86v-94.98l2.93-.18 44.56-2.79 11.6-.72v-.02l26.34-1.64 2.4-.15 7.16-.45z"/><path class="cls-22" d="M381.05 435.2v17.47l-95 9.85v-16.39c21.68-3.96 72.15-8.84 95-10.93Z"/><path class="cls-5" d="m241.93 429.13 44.14 10.97 94.98-5.96-47.49-9.61-91.63 4.6z"/><path class="cls-5" d="M237.33 419.52 289 430.5l94.97-6.75-50.41-12.01-96.23 7.78z"/><path class="cls-3" d="M289 430.5v23.41l-24.99-9.03-11.6-4.19-15.08-5.44v-15.73l15.08 3.21 11.6 2.46L289 430.5z"/><path class="cls-4" d="M383.97 423.76v22.95l-38.81 2.94-11.6.88-44.56 3.38V430.5l44.56-3.16 11.6-.83 38.81-2.75zM264.01 425.19v100.56l-11.6-4.92v-98.1l11.6 2.46z"/><path class="cls-23" d="M345.15 426.51v102.51l-11.6 1.19V427.34l10.26-.73 1.34-.1z"/><path class="cls-6" d="m252.41 422.73 93.99-7.93 12.03 2.87-94.42 7.52-11.6-2.46z"/><path class="cls-6" d="m333.56 427.34-55.92-11.08 15.86-1.28 51.66 11.53-11.6.83z"/><path class="cls-4" d="M261.41 394.2s-3.43 10.91 45.32 28.07l-1.73-4.18s-25.69-8.86-37.75-22.55c-1.25-1.33-5.02.14-5.84-1.34Z"/><path class="cls-6" d="M302.48 417.51s-26.6-36.51-41.07-23.31c0 0 17.06 10.94 45.32 28.07Z"/><path class="cls-4" d="M336 381.37s13.39 15.38-27.64 37.46l-4.85.62s31.41-17 27.55-38.08c.03 0 1.05-1.72 4.94 0Z"/><path class="cls-6" d="M302.48 420s3.95-48 33.55-38.62c0 0-11.73-4.42-27.64 37.46ZM304.36 421.76s-19.74.68-11.8 34.53l9.49.84s-16.73-24.81 8.22-36.53ZM310.56 420.21S341 412.27 372 432.32l9.12-3s-37.29-19-73.92-9.54Z"/><path class="cls-4" d="M303.08 415.79s-2.33 3 0 4.2l3.65 2.28.7-3.8-1.2-3.67Z"/><path class="cls-6" d="M312.71 420.63s-1.78-5.36-6.48-5.83l-3.15 1s5 1.5 3.65 6.48Z"/><path class="cls-3" d="M344 488.39v55.76l-12.95-5.48-6.81-2.88-6.15-2.61v-51.22l6.15 1.53 6.81 1.69 12.95 3.21z"/><path class="cls-4" d="M344 491.22v10.34l-25.91-11.33v-5.32l25.91 6.31z"/><path class="cls-4" d="M399.75 484.9v53.54l-21.07 2.16-6.81.69-27.88 2.86v-55.76l1.72-.1 26.16-1.64 6.81-.43v-.01l15.46-.96 1.41-.08 4.2-.27z"/><path class="cls-22" d="M399.75 485.52v10.26L344 501.56v-9.62c12.71-2.32 42.34-5.19 55.75-6.42Z"/><path class="cls-5" d="M318.09 481.96 344 488.4l55.75-3.5-27.87-5.64-53.79 2.7z"/><path class="cls-5" d="m315.39 476.32 30.32 6.44 55.76-3.96-29.59-7.05-56.49 4.57z"/><path class="cls-3" d="M345.72 482.76v13.74l-14.67-5.3-6.81-2.45-8.85-3.2v-9.23l8.85 1.88 6.81 1.44 14.67 3.12z"/><path class="cls-4" d="M401.46 478.81v13.47L378.68 494l-6.81.52-26.15 1.98v-13.74l26.15-1.85 6.81-.49 22.78-1.61zM331.05 479.64v59.03l-6.81-2.88V478.2l6.81 1.44z"/><path class="cls-23" d="M378.68 480.42v60.18l-6.81.69v-60.38l6.02-.43.79-.06z"/><path class="cls-6" d="m324.24 478.2 55.18-4.65 7.05 1.68-55.42 4.41-6.81-1.44z"/><path class="cls-6" d="m371.87 480.91-32.82-6.5 9.31-.76 30.32 6.77-6.81.49z"/><path class="cls-4" d="M329.52 461.45s-2 6.41 26.6 16.48l-1-2.45s-15.08-5.2-22.16-13.24c-.73-.78-2.96.08-3.44-.79Z"/><path class="cls-6" d="M353.63 475.14s-15.63-21.41-24.11-13.69c0 0 10 6.43 26.6 16.48Z"/><path class="cls-4" d="M373.32 453.92s7.86 9-16.22 22l-2.85.37s18.44-10 16.17-22.36c0-.01.58-1.02 2.9-.01Z"/><path class="cls-6" d="M353.63 476.59s2.32-28.18 19.69-22.67c0 0-6.88-2.59-16.22 22ZM354.73 477.64s-11.58.39-6.92 20.26l5.57.49s-9.82-14.56 4.82-21.44ZM358.37 476.73a48.76 48.76 0 0 1 36.09 7.1l5.36-1.74s-21.89-11.17-43.39-5.6Z"/><path class="cls-4" d="M354 474.13s-1.36 1.78 0 2.46l2.14 1.34.41-2.23-.7-2.15Z"/><path class="cls-6" d="M359.64 477s-1.05-3.15-3.81-3.42l-1.85.58a3.08 3.08 0 0 1 2.14 3.8Z"/><path class="cls-7" d="M199.43 430.96v71.36l-22.2-7.85-15.25-5.38-14.67-5.19v-69.5l14.67 4.66 15.25 4.85 22.2 7.05z"/><path class="cls-8" d="m180.1 440.53-2.87 53.94-3.86-57.78 6.73 3.84zM199.43 447.67v54.65l48.66-18.42v-55.29l-48.49 19.12-.17-.06z"/><path class="cls-9" d="m217.49 440.68 3.18 53.6 3.09-56.08-6.27 2.48z"/><path class="cls-8" d="m177.23 423.91-15.25-4.85-14.67-4.66v14.01l52.12 19.26v-16.71l-22.2-7.05z"/><path class="cls-9" d="M199.43 430.96v16.71l.17.06 48.49-19.12V414.4l-48.66 16.56z"/><path class="cls-10" d="m147.31 414.4 52.12 16.56 48.66-16.56-50.39-16.72-50.39 16.72z"/><path class="cls-7" d="M199.6 421.74v21.75l-22.37-7.9-15.25-5.38-19.67-6.95v-19.73l19.67 6.25 15.25 4.85 22.37 7.11z"/><path class="cls-8" d="M253.09 403.53v19.73l-17.17 6.5-15.25 5.76-21.07 7.97v-21.75l21.07-7.17 15.25-5.2 17.17-5.84z"/><path class="cls-11" d="m142.31 403.53 57.29 18.21 53.49-18.21-55.39-18.38-55.39 18.38z"/><path class="cls-12" d="M177.23 414.63v79.84l-15.25-5.38v-79.31l15.25 4.85z"/><path class="cls-13" d="M220.67 494.28V414.57l15.25-5.2v79.14l-15.25 5.77z"/><path class="cls-14" d="m161.98 409.78 51.34-19.45 14.97 4.97-51.06 19.33-15.25-4.85z"/><path class="cls-14" d="m220.67 414.57-56.25-18.38 17.66-5.86 53.84 19.04-15.25 5.2z"/><path class="cls-14" d="M192.14 406.66c-6.14.46-11.85 7.11-16 13.49a88 88 0 0 0-6.44 12l-1.7-8.61-9.84 5.27c2.14-9.18 6-15.54 10.34-19.95a33.47 33.47 0 0 1 22.52-10Z"/><path class="cls-12" d="M192.14 406.66a11.31 11.31 0 0 0-4.64 1.48c-4.33 2.39-8.27 7.27-11.32 12 .92-8.17-5.18-10.64-7.68-11.29a33.52 33.52 0 0 1 16.94-9.28 27.9 27.9 0 0 1 5.58-.68Z"/><path class="cls-13" d="M187.5 408.14c.39-4.51-1-7.22-2.06-8.56a27.9 27.9 0 0 1 5.58-.68l1.12 7.76a11.31 11.31 0 0 0-4.64 1.48Z"/><path class="cls-14" d="M206.42 406.66c6.14.46 11.85 7.11 16 13.49a88.62 88.62 0 0 1 6.43 12l1.75-8.61 9.84 5.27c-2.15-9.18-6-15.54-10.34-19.95a33.5 33.5 0 0 0-22.53-10Z"/><path class="cls-12" d="M206.42 406.66a11.26 11.26 0 0 1 4.64 1.48c4.34 2.39 8.28 7.27 11.33 12-.93-8.17 5.17-10.64 7.68-11.29a33.54 33.54 0 0 0-16.95-9.28 27.9 27.9 0 0 0-5.58-.68Z"/><path class="cls-13" d="M211.06 408.14c-.39-4.51 1-7.22 2.06-8.56a27.9 27.9 0 0 0-5.58-.68l-1.12 7.76a11.26 11.26 0 0 1 4.64 1.48Z"/><path class="cls-14" d="M193.82 401.82c-4.74-.76-16.59-6.17-16.59-6.17a35.18 35.18 0 0 0-4.45-2.16 25.9 25.9 0 0 0-4.09-1.31c-6.62-1.57-10.53.27-10.53.27-1.29-6.64 1-10.38 4-12.49a11.65 11.65 0 0 1 8.32-2 13.08 13.08 0 0 1 4.86 1.7c1.15.68 2.29 1.42 3.39 2.19a86.59 86.59 0 0 1 13.35 11.77Z"/><path class="cls-12" d="M193.82 401.82h-.66c-18.58.15-27.33-2.74-31.41-5.35-3.31-2.1-3.59-4-3.59-4 7-12.42 32.08 5.21 32.08 5.21Z"/><path class="cls-13" d="M193.82 401.82h-.66c-.69-.34-1.43-.73-2.19-1.16-19.74-11.19-27-6.66-29.22-4.19-3.31-2.1-3.59-4-3.59-4 7-12.42 32.08 5.21 32.08 5.21Z"/><path class="cls-15" d="M164.43 388.2a18.24 18.24 0 0 1 7.11.48c-.88-5.32 4.41-6.53 7.17-6.8a52.87 52.87 0 0 0-3.39-2.19 13.08 13.08 0 0 0-4.86-1.7c-7.82 1.37-6 10.19-6 10.19Z"/><path class="cls-14" d="M204.38 401.82c4.74-.76 16.59-6.17 16.59-6.17a35.18 35.18 0 0 1 4.45-2.16 25.9 25.9 0 0 1 4.09-1.31c6.62-1.57 10.53.27 10.53.27 1.29-6.64-1-10.38-4-12.49a11.65 11.65 0 0 0-8.32-2 13.08 13.08 0 0 0-4.86 1.7 52.87 52.87 0 0 0-3.39 2.19 86.59 86.59 0 0 0-13.35 11.77Z"/><path class="cls-12" d="M204.38 401.82h.62c18.58.15 27.33-2.74 31.41-5.35 3.31-2.1 3.59-4 3.59-4-7-12.42-32.08 5.21-32.08 5.21Z"/><path class="cls-13" d="M204.38 401.82h.62c.69-.34 1.43-.73 2.19-1.16 19.74-11.19 27-6.66 29.22-4.19 3.31-2.1 3.59-4 3.59-4-7-12.42-32.08 5.21-32.08 5.21Z"/><path class="cls-15" d="M233.77 388.2a18.24 18.24 0 0 0-7.11.48c.88-5.32-4.4-6.53-7.17-6.8 1.1-.77 2.24-1.51 3.39-2.19a13.08 13.08 0 0 1 4.86-1.7c7.82 1.37 6 10.19 6 10.19Z"/><rect class="cls-12" x="190.24" y="391.42" width="17.78" height="15.43" rx="3.86"/><rect class="cls-15" x="190.24" y="393.65" width="17.78" height="4.01" rx="1.82"/><path class="cls-13" d="M205.24 400.44H193a2.78 2.78 0 0 1-2.78-2.78v5.54A2.78 2.78 0 0 0 193 406h12.22a2.79 2.79 0 0 0 2.78-2.8v-5.54a2.79 2.79 0 0 1-2.76 2.78Z"/><path style="fill:#fc9" d="m207.09 452.34-5.92 23.74-1.68 6.74-12.04 48.27-76.89-18.35-6.77-1.61-23.86-5.69 16.97-46.55 2.39-6.57 7.73-21.19 18.6 3.93 6.82 1.46 74.65 15.82z"/><path class="cls-5" d="m187.44 531.09 2.28 30.79L209 488.1l-1.91-35.76-19.65 78.75z"/><path class="cls-3" d="m79.92 505.44 3.8 30.41 106 26.03-2.28-30.79-107.52-25.65z"/><path class="cls-8" d="m201.17 476.08-1.68 6.74-75.29-17.55-6.79-1.59-20.51-4.79 2.39-6.57 20.05 4.67 6.77 1.58 75.06 17.51z"/><path class="cls-8" d="m110.56 512.74 13.64-47.47 1.91-6.7 6.33-22.05-6.82-1.46-6.28 21.93-1.93 6.69-13.62 47.45 6.77 1.61z"/><path style="fill:#0f0f19" d="m110.56 512.74 3.92 30.67-7.55-1.86-3.14-30.42 6.77 1.61z"/><path class="cls-9" d="m199.49 482.82 1.68 35.24 1.81-6.93-1.81-35.05-1.68 6.74z"/><path class="cls-10" d="m118.47 461.05-44.31 24.83h6.83l-2.13 5.23 45.91-29.64-6.3-.42zM122.03 463.29l27 39.15v-5.37l9.58 3.54-33.62-38.75-2.96 1.43z"/><path class="cls-16" d="M118.52 463.36a9.42 9.42 0 0 0-1.53 1.19l-1.51 1.28c-1 .86-2 1.76-3 2.6l-1.48 1.28c-.5.41-1 .83-1.52 1.22s-1 .81-1.56 1.13a2.89 2.89 0 0 1-1.78.46 9.85 9.85 0 0 1-5.78-16.86 2.87 2.87 0 0 1 1.69-.73c.62-.07 1.28 0 1.92-.06s1.3 0 2 0l2 .09c1.32 0 2.65.15 4 .22l2 .09a9.66 9.66 0 0 0 1.94 0 4.31 4.31 0 0 1 2.77 8.08ZM125.38 463.75a9.36 9.36 0 0 1 1.54 1.19l1.5 1.28c1 .86 2 1.76 3 2.61l1.51 1.27c.51.41 1 .83 1.52 1.22s1 .81 1.56 1.14a3 3 0 0 0 1.79.45 9.85 9.85 0 0 0 5.78-16.86 2.92 2.92 0 0 0-1.7-.73c-.62-.08-1.28 0-1.92-.06s-1.3 0-1.95 0l-2 .09c-1.31.05-2.65.16-4 .22l-2 .09a10.47 10.47 0 0 1-1.94 0 4.31 4.31 0 0 0-2.77 8.07Z"/><path class="cls-10" d="M117.39 463.31a10.12 10.12 0 0 0-1.84.6l-1.85.71c-1.23.48-2.46 1-3.69 1.46l-1.84.7c-.62.21-1.23.44-1.85.63s-1.23.43-1.84.56a2.93 2.93 0 0 1-1.84-.17 9.85 9.85 0 0 1 .18-17.82 2.92 2.92 0 0 1 1.84-.13c.62.14 1.23.39 1.84.59s1.22.44 1.83.67l1.83.74c1.22.49 2.44 1 3.66 1.54l1.83.74a9.5 9.5 0 0 0 1.83.64 4.31 4.31 0 0 1-.09 8.54Z"/><path class="cls-16" d="M112 460.71a23.85 23.85 0 0 0 2.76-1.18 8.34 8.34 0 0 0 1.32-.76l.31-.25c.16-.11.08-.12 0-.13a.28.28 0 0 0-.29.2.29.29 0 0 0 .12.31c.06 0 .12.07.18.05s.07 0 0 0l-.16-.12A8 8 0 0 0 115 458c-.89-.48-1.78-1-2.69-1.36a.53.53 0 0 1 .37-1c1 .29 1.94.53 2.93.75a8.2 8.2 0 0 0 1.51.24h.19a1.9 1.9 0 0 1 .38.13 2.14 2.14 0 0 1 .74.54 2.16 2.16 0 0 1 .45 1.74 2 2 0 0 1-1.06 1.43 1.63 1.63 0 0 1-.66.19h-.4a7.4 7.4 0 0 0-1.49.28 23.24 23.24 0 0 0-2.87.88.59.59 0 1 1-.43-1.1Z"/><path class="cls-10" d="M125.79 463.31a10.12 10.12 0 0 1 1.84.6l1.85.71c1.23.48 2.46 1 3.69 1.46l1.85.7c.61.21 1.23.44 1.84.63s1.23.43 1.84.56a2.93 2.93 0 0 0 1.84-.17 9.85 9.85 0 0 0-.18-17.82 2.92 2.92 0 0 0-1.84-.13c-.61.14-1.22.39-1.83.59s-1.22.44-1.83.67l-1.84.74c-1.22.49-2.43 1-3.65 1.54l-1.83.74a9.83 9.83 0 0 1-1.84.64 4.31 4.31 0 0 0 .09 8.54Z"/><path class="cls-16" d="M132.69 460.71a24 24 0 0 1-2.77-1.18 8.25 8.25 0 0 1-1.31-.76l-.31-.25c-.16-.11-.08-.12 0-.13a.27.27 0 0 1 .28.2.28.28 0 0 1-.11.31c-.07 0-.12.07-.18.05s-.07 0 0 0l.15-.12a8.1 8.1 0 0 1 1.3-.82c.88-.48 1.78-1 2.69-1.36a.54.54 0 0 0-.38-1c-1 .29-1.93.53-2.92.75a8.34 8.34 0 0 1-1.51.24h-.2a2.14 2.14 0 0 0-.38.13 2 2 0 0 0-.73.54 2.13 2.13 0 0 0-.45 1.74 2 2 0 0 0 1.06 1.43 1.59 1.59 0 0 0 .66.19h.39a7.37 7.37 0 0 1 1.5.28 23.24 23.24 0 0 1 2.87.88.58.58 0 0 0 .76-.34.59.59 0 0 0-.33-.76Z"/><path class="cls-10" d="M128.73 459.07a5.05 5.05 0 0 1-5 5h-3.36a5 5 0 0 1-5-5 5.13 5.13 0 0 1 .32-1.76 5.1 5.1 0 0 1 1-1.65l.14-.14a5 5 0 0 1 3.55-1.47h3.36a5.08 5.08 0 0 1 4.7 3.26 5.13 5.13 0 0 1 .29 1.76Z"/><path class="cls-16" d="M123.71 462.7h-3.36a5 5 0 0 1-5-4.33 5.36 5.36 0 0 0-.06.7 5 5 0 0 0 5 5h3.36a5 5 0 0 0 5-5 5.36 5.36 0 0 0 0-.7 5 5 0 0 1-4.94 4.33Z"/><path d="M127.38 457.55c-5.79 1.3-9.34.59-10.86.1a.82.82 0 0 1-.45-1.21 5.51 5.51 0 0 1 .59-.78 67.81 67.81 0 0 1 10-.24 1.43 1.43 0 0 1 1 .52l.26.36a.82.82 0 0 1-.54 1.25Z" style="fill:#f95353"/><path class="cls-16" d="M274.05 510.48c-1 4.86-4.44 10.77-11.65 17.95-1.63 1.63-3.47 3.32-5.5 5.08a180.36 180.36 0 0 1-15.28 11.67c-57.63-12.73-69-25.76-68.2-34.62a9.75 9.75 0 0 1 .25-1.45c1.71-6.8 11.42-11.77 22.94-12a36.09 36.09 0 0 1 3.74.08c14.46 1 22 8.73 22 8.73s-.64-8.74 11-13.46c7.93-3.21 18.36-3.19 26.69-.43a28.63 28.63 0 0 1 7.44 3.64c.37.26.72.52 1.07.81 3.18 2.51 5.59 5.85 5.84 10.25a14.61 14.61 0 0 1-.34 3.75Z"/><path class="cls-10" d="M262.4 503.4c-1.63 1.63-3.47 3.32-5.5 5.08a180.27 180.27 0 0 1-15.28 11.68c-22.9-5.06-38.51-10.17-48.94-15a79.91 79.91 0 0 1-7.59-4l-.76-.48-.72-.47c-.45-.3-.89-.6-1.3-.9a31.31 31.31 0 0 1-4.11-3.36c-.2-.19-.38-.39-.56-.57-3-3.1-4.13-6-4.23-8.55a9.7 9.7 0 0 1 .29-2.66 10.56 10.56 0 0 1 2.17-4.13 18.64 18.64 0 0 1 6.43-4.74 37.06 37.06 0 0 1 18.08-3.07 41.35 41.35 0 0 1 4.4.54 38.57 38.57 0 0 1 5 1.21 34.74 34.74 0 0 1 4.23 1.6c1 .46 2 .95 2.83 1.43h.06c.23.12.45.25.66.38a25.11 25.11 0 0 1 4.73 3.53s-.64-8.75 11-13.47c10.56-4.27 25.56-2.82 34.13 3.21 7.86 5.48 12.35 15.44-5.02 32.74Z"/><path class="cls-17" d="M173.46 485.23h-.08v1.05a6.77 6.77 0 0 1 .08-1.05ZM178.44 496.13l-.24-.23c-3.55-3.45-4.82-6.65-4.82-9.46v24.12c-.29 3 .86 6.53 4.78 10.35l.24.24a36.7 36.7 0 0 0 5.17 4l-1.3-25.91a35.38 35.38 0 0 1-3.83-3.11ZM186.59 502l-1.53-.91-.72-.46-.72 24.55c.46.31.95.61 1.45.93 9.86 6 27.22 12.6 56.56 19.08v-25c-27.88-6.19-44.95-12.41-55.04-18.19Z"/><path class="cls-18" d="M183.61 500.15c.23.16.49.31.73.46l33.23-23.25c-.21-.13-.43-.26-.66-.38a32.32 32.32 0 0 0-2.89-1.46l-31.76 22.57.06 1.17c.41.29.84.59 1.29.88Z"/><path class="cls-19" d="M184.34 500.61c-.24-.15-.5-.3-.73-.46-.45-.29-.88-.59-1.29-.88l1.3 25.91.72-24.55Z"/><path class="cls-16" d="M256.18 509.09a180.38 180.38 0 0 1-14.55 11.06v25a180.36 180.36 0 0 0 15.28-11.67l-.72-24.41ZM268.52 496.47a64.93 64.93 0 0 1-6.12 6.93q-2 2-4.41 4.12l-1.07 26c2-1.76 3.87-3.45 5.5-5.08 7.21-7.18 10.66-13.09 11.65-17.95.2-2.21.31-3.63.31-3.63v-23.79c-.2 3.73-1.89 8.16-5.86 13.4Z"/><path class="cls-18" d="m257 508.42 1-.88v-.49l-80.84-28.46-1.8 2 80.82 28.5.73-.61Z"/><path class="cls-18" d="m258 507.54-1 .88-.06.06-.73.61.72 24.41 1.07-26Z"/><path class="cls-20" d="M183.61 500.15v25a36.7 36.7 0 0 1-5.17-4l-.24-.24v-25l5.4 4.25Z"/><path class="cls-13" d="M262.4 503.4v25c-1.63 1.63-3.47 3.32-5.5 5.08v-25l.06-.06 5.42-5Z"/><path class="cls-12" d="M262.4 503.4c-1.63 1.63-3.47 3.32-5.5 5.08l-13.45-4.73-10.36-3.64-29.92-10.53 1.88-1a1.48 1.48 0 0 0 .47-.38 5.75 5.75 0 0 1 .66-.23.58.58 0 0 1 .14 0 4.07 4.07 0 0 1 .58-.14h.1a4.64 4.64 0 0 1 .64-.07h.86l1 .09h.16a15 15 0 0 1 2.27.51h.16a23 23 0 0 1 2.26.84l.25.11c.36.15.72.32 1.08.49l.1.06c.32.15.64.31 1 .48l.31.16 1 .55a54.75 54.75 0 0 1 6.94 4.75l-1.49-5.21h2.64l14.44 5.08 10.49 3.68ZM192.88 484.82a1.5 1.5 0 0 1 .79-1l5.23-2.72-16.63-5.84a18.64 18.64 0 0 0-6.43 4.74l7.29 2.57h.13a53.88 53.88 0 0 1 9.62 2.25ZM202 480.09c.08-.28.19-.62.3-1l-1.37 1a1.57 1.57 0 0 1 1.07 0ZM216.83 476.93a34.26 34.26 0 0 0-3.63-1.77c.28.11.55.23.81.35.99.49 1.99.95 2.82 1.42ZM216.91 477h-.06l-.31.3ZM212.33 474.8l.61.25ZM211.26 474.4l.65.24ZM209.78 473.91c.38.11.74.23 1.1.36-.36-.13-.72-.27-1.1-.36ZM186.22 497.87l.21-.44.12-.27.24-.46.1-.18c.09-.18.18-.34.28-.51a21.17 21.17 0 0 1 2.22-3.12c-5 2-8.36 2.57-10.55 2.53l-.68.47a35.82 35.82 0 0 0 5.41 4.26l2.34-1.63c0-.11.09-.21.13-.32s.14-.2.18-.33Z"/><path class="cls-21" d="M216.84 476.94ZM212.94 475.05l.26.11ZM210.88 474.27l.38.13ZM211.91 474.64l.42.16ZM226.17 490.66h4.25a25.29 25.29 0 0 0-11.34-8l-.83-.25-.38-.1-.43-.11-.46-.1-.34-.07-.48-.09-.29-.05-.52-.07a1.38 1.38 0 0 1-.2 0l-.58-.06a20.94 20.94 0 0 0-3.89 0 37.66 37.66 0 0 0 5.87-4.57L207 483.9Z"/><path class="cls-18" d="M186 498.52v.11l-.15.41c-.05.12-.1.25-.14.37s-.19.54-.27.82-.17.57-.25.87a79.91 79.91 0 0 0 7.59 4c0-.29 0-.59.08-.88s.07-.76.12-1.14v-.35l.15-1.06a.36.36 0 0 0 0-.11c.06-.39.14-.78.22-1.16a2.56 2.56 0 0 0 .05-.27 24.08 24.08 0 0 1 .62-2.33c0-.05 0-.11.05-.17a15.24 15.24 0 0 1 .89-2.14l.08-.15c.16-.31.33-.6.51-.88l.05-.07c.12-.18.25-.36.38-.52l.08-.1c.13-.17.28-.33.42-.48l.08-.09a5.74 5.74 0 0 1 .45-.41l.1-.09a4.73 4.73 0 0 1 .46-.32 1.7 1.7 0 0 0 .53-.16l5.11-2.66-2.9-1ZM183.13 482.53c-.78-.1-1.57-.18-2.35-.23a7.89 7.89 0 0 0-3.14.46 7.16 7.16 0 0 0-4 3.45c-.09.17-.17.35-.25.54.1 2.58 1.26 5.45 4.23 8.55l.5.06h.74l13.72-9.55Z"/><path class="cls-21" d="m200.88 480.07-.22.08-1.76.91.36.13ZM204.75 472.69a55 55 0 0 0-2.5 6.42l7.5-5.21a38.57 38.57 0 0 0-5-1.21ZM205.52 488.23a5.75 5.75 0 0 1 .66-.23.58.58 0 0 1 .14 0 4.07 4.07 0 0 1 .58-.14h.1a4.64 4.64 0 0 1 .64-.07h.86l1 .09h.16a15 15 0 0 1 2.27.51h.16a23 23 0 0 1 2.26.84l.25.11c.36.15.72.32 1.08.49l.1.06c.32.15.64.31 1 .48l.31.16 1 .55a54.75 54.75 0 0 1 6.94 4.75l-1.49-5.21h2.64L207 483.9l-6.69 4.66 2.9 1 1.88-1a1.48 1.48 0 0 0 .43-.33ZM199.26 481.19l-.36-.13-5.23 2.72a1.5 1.5 0 0 0-.79 1 53.88 53.88 0 0 0-9.62-2.28h-.13l9.44 3.32ZM192.57 485.85l-13.72 9.55c2.19 0 5.54-.51 10.55-2.53a21.17 21.17 0 0 0-2.22 3.12c-.1.17-.19.33-.28.51l-.1.18-.24.46-.12.27-.21.44c0 .11-.09.22-.14.33s-.09.21-.13.32l14.32-10ZM207 483.9l9.57-6.66.31-.3c-.85-.47-1.79-1-2.82-1.42-.26-.12-.53-.24-.81-.35l-.26-.11-.61-.25-.42-.16-.65-.24-.38-.13c-.36-.13-.72-.25-1.1-.36l-7.5 5.21c-.11.36-.22.7-.3 1a1.57 1.57 0 0 0-1.07 0l-1.62 1.12Z"/><path class="cls-21" d="m192.57 485.85 7.7 2.71 6.69-4.66-7.7-2.71-6.69 4.66z"/><path class="cls-14" d="M197.7 490.82c-3.23 2-4.47 7.26-4.91 11.93a55.75 55.75 0 0 0-.12 8.41l-3.4-4.22-3.9 5.68a25.35 25.35 0 0 1 0-13.87 20.69 20.69 0 0 1 9.51-11.87Z"/><path class="cls-12" d="M197.7 490.82a7.06 7.06 0 0 0-2.12 2.13c-1.69 2.54-2.47 6.34-2.79 9.8a6 6 0 0 0-7.42-4 20.7 20.7 0 0 1 6.65-9.91 16.86 16.86 0 0 1 2.86-2Z"/><path class="cls-13" d="M195.58 493a7.46 7.46 0 0 0-3.56-4.11 16.86 16.86 0 0 1 2.86-2l2.82 3.94a7.06 7.06 0 0 0-2.12 2.17Z"/><path class="cls-14" d="M205.53 486.75c3.49-1.49 8.51.53 12.58 2.86a54.75 54.75 0 0 1 6.94 4.75l-1.49-5.22 6.89.09a25.24 25.24 0 0 0-11.34-8 20.66 20.66 0 0 0-15.18.95Z"/><path class="cls-12" d="M205.53 486.75a7 7 0 0 1 3-.5c3.06.08 6.61 1.63 9.62 3.36a6 6 0 0 1 1-8.37 20.78 20.78 0 0 0-11.93-.27 16.93 16.93 0 0 0-3.25 1.22Z"/><path class="cls-13" d="M208.49 486.25a7.44 7.44 0 0 1-1.31-5.28 16.93 16.93 0 0 0-3.25 1.22l1.6 4.56a7 7 0 0 1 2.96-.5Z"/><path class="cls-14" d="M197.24 487.69c-2.81.93-10.84 1.34-10.84 1.34a20 20 0 0 0-3.05.08 16.6 16.6 0 0 0-2.62.44c-4.07 1-5.7 3.15-5.7 3.15-2.59-3.28-2.39-6-1.36-8a7.18 7.18 0 0 1 4-3.45 8.09 8.09 0 0 1 3.14-.45c.83.05 1.66.13 2.48.24a53.55 53.55 0 0 1 10.71 2.67Z"/><path class="cls-12" d="m197.24 487.69-.36.19c-10.14 5.36-15.75 6.27-18.74 6-2.4-.22-3.11-1.18-3.11-1.18.3-8.8 19.07-6.27 19.07-6.27Z"/><path class="cls-13" d="m197.24 487.69-.36.19h-1.53c-14-.51-16.7 4-17.21 6-2.4-.22-3.11-1.18-3.11-1.18.3-8.8 19.07-6.27 19.07-6.27Z"/><path class="cls-15" d="M177.26 488.58a11.18 11.18 0 0 1 4-1.75c-2-2.67.55-4.84 2-5.77-.82-.11-1.65-.19-2.48-.24a8.09 8.09 0 0 0-3.14.45c-3.9 3-.42 7.31-.42 7.31Z"/><path class="cls-14" d="M203 484.69c2.38-1.77 7.34-8.1 7.34-8.1a21.67 21.67 0 0 1 1.82-2.45 16.76 16.76 0 0 1 1.87-1.89c3.18-2.74 5.85-2.84 5.85-2.84-1.18-4-3.51-5.4-5.73-5.71a7.19 7.19 0 0 0-5.12 1.28 8.32 8.32 0 0 0-2.19 2.31c-.43.71-.85 1.44-1.23 2.17a54.1 54.1 0 0 0-4 10.25Z"/><path class="cls-12" d="m203 484.69.37-.19c10.22-5.21 14.19-9.28 15.69-11.87 1.21-2.09.82-3.22.82-3.22-7.36-4.82-16.1 12-16.1 12Z"/><path class="cls-13" d="m203 484.69.37-.19q.42-.58.87-1.26c7.63-11.75 12.9-11.34 14.82-10.61 1.21-2.09.82-3.22.82-3.22-7.36-4.82-16.1 12-16.1 12Z"/><path class="cls-15" d="M215.26 468.86a11.3 11.3 0 0 0-3.76 2.29c-1-3.17-4.27-2.33-5.86-1.69.38-.73.8-1.46 1.23-2.17a8.32 8.32 0 0 1 2.19-2.31c4.67-1.47 6.21 3.87 6.21 3.87Z"/><path class="cls-12" d="m204.56 487.4-5.94 3.08a2.13 2.13 0 0 1-2.89-.92l-2.42-4.65a2.15 2.15 0 0 1 .92-2.89l5.94-3.08a2.14 2.14 0 0 1 2.89.91l2.41 4.66a2.14 2.14 0 0 1-.91 2.89Z"/><path class="cls-15" d="m203.32 480.37-.1-.2a1.11 1.11 0 0 0-1.51-.48l-7.75 4a1.12 1.12 0 0 0-.48 1.52l.1.2a1.12 1.12 0 0 0 1.51.48l7.75-4a1.12 1.12 0 0 0 .48-1.52Z"/><path class="cls-13" d="m203.11 483.68-6.7 3.48a1.71 1.71 0 0 1-2.31-.73l1.57 3a1.73 1.73 0 0 0 2.32.74l6.7-3.48a1.72 1.72 0 0 0 .73-2.31l-1.58-3a1.71 1.71 0 0 1-.73 2.3Z"/><path class="cls-14" d="m251.1 499.42-7.65 4.33-2.81-.98-2.58-.92-4.97-1.74 7.52-4.37 4.67 1.64 2.5.88 3.32 1.16z"/><path class="cls-15" d="m247.78 498.26-7.14 4.51-2.58-.92 7.22-4.47 2.5.88z"/><path class="cls-7" d="M250.74-33.33a162 162 0 0 1-160.6 53.66l.09-.4a161.62 161.62 0 0 0 160.2-53.52Z"/><path class="cls-7" d="M125.73 25.56a31.05 31.05 0 0 1-12.12-2.83c-.86 7.87 3.41 18 12 20.24 8.64-2.15 12.94-12.22 12.18-20.09a25.42 25.42 0 0 1-12.06 2.68Z"/><path class="cls-7" d="M135.61 23.81a16.19 16.19 0 0 1-4.05 12.45 18.86 18.86 0 0 1-9.14 5.4 13.28 13.28 0 0 0 3.21 1.34c8.64-2.14 12.94-12.22 12.18-20.09-.81.32-1.51.63-2.2.9Z"/><path class="cls-27" d="M114.31 23.87a23.87 23.87 0 0 0 5.44 14.27c.09-3.75 1.86-8.27 3.84-11.53-3.04-.15-6.87-1-9.28-2.74Z"/><path class="cls-28" d="M161.2 21.86a30.55 30.55 0 0 1-12.29-.14c.88 7.86 7.17 16.82 16 17.16 7.87-4 9.86-14.71 7.41-22.23a25.21 25.21 0 0 1-11.12 5.21Z"/><path class="cls-29" d="M170.37 18a16.24 16.24 0 0 1-1.22 13 18.73 18.73 0 0 1-7.65 7.24 13.16 13.16 0 0 0 3.39.59c7.87-4 9.86-14.71 7.41-22.23-.68.56-1.3 1.02-1.93 1.4Z"/><path class="cls-30" d="M149.83 22.68c1.27 4.66 4.18 9.73 8.33 12.75-.73-3.68 0-8.47 1.2-12.08-2.97.5-6.84.5-9.53-.67Z"/><path class="cls-28" d="M194.84 10.62a30 30 0 0 1-12 2.51c2.56 7.48 10.62 14.88 19.29 13.31 6.83-5.55 6.47-16.5 2.45-23.31a25.07 25.07 0 0 1-9.74 7.49Z"/><path class="cls-29" d="M203 4.9a16.16 16.16 0 0 1 1.62 13 18.56 18.56 0 0 1-5.91 8.72 13.29 13.29 0 0 0 3.44-.16c6.83-5.55 6.47-16.5 2.45-23.31-.6.63-1.11 1.21-1.6 1.75Z"/><path class="cls-30" d="M183.93 13.87c2.25 4.28 6.18 8.6 10.88 10.66-1.51-3.44-1.84-8.27-1.45-12.06-2.78 1.14-6.56 1.96-9.43 1.4Z"/><path class="cls-8" d="M225.41-7.73a30.69 30.69 0 0 1-11.27 5.12c4.12 6.75 13.62 12.22 21.86 8.74 5.54-7 2.86-17.63-2.55-23.4a25.74 25.74 0 0 1-8.04 9.54Z"/><path class="cls-27" d="M232.2-15.17a16 16 0 0 1 4.36 12.36 18.92 18.92 0 0 1-3.95 9.86 13.4 13.4 0 0 0 3.39-.92c5.54-7 2.86-17.63-2.55-23.4-.45.77-.86 1.46-1.25 2.1ZM215.38-2.13c3.13 3.68 7.91 7.05 13 8-2.21-3-3.57-7.68-4-11.47-2.52 1.74-6.06 3.39-9 3.47Z"/><path class="cls-7" d="M405.15 15.42a162 162 0 0 1-164.23-41.21l.29-.28A161.63 161.63 0 0 0 405 15Z"/><path class="cls-7" d="M268.1-2.23a30.93 30.93 0 0 1-8.69-8.9c-5 6.17-6.82 17-.76 23.53 8.43 2.84 17.48-3.34 21.08-10.38a25.42 25.42 0 0 1-11.63-4.25Z"/><path class="cls-7" d="M277.37 1.62a16.15 16.15 0 0 1-10.11 8.31 18.74 18.74 0 0 1-10.62-.37 13.56 13.56 0 0 0 2 2.84c8.43 2.84 17.48-3.34 21.08-10.38-.84-.12-1.62-.25-2.35-.4Z"/><path class="cls-27" d="M259.39-9.79c-2.41 4.19-3.93 9.85-3.1 15 2.09-3.11 6-6 9.44-7.65-2.48-1.81-5.25-4.56-6.34-7.35Z"/><path class="cls-28" d="M300 13.74A30.09 30.09 0 0 1 289.71 7c-3.49 7.1-3 18 4.23 23.06 8.76.91 16.22-7.08 18.21-14.74A25 25 0 0 1 300 13.74Z"/><path class="cls-29" d="M309.77 15.45a16.16 16.16 0 0 1-8 10.32 18.54 18.54 0 0 1-10.35 2 13.11 13.11 0 0 0 2.55 2.32c8.76.91 16.22-7.08 18.21-14.74-.88.05-1.67.09-2.41.1Z"/><path class="cls-30" d="M290 8.32c-1.44 4.61-1.72 10.45.15 15.23 1.37-3.5 4.56-7.15 7.51-9.54-2.8-1.17-6.06-3.26-7.66-5.69Z"/><path class="cls-28" d="M334.39 22.38A30.23 30.23 0 0 1 322.91 18c-1.86 7.69.95 18.26 9.1 21.6 8.75-1 14.33-10.42 14.62-18.33a25.09 25.09 0 0 1-12.24 1.11Z"/><path class="cls-29" d="M344.32 21.94a16.16 16.16 0 0 1-5.62 11.81 18.66 18.66 0 0 1-9.7 4.17 13.27 13.27 0 0 0 3 1.71c8.75-1 14.33-10.42 14.62-18.33-.82.25-1.62.46-2.3.64Z"/><path class="cls-30" d="M323.45 19.25c-.42 4.81.57 10.57 3.43 14.83.58-3.7 2.9-7.95 5.26-10.93-2.95-.54-6.58-1.88-8.69-3.9Z"/><path class="cls-8" d="M370 23.36a30.39 30.39 0 0 1-12.25-1.75c-.16 7.91 4.9 17.63 13.68 19.11 8.41-2.89 11.9-13.32 10.44-21.1A25.58 25.58 0 0 1 370 23.36Z"/><path class="cls-27" d="M379.76 20.75a16.08 16.08 0 0 1-3 12.76 19 19 0 0 1-8.64 6.19 13.63 13.63 0 0 0 3.32 1c8.41-2.9 11.9-13.32 10.44-21.1-.74.45-1.45.82-2.12 1.15ZM358.57 22.69c.65 4.78 2.87 10.19 6.61 13.73-.24-3.74 1.12-8.4 2.8-11.82-2.98.12-6.89-.4-9.41-1.91Z"/><path class="cls-7" d="M541.61-32.72A162.07 162.07 0 0 1 381 20.93c0-.13.07-.26.1-.4A161.63 161.63 0 0 0 541.3-33Z"/><path class="cls-7" d="M416.6 26.16a31.17 31.17 0 0 1-12.12-2.82c-.86 7.86 3.4 18 12 20.23 8.64-2.14 12.94-12.22 12.18-20.09a25.44 25.44 0 0 1-12.06 2.68Z"/><path class="cls-7" d="M426.47 24.41a16.11 16.11 0 0 1-4.05 12.45 18.74 18.74 0 0 1-9.14 5.4 13 13 0 0 0 3.22 1.31c8.64-2.14 12.94-12.22 12.18-20.09-.78.36-1.51.66-2.21.93Z"/><path class="cls-27" d="M405.18 24.47c.23 4.83 2 10.42 5.43 14.27.1-3.75 1.86-8.27 3.84-11.53-3.04-.15-6.86-1-9.27-2.74Z"/><path class="cls-28" d="M452.06 22.46a30.33 30.33 0 0 1-12.28-.14c.88 7.86 7.17 16.82 16 17.16 7.87-3.95 9.87-14.71 7.42-22.23a25 25 0 0 1-11.14 5.21Z"/><path class="cls-29" d="M461.23 18.63a16.19 16.19 0 0 1-1.21 13 18.63 18.63 0 0 1-7.66 7.24 13.24 13.24 0 0 0 3.39.59c7.87-3.95 9.87-14.71 7.42-22.23-.68.53-1.32.99-1.94 1.4Z"/><path class="cls-30" d="M440.7 23.28C442 27.94 444.88 33 449 36c-.72-3.68 0-8.47 1.2-12.08-2.94.54-6.81.53-9.5-.64Z"/><path class="cls-28" d="M485.7 11.22a30 30 0 0 1-12 2.51c2.56 7.49 10.62 14.89 19.28 13.32 6.84-5.56 6.48-16.51 2.46-23.32a25.1 25.1 0 0 1-9.74 7.49Z"/><path class="cls-29" d="M493.84 5.5a16.2 16.2 0 0 1 1.62 13 18.66 18.66 0 0 1-5.91 8.72 13.2 13.2 0 0 0 3.43-.15c6.84-5.56 6.48-16.51 2.46-23.32-.56.63-1.08 1.25-1.6 1.75Z"/><path class="cls-30" d="M474.8 14.47c2.24 4.28 6.17 8.6 10.87 10.66-1.5-3.44-1.83-8.27-1.44-12-2.79 1.08-6.56 1.87-9.43 1.34Z"/><path class="cls-7" d="M113.5 16A162 162 0 0 1-50.73-25.19l.29-.28a161.61 161.61 0 0 0 163.82 41.11Z"/><path class="cls-28" d="M8.34 14.35A30.51 30.51 0 0 1-1.95 7.62c-3.48 7.1-3 18 4.23 23.05 8.76.91 16.23-7.08 18.22-14.74a25.11 25.11 0 0 1-12.16-1.58Z"/><path class="cls-29" d="M18.12 16.06a16.21 16.21 0 0 1-8 10.32 18.73 18.73 0 0 1-10.35 2 13.33 13.33 0 0 0 2.54 2.31c8.76.91 16.23-7.08 18.22-14.74-.88.05-1.67.05-2.41.11Z"/><path class="cls-30" d="M-1.69 8.92c-1.44 4.61-1.71 10.45.16 15.23C-.16 20.65 3 17 6 14.61c-2.79-1.17-6-3.26-7.69-5.69Z"/><path class="cls-28" d="M42.73 23a30.25 30.25 0 0 1-11.47-4.35c-1.86 7.69.95 18.26 9.1 21.6C49.1 39.23 54.69 29.81 55 21.9A25.08 25.08 0 0 1 42.73 23Z"/><path class="cls-29" d="M52.67 22.54a16.19 16.19 0 0 1-5.62 11.81 18.66 18.66 0 0 1-9.68 4.17 13.11 13.11 0 0 0 3 1.71c8.73-1 14.32-10.42 14.63-18.33-.85.26-1.61.46-2.33.64Z"/><path class="cls-30" d="M31.8 19.85c-.42 4.81.57 10.57 3.43 14.83.58-3.7 2.9-7.95 5.26-10.93-2.95-.54-6.58-1.88-8.69-3.9Z"/><path class="cls-8" d="M78.38 24a30.72 30.72 0 0 1-12.25-1.75C66 30.12 71 39.84 79.8 41.32 88.22 38.43 91.71 28 90.25 20.23A25.82 25.82 0 0 1 78.38 24Z"/><path class="cls-27" d="M88.11 21.35a16.08 16.08 0 0 1-3 12.76 18.89 18.89 0 0 1-8.64 6.19 13.26 13.26 0 0 0 3.31 1c8.44-2.87 11.93-13.3 10.47-21.07-.76.42-1.47.77-2.14 1.12ZM66.92 23.29c.64 4.79 2.87 10.2 6.61 13.73-.24-3.74 1.12-8.39 2.8-11.82-3.03.12-6.9-.4-9.41-1.91Z"/></g></svg>